<?xml version="1.0" standalone="no"?>
<!DOCTYPE svg PUBLIC "-//W3C//DTD SVG 1.1//EN" "http://www.w3.org/Graphics/SVG/1.1/DTD/svg11.dtd" >
<svg xmlns="http://www.w3.org/2000/svg">
<metadata></metadata>
<defs>
<font id="architypebold" horiz-adv-x="1417" >
<font-face units-per-em="2048" ascent="1536" descent="-512" />
<missing-glyph horiz-adv-x="477" />
<glyph horiz-adv-x="0" />
<glyph horiz-adv-x="682" />
<glyph unicode=" "  horiz-adv-x="477" />
<glyph unicode="&#x09;" horiz-adv-x="477" />
<glyph unicode="&#xa0;" horiz-adv-x="477" />
<glyph unicode="!" horiz-adv-x="497" d="M66 160q0 73 52 124.5t126 51.5q75 0 127.5 -51.5t52.5 -124.5q0 -72 -52.5 -123t-127.5 -51q-74 0 -126 51t-52 123zM82 1436h332l-52 -977h-229z" />
<glyph unicode="&#x22;" horiz-adv-x="831" d="M92 1462h279l-19 -565h-217zM459 1462h280l-45 -565h-215z" />
<glyph unicode="#" horiz-adv-x="1492" d="M43 453v102h307l105 342h-283v102h315l134 435h139l-133 -435h383l133 435h139l-133 -435h291v-102h-322l-106 -342h299v-102h-330l-139 -453h-142l140 453h-381l-140 -453h-141l139 453h-274zM489 555h383l105 342h-381z" />
<glyph unicode="$" horiz-adv-x="1284" d="M80 436h332q30 -140 163 -166v332q-18 2 -49 10q-69 16 -119.5 32t-109 48t-95.5 73t-62 106.5t-25 148.5q0 52 13 102.5t46.5 103.5t83.5 94t132 69.5t185 33.5v156h99v-156q93 -5 171.5 -31t142.5 -74t105.5 -125.5t55.5 -178.5h-332q-47 119 -143 147v-282 q13 -2 37.5 -7.5t36.5 -7.5q53 -11 91.5 -21t87.5 -27.5t84 -38.5t71 -54t58 -72.5t36 -95t14 -121.5q0 -190 -138 -307t-378 -121v-147h-99v151q-130 10 -232.5 57t-173.5 141.5t-89 227.5zM418 1042q0 -57 40 -88.5t117 -52.5v266q-71 -5 -114 -37t-43 -88zM674 264 q203 7 203 160q0 62 -52 96.5t-151 59.5v-316z" />
<glyph unicode="%" horiz-adv-x="1982" d="M47 1004q0 202 103 324t272 122q168 0 272.5 -122.5t104.5 -323.5q0 -202 -104.5 -324.5t-272.5 -122.5q-169 0 -272 122.5t-103 324.5zM285 1004q0 -127 36 -197t101 -70t101 70t36 197t-36 196.5t-101 69.5t-101 -69.5t-36 -196.5zM575 0l689 1434h139l-686 -1434h-142 zM1184 430q0 202 103 324.5t272 122.5q168 0 272 -122.5t104 -324.5t-104 -324t-272 -122q-169 0 -272 122t-103 324zM1421 430q0 -127 36.5 -196.5t101.5 -69.5t101 69.5t36 196.5t-36 196.5t-101 69.5t-101.5 -69.5t-36.5 -196.5z" />
<glyph unicode="&#x26;" horiz-adv-x="1382" d="M55 362q0 134 83 247t237 214l6 4q-96 106 -141 182t-45 156q0 127 99 212t265 85q184 0 281.5 -79.5t97.5 -215.5q0 -116 -65 -209t-261 -241q5 -6 15.5 -17.5t15.5 -17.5l266 -291q137 212 131 598h265q0 -512 -228 -782l191 -207h-123l-131 141q-185 -170 -469 -170 q-221 0 -355.5 103t-134.5 288zM348 373q0 -80 57 -126t164 -46q166 0 281 118l-313 340q-108 -87 -148.5 -153t-40.5 -133zM408 1092q0 -93 67 -199q103 73 146 129t43 111q0 45 -32.5 76.5t-82.5 31.5q-63 0 -102 -41t-39 -108z" />
<glyph unicode="'" horiz-adv-x="462" d="M92 1462h279l-31 -565h-217z" />
<glyph unicode="(" horiz-adv-x="698" d="M57 598q0 382 156.5 620t417.5 269v-281q-140 -44 -215.5 -186.5t-75.5 -421.5t75.5 -421.5t215.5 -186.5v-281q-261 31 -417.5 269t-156.5 620z" />
<glyph unicode=")" horiz-adv-x="698" d="M68 -10q140 44 215 186.5t75 421.5t-75 421.5t-215 186.5v281q261 -31 417 -269t156 -620t-156 -620t-417 -269v281z" />
<glyph unicode="*" horiz-adv-x="839" d="M57 801v196l176 90l-176 91v200l258 -141l-4 221h209l-4 -221l258 141v-200l-176 -91l176 -90v-196l-258 137l4 -221h-209l4 221z" />
<glyph unicode="+" horiz-adv-x="1044" d="M102 537v188h314v326h213v-326h313v-188h-313v-312h-213v312h-314z" />
<glyph unicode="," horiz-adv-x="526" d="M84 -152q141 15 164 144q-75 7 -119.5 52.5t-44.5 113.5q0 74 51 126t127 52q82 0 133 -56t51 -157q0 -110 -39.5 -202t-123 -153.5t-199.5 -68.5v149z" />
<glyph unicode="-" horiz-adv-x="923" d="M94 528v189h737v-189h-737z" />
<glyph unicode="." horiz-adv-x="526" d="M84 160q0 73 52 124.5t126 51.5q75 0 127.5 -51.5t52.5 -124.5q0 -72 -52.5 -123t-127.5 -51q-74 0 -126 51t-52 123z" />
<glyph unicode="/" horiz-adv-x="1073" d="M45 0l838 1434h139l-836 -1434h-141z" />
<glyph unicode="0" horiz-adv-x="1394" d="M82 717q0 337 169 539t445 202q277 0 447 -202.5t170 -538.5q0 -337 -170 -539.5t-447 -202.5q-276 0 -445 202.5t-169 539.5zM426 717q0 -225 71.5 -353t198.5 -128t199 128t72 353t-72 353t-199 128t-198.5 -128t-71.5 -353z" />
<glyph unicode="1" horiz-adv-x="839" d="M47 0v84h199v1268h-199v82h549v-1350h197v-84h-746z" />
<glyph unicode="2" horiz-adv-x="1171" d="M68 977q0 222 150.5 353.5t399.5 131.5q134 0 240 -43.5t172 -137t66 -224.5q0 -106 -55.5 -204t-184.5 -235l-326 -346l580 9v-281h-1036v178l518 574q85 93 118 152t33 122q0 73 -50 116.5t-126 43.5q-84 0 -138.5 -55t-61.5 -154h-299z" />
<glyph unicode="3" horiz-adv-x="1202" d="M49 434h299q17 -98 81 -149.5t153 -51.5q100 0 159.5 62t59.5 168q0 93 -61 154t-189 61h-117v96h101q111 0 174 58t63 147q0 93 -56 153t-143 60q-90 0 -148.5 -52.5t-68.5 -148.5h-299q11 218 157 344.5t394 126.5q124 0 221.5 -33.5t156.5 -90t89.5 -128t30.5 -151.5 q0 -185 -166 -311q89 -51 138.5 -139t49.5 -191q0 -193 -148.5 -319t-391.5 -126q-237 0 -383 124.5t-156 336.5z" />
<glyph unicode="4" horiz-adv-x="1271" d="M70 358v179l721 897h282v-973h162v-103h-162v-358h-325v358h-678zM317 461h431v512z" />
<glyph unicode="5" horiz-adv-x="1198" d="M70 406h299q13 -83 71.5 -128t143.5 -45q104 0 162.5 62t58.5 164t-63 164.5t-171 62.5q-158 0 -233 -88h-242v836h957v-267h-674v-282q124 55 268 55q222 0 354 -130t132 -347q0 -218 -145.5 -354t-383.5 -136q-237 0 -380 117t-154 316z" />
<glyph unicode="6" horiz-adv-x="1269" d="M82 717q0 348 166 544.5t444 196.5q212 0 337 -107t134 -294h-299q-14 66 -60.5 103.5t-123.5 37.5q-250 0 -262 -436q132 147 348 147q201 0 316.5 -124t115.5 -320q0 -214 -144.5 -352t-377.5 -138q-126 0 -233 46t-188 136t-127 233.5t-46 326.5zM430 539 q46 -303 252 -303q86 0 141.5 55t55.5 147q0 100 -58 160.5t-153 60.5q-68 0 -132 -30.5t-106 -89.5z" />
<glyph unicode="7" horiz-adv-x="1056" d="M29 1167v267h1005v-234q-101 -115 -175.5 -236.5t-132 -268.5t-84 -322t-19.5 -373h-371q0 338 122.5 641.5t323.5 517.5l9 8h-678z" />
<glyph unicode="8" horiz-adv-x="1247" d="M90 422q0 106 54 191t149 141q-148 109 -148 295q0 121 64 217.5t174 150t244 53.5q204 0 342.5 -118t138.5 -303q0 -186 -147 -295q95 -55 148.5 -140t53.5 -190q0 -204 -148 -322t-388 -120q-237 -2 -387 117t-150 323zM393 422q0 -89 65.5 -146t168.5 -57t168 57 t65 146t-65 146t-168 57t-168.5 -57t-65.5 -146zM444 1049q0 -79 52.5 -131t130.5 -52t130 52t52 131t-52 130.5t-130 51.5t-130.5 -51.5t-52.5 -130.5z" />
<glyph unicode="9" horiz-adv-x="1261" d="M72 969q0 214 143 351.5t373 137.5q126 0 233 -46t188 -135.5t127 -233t46 -326.5q0 -348 -166.5 -545t-444.5 -197q-211 0 -336.5 107.5t-134.5 294.5h299q14 -65 61 -103t124 -38q247 0 262 434q-131 -146 -342 -146q-201 0 -316.5 124.5t-115.5 320.5zM391 995 q0 -100 58 -160.5t153 -60.5q66 0 127.5 31t104.5 90q-46 303 -252 303q-83 0 -137 -55.5t-54 -147.5z" />
<glyph unicode=":" horiz-adv-x="499" d="M84 160q0 73 52 124.5t126 51.5q75 0 127.5 -51.5t52.5 -124.5q0 -72 -52.5 -123t-127.5 -51q-74 0 -126 51t-52 123zM84 872q0 73 52 125t126 52q75 0 127.5 -51.5t52.5 -125.5q0 -72 -52.5 -123t-127.5 -51q-74 0 -126 51t-52 123z" />
<glyph unicode=";" horiz-adv-x="499" d="M84 -152q141 15 164 144q-75 7 -119.5 52.5t-44.5 113.5q0 74 51 126t127 52q82 0 133 -56t51 -157q0 -110 -39.5 -202t-123 -153.5t-199.5 -68.5v149zM84 872q0 73 52 125t126 52q75 0 127.5 -51.5t52.5 -125.5q0 -72 -52.5 -123t-127.5 -51q-74 0 -126 51t-52 123z" />
<glyph unicode="&#x3c;" horiz-adv-x="1028" d="M158 567v123l637 457v-256l-363 -256l363 -254v-266z" />
<glyph unicode="=" horiz-adv-x="1044" d="M102 354v189h840v-189h-840zM102 719v188h840v-188h-840z" />
<glyph unicode="&#x3e;" horiz-adv-x="1028" d="M240 115v256l362 256l-362 254v266l637 -453v-123z" />
<glyph unicode="?" horiz-adv-x="1001" d="M0 1032q3 200 138.5 320.5t363.5 120.5q214 0 345.5 -115t131.5 -307q0 -89 -32 -167t-83.5 -130t-113 -85t-123.5 -42l-11 -168h-256l-10 350h92q106 0 169 61t63 156q0 86 -55 142.5t-152 56.5q-87 0 -143 -51t-66 -142h-258zM301 160q0 73 52 124.5t126 51.5 q75 0 127.5 -51.5t52.5 -124.5q0 -72 -52.5 -123t-127.5 -51q-74 0 -126 51t-52 123z" />
<glyph unicode="@" horiz-adv-x="1562" d="M82 715q0 328 200 532.5t521 204.5q194 0 345 -79t236.5 -227t85.5 -341q0 -194 -99 -299t-267 -105q-135 0 -197 74q-111 -96 -243 -96q-86 0 -140.5 45.5t-54.5 126.5q0 82 69.5 138.5t221.5 96.5l102 27v21q0 49 -25 76.5t-69 27.5q-43 0 -68.5 -27t-25.5 -69h-189 q0 123 82.5 191.5t214.5 68.5q141 0 218 -73.5t77 -192.5v-234q0 -51 24 -78.5t68 -27.5q89 0 147 79t58 230q0 159 -67.5 287t-196.5 204t-297 76q-194 0 -339 -88t-218.5 -236t-73.5 -333q0 -186 75.5 -332t220 -230.5t335.5 -84.5q269 0 426 151l53 -59 q-86 -81 -213.5 -126.5t-275.5 -45.5q-322 0 -521.5 201.5t-199.5 525.5zM668 594q0 -38 20.5 -58t56.5 -20q53 0 121 49q-4 32 -4 53v125l-47 -12q-74 -18 -110.5 -54.5t-36.5 -82.5z" />
<glyph unicode="A" d="M29 0l493 1434h373l494 -1434h-365l-100 328h-451l-100 -328h-344zM506 432h385l-193 623z" />
<glyph unicode="B" horiz-adv-x="1363" d="M164 0v1434h596q227 0 367.5 -116t140.5 -290q0 -181 -172 -285q100 -50 153.5 -131.5t53.5 -187.5q0 -190 -149.5 -307t-389.5 -117h-600zM508 252h258q96 0 147.5 48.5t51.5 125.5q0 78 -52 129t-147 51h-258v-354zM508 856h244q84 0 131 44t47 114t-49.5 119 t-128.5 49h-244v-326z" />
<glyph unicode="C" horiz-adv-x="1490" d="M86 705q0 346 195.5 549.5t517.5 203.5q94 0 176 -15t161.5 -52t140 -94.5t106 -147t65.5 -205.5h-350q-33 118 -111 176t-188 58q-169 0 -267 -133t-98 -340q0 -203 100.5 -327t256.5 -124q231 0 311 223h344q-30 -114 -79 -201.5t-109 -143.5t-137 -92t-156.5 -50.5 t-173.5 -14.5q-149 0 -277 48t-223.5 138t-150 230t-54.5 314z" />
<glyph unicode="D" horiz-adv-x="1525" d="M164 0v1434h584q311 0 501.5 -196t190.5 -521t-190.5 -521t-501.5 -196h-584zM518 270h230q158 0 250 126t92 321t-92 320.5t-250 125.5h-230v-893z" />
<glyph unicode="E" horiz-adv-x="1261" d="M164 0v1434h1007v-271h-653v-387h545v-106h-545v-400h668v-270h-1022z" />
<glyph unicode="F" horiz-adv-x="1212" d="M164 0v1434h1007v-271h-653v-397h535v-107h-535v-659h-354z" />
<glyph unicode="G" horiz-adv-x="1540" d="M86 717q0 167 51.5 305.5t145 234.5t226 148.5t290.5 52.5q93 0 173.5 -15t158.5 -52t138 -94.5t104.5 -147t64.5 -205.5h-351q-33 118 -107 176t-179 58q-169 0 -268 -129.5t-99 -331.5t100.5 -331.5t274.5 -129.5q53 0 103 16t95 48.5t78.5 87.5t47.5 127h-347v102h648 v-637h-113l-8 250q-79 -137 -212.5 -206t-291.5 -69q-325 0 -524 202.5t-199 539.5z" />
<glyph unicode="H" horiz-adv-x="1542" d="M164 0v1434h354v-658h506v658h354v-1434h-354v670h-506v-670h-354z" />
<glyph unicode="I" horiz-adv-x="843" d="M47 0v84h199v1266h-199v84h750v-84h-197v-1266h197v-84h-750z" />
<glyph unicode="J" horiz-adv-x="1294" d="M20 477h345q6 -63 26.5 -108.5t52.5 -69.5t67 -34.5t77 -10.5q99 0 159 73.5t60 182.5v924h354v-902q0 -254 -157.5 -405.5t-415.5 -151.5q-102 0 -194 27.5t-172.5 84.5t-134.5 157t-67 233z" />
<glyph unicode="K" horiz-adv-x="1449" d="M164 0v1434h354v-658h94l443 658h375l-480 -682l484 -752h-396l-417 674h-103v-674h-354z" />
<glyph unicode="L" horiz-adv-x="1232" d="M164 0v1434h354v-1164h664v-270h-1018z" />
<glyph unicode="M" horiz-adv-x="1849" d="M164 0v1434h366l326 -674l74 -158l71 158l326 674h359v-1434h-324l6 688l2 203l-84 -182l-231 -463h-264l-232 465l-86 180l4 -213l6 -678h-319z" />
<glyph unicode="N" horiz-adv-x="1583" d="M164 0v1434h405l453 -760l82 -144l-2 166l-8 738h325v-1434h-366l-494 829l-80 140l2 -174l8 -795h-325z" />
<glyph unicode="O" horiz-adv-x="1597" d="M86 717q0 167 51.5 305.5t145 234.5t226 148.5t290.5 52.5q211 0 372 -90.5t250.5 -259t89.5 -391.5t-89.5 -391.5t-250.5 -259.5t-372 -91q-321 0 -517 202.5t-196 539.5zM434 717q0 -199 98.5 -330t266.5 -131q110 0 193.5 62t126 166t42.5 233t-42.5 233t-126 166 t-193.5 62q-168 0 -266.5 -131t-98.5 -330z" />
<glyph unicode="P" horiz-adv-x="1419" d="M164 0v1434h614q263 0 421.5 -139.5t158.5 -372.5q0 -232 -163 -372t-427 -140h-250v-410h-354zM518 680h250q111 0 175.5 68t64.5 174t-64.5 173.5t-175.5 67.5h-250v-483z" />
<glyph unicode="Q" horiz-adv-x="1597" d="M86 717q0 337 199 539t524 202q155 0 285.5 -52.5t222.5 -148.5t143 -234.5t51 -305.5q0 -222 -87 -389.5t-244 -257.5l155 -250h-123l-127 205q-127 -50 -276 -50q-325 0 -524 202.5t-199 539.5zM434 717q0 -199 101 -330t274 -131q59 0 117 20l-125 201h123l90 -145 q70 61 108.5 162t38.5 223q0 198 -95.5 329.5t-256.5 131.5q-173 0 -274 -131t-101 -330z" />
<glyph unicode="R" horiz-adv-x="1390" d="M164 0v1434h610q253 0 406 -126t153 -331q0 -134 -79.5 -231t-219.5 -142l330 -604h-385l-301 567h-160v-567h-354zM518 670h246q102 0 160.5 66.5t58.5 170.5q0 112 -59.5 184t-159.5 72h-246v-493z" />
<glyph unicode="S" horiz-adv-x="1284" d="M49 426h344q22 -95 85 -140.5t177 -45.5q106 0 169 40t63 130q0 22 -5.5 40.5t-19.5 33.5t-27.5 26.5t-38.5 22.5t-43.5 18.5t-53 16t-55 13.5t-61 13.5t-61.5 13.5q-53 12 -92.5 23t-88.5 30t-84 40.5t-71 53.5t-58 70.5t-36 91.5t-14 115q0 57 15 113t53.5 113.5 t97 101t154 71t216.5 27.5q108 0 200 -25t167 -75.5t124 -135t64 -196.5h-344q-54 168 -229 168q-87 0 -142 -34.5t-55 -100.5q0 -35 17 -62t41.5 -44t68.5 -31t80.5 -22.5t95.5 -19.5q34 -6 52 -10q56 -11 96 -21.5t92 -29t88.5 -40t74.5 -55.5t61 -75t38 -98.5t15 -126.5 q0 -202 -151.5 -325.5t-410.5 -123.5q-117 0 -218.5 26t-184 79t-136.5 141.5t-69 204.5z" />
<glyph unicode="T" horiz-adv-x="1230" d="M20 1161v273h1190v-273h-417v-1161h-355v1161h-418z" />
<glyph unicode="U" horiz-adv-x="1460" d="M133 532v902h354v-951q0 -99 68 -163t186 -64q106 0 169 64.5t63 162.5v951h354v-902q0 -253 -161.5 -405t-424.5 -152q-275 0 -441.5 151.5t-166.5 405.5z" />
<glyph unicode="V" horiz-adv-x="1415" d="M29 1434h364l326 -1047l325 1047h345l-498 -1434h-365z" />
<glyph unicode="W" horiz-adv-x="1998" d="M20 1434h351l188 -846l35 -178l37 178l203 844h342l202 -844l37 -178l35 178l188 846h340l-391 -1434h-368l-187 788l-33 160l-32 -160l-187 -788h-368z" />
<glyph unicode="X" horiz-adv-x="1312" d="M20 0l447 717l-447 717h375l271 -459l262 459h354l-442 -711l452 -723h-374l-275 471l-268 -471h-355z" />
<glyph unicode="Y" horiz-adv-x="1325" d="M25 1434h372l277 -607l276 607h350l-460 -912v-522h-355v532z" />
<glyph unicode="Z" horiz-adv-x="1177" d="M41 0v213l680 954l-156 -4h-491v271h1042v-211l-682 -957l201 4h467v-270h-1061z" />
<glyph unicode="[" horiz-adv-x="704" d="M115 -315v1783h524v-239h-217v-1305h219v-239h-526z" />
<glyph unicode="\" horiz-adv-x="1079" d="M45 1434h139l838 -1434h-141z" />
<glyph unicode="]" horiz-adv-x="704" d="M66 -76h219v1305h-217v239h524v-1783h-526v239z" />
<glyph unicode="^" horiz-adv-x="958" d="M47 748v6l277 680h311l276 -680v-6h-278l-160 444l-160 -444h-266z" />
<glyph unicode="_" horiz-adv-x="901" d="M-10 -92h921v-88h-921v88z" />
<glyph unicode="`" horiz-adv-x="1126" d="M213 1421v13h367l147 -246v-10h-264z" />
<glyph unicode="a" horiz-adv-x="1083" d="M53 233q0 120 103 202t325 134l160 37v58q0 78 -40 121.5t-112 43.5q-69 0 -108 -41t-39 -104h-268q4 178 124.5 277.5t313.5 99.5q208 0 322 -109t114 -284v-410q0 -41 30 -61q19 -13 44 -13q14 0 31 4v-176q-74 -21 -140 -21q-45 1 -89 11q-104 24 -150 109 q-159 -129 -340 -129q-122 0 -201.5 67t-79.5 184zM336 305q0 -55 33 -86t92 -31q82 0 180 76v250l-84 -20q-221 -55 -221 -189z" />
<glyph unicode="b" horiz-adv-x="1187" d="M131 0v1434h307v-437q109 64 240 64q197 0 320.5 -146t123.5 -389q0 -248 -134 -397t-355 -149q-212 0 -340 131l-78 -111h-84zM438 276q68 -71 170 -71q91 0 151 78.5t60 232.5q0 149 -58 228t-157 79q-97 0 -166 -59v-488z" />
<glyph unicode="c" horiz-adv-x="1087" d="M66 520q0 245 144 393t372 148q179 0 304.5 -96.5t160.5 -292.5h-275q-51 155 -194 155q-97 0 -155 -80.5t-58 -226.5q0 -140 57 -223.5t164 -83.5q66 0 117.5 35.5t70.5 95.5h268q-37 -176 -160 -270t-290 -94q-232 0 -379 148t-147 392z" />
<glyph unicode="d" horiz-adv-x="1187" d="M66 518q0 246 133.5 394.5t351.5 148.5q110 0 199 -39v412h307v-1434h-277l-4 84q-120 -102 -274 -102q-192 0 -314 146.5t-122 389.5zM362 520q0 -146 62.5 -227.5t165.5 -81.5q94 0 160 63v492q-71 68 -168 68q-96 0 -158 -78.5t-62 -235.5z" />
<glyph unicode="e" horiz-adv-x="1091" d="M66 510q0 250 140.5 400.5t364.5 150.5q202 0 335.5 -138t133.5 -370v-59h-684q6 -136 63.5 -215.5t162.5 -79.5q64 0 114.5 34.5t67.5 92.5h268q-34 -167 -157 -256.5t-297 -89.5q-228 0 -370 145t-142 385zM358 588h398q-6 120 -58 185t-137 65q-75 0 -132.5 -63 t-70.5 -187z" />
<glyph unicode="f" horiz-adv-x="729" d="M18 946v88h164v86q0 84 23.5 157t70 132t126 93t182.5 34q98 0 172 -29v-241q-47 16 -101 16q-74 0 -120 -42t-46 -126v-80h248v-88h-248v-946h-307v946h-164z" />
<glyph unicode="g" horiz-adv-x="1177" d="M66 528q0 242 133.5 387.5t351.5 145.5q206 0 332 -129l80 110h84v-993q0 -243 -139 -382.5t-371 -139.5q-213 0 -335.5 95t-131.5 265h278q12 -62 59.5 -95.5t124.5 -33.5q207 0 207 236v80q-106 -72 -233 -72q-193 0 -316.5 144t-123.5 382zM362 530 q0 -142 62.5 -221.5t165.5 -79.5q87 0 149 56v463q-63 86 -157 86q-96 0 -158 -76.5t-62 -227.5z" />
<glyph unicode="h" horiz-adv-x="1210" d="M131 0v1434h307v-484q131 111 291 111q158 0 258 -105t100 -278v-678h-307v627q0 86 -42.5 138t-127.5 52q-42 0 -88 -19.5t-84 -54.5v-743h-307z" />
<glyph unicode="i" horiz-adv-x="569" d="M104 1339q0 72 52.5 123t126.5 51q75 0 127.5 -51t52.5 -123q0 -73 -52.5 -124.5t-127.5 -51.5q-74 0 -126.5 51.5t-52.5 124.5zM131 0v1034h307v-1034h-307z" />
<glyph unicode="j" horiz-adv-x="569" d="M-123 -193q50 -16 92 -16q72 0 117 40t45 118v1085h307v-1061q0 -186 -106 -306t-297 -120q-90 0 -158 29v231zM104 1339q0 72 52.5 123t126.5 51q75 0 127.5 -51t52.5 -123q0 -73 -52.5 -124.5t-127.5 -51.5q-74 0 -126.5 51.5t-52.5 124.5z" />
<glyph unicode="k" horiz-adv-x="1140" d="M131 0v1434h307v-871h72l299 471h332l-330 -479l334 -555h-346l-277 473h-84v-473h-307z" />
<glyph unicode="l" horiz-adv-x="569" d="M131 0v1434h307v-1434h-307z" />
<glyph unicode="m" horiz-adv-x="1798" d="M131 0v1034h277l6 -90q130 117 295 117q90 0 163 -38t119 -108q140 146 336 146q154 0 251 -105t97 -278v-678h-307v627q0 86 -42.5 138t-127.5 52q-73 0 -147 -61q6 -38 6 -78v-678h-307v627q0 86 -42.5 138t-127.5 52q-73 0 -142 -57v-760h-307z" />
<glyph unicode="n" horiz-adv-x="1210" d="M131 0v1034h277l6 -94q134 121 315 121q158 0 258 -105t100 -278v-678h-307v627q0 86 -42.5 138t-127.5 52q-93 0 -172 -61v-756h-307z" />
<glyph unicode="o" horiz-adv-x="1183" d="M66 520q0 245 146.5 393t379.5 148t379.5 -148t146.5 -393q0 -244 -147 -392t-379 -148t-379 148t-147 392zM358 520q0 -139 63 -225t171 -86t170.5 86t62.5 225t-62.5 225t-170.5 86t-171 -86t-63 -225z" />
<glyph unicode="p" horiz-adv-x="1187" d="M131 -444v1478h266l9 -78q121 105 272 105q197 0 320.5 -146t123.5 -389q0 -248 -134 -397t-355 -149q-113 0 -195 43v-467h-307zM438 274q66 -69 170 -69q94 0 155.5 78.5t61.5 232.5q0 152 -59.5 233.5t-161.5 81.5q-97 0 -166 -63v-494z" />
<glyph unicode="q" horiz-adv-x="1187" d="M66 518q0 246 133.5 394.5t351.5 148.5q204 0 336 -135l76 116h94v-1486h-307v503q-110 -77 -248 -77q-192 0 -314 146.5t-122 389.5zM362 520q0 -146 62.5 -227.5t165.5 -81.5q97 0 160 63v453q-66 107 -168 107q-96 0 -158 -78.5t-62 -235.5z" />
<glyph unicode="r" horiz-adv-x="776" d="M131 0v1034h277l10 -164q145 188 336 191v-270q-103 -3 -179.5 -36.5t-136.5 -107.5v-647h-307z" />
<glyph unicode="s" horiz-adv-x="966" d="M43 305h264q26 -117 185 -117q72 0 108.5 24.5t36.5 59.5q0 23 -14.5 41t-43.5 31.5t-60 24t-76 23.5q-17 5 -25 7q-41 12 -71 22t-69 26.5t-67 34t-57 43.5t-47 55t-29.5 69t-11.5 86q0 145 106.5 234.5t296.5 89.5q163 0 282.5 -84.5t151.5 -249.5h-266q-16 53 -62 83 t-120 30q-60 0 -93.5 -21.5t-33.5 -54.5q0 -15 6.5 -27.5t22 -23.5t29.5 -19t42.5 -17.5t46.5 -14.5t55 -15.5t56 -15.5q55 -16 95.5 -31.5t86.5 -42.5t75 -59t48.5 -80t19.5 -107q0 -146 -110 -235.5t-320 -89.5q-118 0 -208.5 33t-151.5 106t-78 182z" />
<glyph unicode="t" horiz-adv-x="780" d="M18 946v88h164v291l307 111v-402h248v-88h-248v-563q0 -81 44 -124.5t120 -43.5q41 0 105 23v-209q-88 -49 -221 -49q-96 0 -176 41t-129.5 123t-49.5 190v612h-164z" />
<glyph unicode="u" horiz-adv-x="1189" d="M123 365v669h307v-639q0 -81 42.5 -130.5t127.5 -49.5q84 0 152 51v768h307v-1034h-277l-6 92q-124 -112 -295 -112q-159 0 -258.5 105t-99.5 280z" />
<glyph unicode="v" horiz-adv-x="1095" d="M10 1034h328l215 -710l215 710h317l-362 -1034h-350z" />
<glyph unicode="w" horiz-adv-x="1593" d="M10 1034h305l123 -545l35 -170l37 170l135 541h313l136 -541l36 -172l35 172l123 545h295l-289 -1034h-331l-123 489l-43 191l-43 -191l-123 -489h-332z" />
<glyph unicode="x" horiz-adv-x="1073" d="M10 0l363 526l-336 508h336l178 -282l180 282h316l-342 -495l358 -539h-336l-201 315l-200 -315h-316z" />
<glyph unicode="y" horiz-adv-x="1095" d="M-25 -164q90 -37 177 -37q77 0 137 29t110 102l-389 1104h328l215 -706l213 706h319l-337 -975q-94 -270 -240 -389t-340 -119q-93 0 -193 27v258z" />
<glyph unicode="z" horiz-adv-x="962" d="M43 0v184l502 621h-477v229h815v-192l-498 -615h516v-227h-858z" />
<glyph unicode="{" horiz-adv-x="733" d="M-4 553v94h74q91 0 136.5 54.5t45.5 170.5q0 46 -7 139t-7 148q0 156 118.5 248t302.5 84v-266q-141 -3 -141 -166q0 -37 7 -109t7 -112q0 -152 -176 -238q176 -90 176 -240q0 -39 -7 -111t-7 -110q0 -82 36.5 -125t104.5 -45v-260q-184 -8 -302.5 84t-118.5 248 q0 55 7 148t7 139q0 116 -45.5 170.5t-136.5 54.5h-74z" />
<glyph unicode="|" horiz-adv-x="649" d="M172 -133v1702h307v-1702h-307z" />
<glyph unicode="}" horiz-adv-x="733" d="M74 -31q68 2 104.5 45t36.5 125q0 38 -7 110t-7 111q0 150 176 240q-176 86 -176 238q0 40 7 112t7 109q0 163 -141 166v266q184 8 303 -84t119 -248q0 -55 -7.5 -148t-7.5 -139q0 -116 46 -170.5t137 -54.5h73v-94h-73q-91 0 -137 -54.5t-46 -170.5q0 -46 7.5 -139 t7.5 -148q0 -156 -119 -248t-303 -84v260z" />
<glyph unicode="~" horiz-adv-x="1071" d="M47 535q10 161 90.5 250t206.5 89q81 0 197 -57q4 -2 24 -11t26 -12t22.5 -10t25 -9.5t22 -6t24.5 -5t22 -1.5q69 0 79 84h240q-10 -160 -90.5 -249t-204.5 -89q-87 0 -199 55q-4 2 -21.5 10.5t-22 11t-20 9.5t-22 9t-19 7t-21 6.5t-19 3t-20.5 1.5q-76 0 -88 -86h-232z " />
<glyph unicode="&#xa1;" horiz-adv-x="497" d="M74 881q0 72 52.5 123t127.5 51q74 0 126 -51t52 -123q0 -73 -52 -124.5t-126 -51.5q-75 0 -127.5 51.5t-52.5 124.5zM84 -395l51 977h230l51 -977h-332z" />
<glyph unicode="&#xa2;" horiz-adv-x="1087" d="M66 520q0 220 125 358.5t331 159.5v164h99v-164q165 -9 278.5 -105t147.5 -282h-275q-43 135 -151 156v-576q56 9 97 44.5t56 89.5h268q-36 -168 -150 -262.5t-271 -102.5v-152h-99v156q-205 22 -330.5 161t-125.5 355zM358 520q0 -110 42 -185.5t122 -96.5v567 q-77 -21 -120.5 -94t-43.5 -191z" />
<glyph unicode="&#xa3;" horiz-adv-x="1202" d="M63 0v270h84q18 0 30.5 4.5t20.5 17t13 25t7 38t2.5 46t0.5 58.5v168h-158v92h158v264q0 108 26 191.5t69.5 137t105.5 88t130 48.5t148 14q209 0 340 -108.5t162 -333.5h-307q-29 90 -68.5 127t-115.5 37q-78 0 -113 -44t-35 -134v-287h297v-92h-297v-172 q0 -40 -1.5 -61.5t-12.5 -56.5t-33 -69h680v-268h-1133z" />
<glyph unicode="&#xa5;" horiz-adv-x="1325" d="M25 1434h372l277 -607l276 607h350l-413 -818h268v-88h-311l-4 -6v-123h315v-88h-315v-311h-355v311h-315v88h315v129h-315v88h272z" />
<glyph unicode="&#xa6;" horiz-adv-x="649" d="M172 -133v784h307v-784h-307zM172 782v787h307v-787h-307z" />
<glyph unicode="&#xa8;" horiz-adv-x="1126" d="M195 1339q0 68 48 115t117 47q70 0 119 -47t49 -115q0 -69 -48.5 -116t-119.5 -47q-69 0 -117 47t-48 116zM625 1339q0 67 48.5 114.5t117.5 47.5q70 0 118.5 -47t48.5 -115q0 -69 -48 -116t-119 -47q-69 0 -117.5 47t-48.5 116z" />
<glyph unicode="&#xa9;" horiz-adv-x="1589" d="M82 713q0 147 52.5 279.5t145 230.5t226.5 155.5t289 57.5q206 0 370 -98.5t253 -263t89 -361.5q0 -196 -89 -360t-253 -262.5t-370 -98.5q-155 0 -289 57.5t-226.5 155.5t-145 230t-52.5 278zM176 713q0 -180 81.5 -325.5t223 -226.5t314.5 -81q130 0 244 47.5 t196.5 131t130 201.5t47.5 253q0 137 -47.5 255.5t-130 201.5t-196.5 130.5t-244 47.5q-173 0 -314.5 -80.5t-223 -226.5t-81.5 -328zM416 707q0 175 106 280t275 105q132 0 223.5 -68.5t118.5 -208.5h-203q-37 113 -143 113q-74 0 -118 -58t-44 -163q0 -100 43.5 -161 t124.5 -61q50 0 88 26.5t51 70.5h197q-27 -125 -117.5 -192.5t-214.5 -67.5q-170 0 -278.5 106t-108.5 279z" />
<glyph unicode="&#xad;" horiz-adv-x="923" d="M94 528v189h737v-189h-737z" />
<glyph unicode="&#xae;" horiz-adv-x="935" d="M53 1069q0 176 112 290t294 114q181 0 292 -114t111 -290q0 -172 -111.5 -286.5t-291.5 -114.5q-181 0 -293.5 114.5t-112.5 286.5zM125 1069q0 -150 94.5 -243t239.5 -93q143 0 237.5 93t94.5 243q0 151 -94.5 244.5t-237.5 93.5q-145 0 -239.5 -93t-94.5 -245zM301 883 v387h168q70 0 113 -36t43 -93q0 -71 -74 -101l92 -157h-125l-82 143h-30v-143h-105zM406 1063h61q27 0 41 16t14 43q0 28 -14.5 46t-40.5 18h-61v-123z" />
<glyph unicode="&#xaf;" horiz-adv-x="1126" d="M268 1206v183h563v-183h-563z" />
<glyph unicode="&#xb0;" horiz-adv-x="962" d="M104 1090q0 163 104 267.5t275 104.5q168 1 272.5 -104t104.5 -268q2 -162 -103.5 -268.5t-273.5 -106.5q-171 0 -275 106t-104 269zM305 1090q1 -87 52.5 -140t125.5 -53q72 0 123 53.5t51 139.5q0 85 -51 138.5t-123 53.5q-74 0 -126 -53.5t-52 -138.5z" />
<glyph unicode="&#xb2;" horiz-adv-x="722" d="M25 1151q-3 137 92 219t250 82q62 0 113.5 -14t94 -44t66 -83.5t23.5 -126.5q0 -53 -31 -110.5t-59 -89t-100 -104.5q-13 -13 -19 -20l-97 -98l328 6v-195h-643v136l250 270q11 12 35.5 36.5t36 38t26.5 34t21 40t6 41.5q0 44 -24 67.5t-64 23.5q-41 0 -69.5 -29 t-31.5 -80h-204z" />
<glyph unicode="&#xb3;" horiz-adv-x="737" d="M37 840h207q9 -49 40.5 -76t71.5 -27q47 0 75 33.5t28 87.5q0 49 -27.5 83t-77.5 34h-75v61h59q50 0 78 32.5t28 80.5q0 54 -25.5 84.5t-68.5 30.5q-39 0 -66.5 -26.5t-39.5 -76.5h-207q6 135 96.5 213t243.5 78q148 0 227.5 -70.5t79.5 -173.5q0 -123 -109 -194 q51 -24 84 -78.5t33 -122.5q0 -112 -88.5 -184t-224.5 -72q-155 0 -246 75.5t-96 207.5z" />
<glyph unicode="&#xb4;" horiz-adv-x="1126" d="M389 1178v10l154 246h356v-13l-250 -243h-260z" />
<glyph unicode="&#xb7;" horiz-adv-x="499" d="M84 698q0 73 52 124.5t126 51.5q75 0 127.5 -51.5t52.5 -124.5q0 -72 -52.5 -123t-127.5 -51q-74 0 -126 51t-52 123z" />
<glyph unicode="&#xb8;" horiz-adv-x="1126" d="M348 -291h178q0 -30 21.5 -47.5t54.5 -17.5q36 0 58 19t22 52q0 34 -23 56t-63 22q-21 0 -45 -6l-49 31v182h186v-82q80 -3 136.5 -61.5t56.5 -147.5q0 -110 -79.5 -167.5t-197.5 -57.5q-110 0 -183 57.5t-73 167.5z" />
<glyph unicode="&#xb9;" horiz-adv-x="528" d="M25 573v56h116v751h-116v54h360v-805h115v-56h-475z" />
<glyph unicode="&#xbc;" horiz-adv-x="1560" d="M25 573v56h116v751h-116v54h360v-805h115v-56h-475zM334 0l688 1434h139l-686 -1434h-141zM817 207v125l430 528h197v-586h86v-67h-86v-207h-227v207h-400zM987 274h230v269z" />
<glyph unicode="&#xbd;" horiz-adv-x="1654" d="M25 573v56h116v751h-116v54h360v-805h115v-56h-475zM334 0l688 1434h139l-686 -1434h-141zM956 578q-3 137 92 219t250 82q62 0 113.5 -14t94 -44.5t66 -84t23.5 -126.5q0 -52 -30.5 -109t-58.5 -88.5t-99 -103.5q-14 -15 -21 -22l-96 -99l328 7v-195h-643v135l250 271 q11 12 35.5 36.5t36 38t26.5 34t21 40t6 41.5q0 44 -24 67t-64 23q-41 0 -69.5 -28.5t-31.5 -79.5h-205z" />
<glyph unicode="&#xbe;" horiz-adv-x="1773" d="M37 840h207q9 -49 40.5 -76t71.5 -27q47 0 75 33.5t28 87.5q0 49 -27.5 83t-77.5 34h-75v61h59q50 0 78 32.5t28 80.5q0 54 -25.5 84.5t-68.5 30.5q-39 0 -66.5 -26.5t-39.5 -76.5h-207q6 135 96.5 213t243.5 78q148 0 227.5 -70.5t79.5 -173.5q0 -123 -109 -194 q51 -24 84 -78.5t33 -122.5q0 -112 -88.5 -184t-224.5 -72q-155 0 -246 75.5t-96 207.5zM514 0l688 1434h139l-686 -1434h-141zM1030 207v125l430 528h197v-586h86v-67h-86v-207h-227v207h-400zM1200 274h230v269z" />
<glyph unicode="&#xbf;" horiz-adv-x="980" d="M0 -10q0 89 32 167t83.5 130t113 85t123.5 42l10 168h256l11 -351h-92q-106 0 -169 -61t-63 -156q0 -86 55 -142t152 -56q87 0 143 50.5t66 141.5h258q-3 -200 -138.5 -320t-363.5 -120q-214 0 -345.5 115t-131.5 307zM319 881q0 72 53 123t128 51q74 0 126 -51t52 -123 q0 -73 -52 -124.5t-126 -51.5q-75 0 -128 51.5t-53 124.5z" />
<glyph unicode="&#xc0;" d="M29 0l493 1434h373l494 -1434h-365l-100 328h-451l-100 -328h-344zM348 1821v12h367l147 -246v-10h-264zM506 432h385l-193 623z" />
<glyph unicode="&#xc1;" d="M29 0l493 1434h373l494 -1434h-365l-100 328h-451l-100 -328h-344zM506 432h385l-193 623zM555 1577v10l154 246h356v-12l-250 -244h-260z" />
<glyph unicode="&#xc2;" d="M29 0l493 1434h373l494 -1434h-365l-100 328h-451l-100 -328h-344zM340 1579v8l231 246h277l235 -246v-8h-268l-113 96l-108 -96h-254zM506 432h385l-193 623z" />
<glyph unicode="&#xc3;" d="M29 0l493 1434h373l494 -1434h-365l-100 328h-451l-100 -328h-344zM352 1579q-5 70 10.5 122t46.5 80t66.5 41t75.5 13q64 0 149 -36t117 -36q51 0 51 70h197q5 -69 -11.5 -120.5t-47.5 -78.5t-66.5 -40t-75.5 -13q-64 0 -149 34t-115 34q-53 0 -53 -70h-195zM506 432 h385l-193 623z" />
<glyph unicode="&#xc4;" d="M29 0l493 1434h373l494 -1434h-365l-100 328h-451l-100 -328h-344zM330 1739q0 67 48.5 114.5t117.5 47.5q70 0 119 -47t49 -115q0 -69 -48.5 -116.5t-119.5 -47.5q-69 0 -117.5 47.5t-48.5 116.5zM506 432h385l-193 623zM760 1739q0 67 48.5 114.5t117.5 47.5 q70 0 119 -47t49 -115q0 -69 -48.5 -116.5t-119.5 -47.5q-69 0 -117.5 47.5t-48.5 116.5z" />
<glyph unicode="&#xc5;" d="M29 0l493 1434h373l494 -1434h-365l-100 328h-451l-100 -328h-344zM487 1739q0 94 66 154.5t154 60.5t153.5 -60.5t65.5 -154.5t-65.5 -154.5t-153.5 -60.5t-154 60.5t-66 154.5zM506 432h385l-193 623zM614 1739q0 -40 27.5 -67t65.5 -27t65 27t27 67t-27 67t-65 27 t-65.5 -27t-27.5 -67z" />
<glyph unicode="&#xc6;" horiz-adv-x="2037" d="M8 0l834 1434h1106v-271h-654v-387h545v-106h-545v-400h668v-270h-1022v303h-422l-166 -303h-344zM575 408h365v669z" />
<glyph unicode="&#xc7;" horiz-adv-x="1490" d="M86 705q0 346 195.5 549.5t517.5 203.5q94 0 176 -15t161.5 -52t140 -94.5t106 -147t65.5 -205.5h-350q-33 118 -111 176t-188 58q-169 0 -267 -133t-98 -340q0 -203 100.5 -327t256.5 -124q231 0 311 223h344q-34 -131 -92 -226t-135.5 -152t-164.5 -86t-192 -36v-59 q80 -3 136.5 -61.5t56.5 -147.5q0 -110 -79.5 -167.5t-197.5 -57.5q-110 0 -183 57.5t-73 167.5h178q0 -30 21.5 -47.5t54.5 -17.5q36 0 58 19t22 52q0 34 -23 56t-63 22q-21 0 -45 -6l-49 31v166q-128 17 -235 72t-186.5 144t-124 218.5t-44.5 286.5z" />
<glyph unicode="&#xc8;" horiz-adv-x="1261" d="M164 0v1434h1007v-271h-653v-387h545v-106h-545v-400h668v-270h-1022zM307 1821v12h367l147 -246v-10h-264z" />
<glyph unicode="&#xc9;" horiz-adv-x="1261" d="M164 0v1434h1007v-271h-653v-387h545v-106h-545v-400h668v-270h-1022zM514 1577v10l154 246h356v-12l-250 -244h-260z" />
<glyph unicode="&#xca;" horiz-adv-x="1261" d="M164 0v1434h1007v-271h-653v-387h545v-106h-545v-400h668v-270h-1022zM299 1579v8l231 246h277l235 -246v-8h-268l-112 96l-109 -96h-254z" />
<glyph unicode="&#xcb;" horiz-adv-x="1261" d="M164 0v1434h1007v-271h-653v-387h545v-106h-545v-400h668v-270h-1022zM289 1739q0 67 48.5 114.5t117.5 47.5q70 0 119 -47t49 -115q0 -69 -48.5 -116.5t-119.5 -47.5q-69 0 -117.5 47.5t-48.5 116.5zM719 1739q0 67 48.5 114.5t117.5 47.5q70 0 119 -47t49 -115 q0 -69 -48.5 -116.5t-119.5 -47.5q-69 0 -117.5 47.5t-48.5 116.5z" />
<glyph unicode="&#xcc;" horiz-adv-x="843" d="M47 0v84h199v1266h-199v84h750v-84h-197v-1266h197v-84h-750zM61 1821v12h367l147 -246v-10h-264z" />
<glyph unicode="&#xcd;" horiz-adv-x="843" d="M47 0v84h199v1266h-199v84h750v-84h-197v-1266h197v-84h-750zM268 1577v10l154 246h356v-12l-250 -244h-260z" />
<glyph unicode="&#xce;" horiz-adv-x="843" d="M47 0v84h199v1266h-199v84h750v-84h-197v-1266h197v-84h-750zM53 1579v8l232 246h276l236 -246v-8h-269l-112 96l-109 -96h-254z" />
<glyph unicode="&#xcf;" horiz-adv-x="843" d="M43 1739q0 67 48.5 114.5t117.5 47.5q70 0 119 -47t49 -115q0 -69 -48.5 -116.5t-119.5 -47.5q-69 0 -117.5 47.5t-48.5 116.5zM47 0v84h199v1266h-199v84h750v-84h-197v-1266h197v-84h-750zM473 1739q0 67 48.5 114.5t117.5 47.5q70 0 119 -47t49 -115 q0 -69 -48.5 -116.5t-119.5 -47.5q-69 0 -117.5 47.5t-48.5 116.5z" />
<glyph unicode="&#xd1;" horiz-adv-x="1583" d="M164 0v1434h405l453 -760l82 -144l-2 166l-8 738h325v-1434h-366l-494 829l-80 140l2 -174l8 -795h-325zM434 1579q-5 70 10.5 122t46.5 80t66.5 41t75.5 13q64 0 149 -36t117 -36q51 0 51 70h197q5 -69 -11.5 -120.5t-47.5 -78.5t-66.5 -40t-75.5 -13q-64 0 -149 34 t-115 34q-53 0 -53 -70h-195z" />
<glyph unicode="&#xd2;" horiz-adv-x="1597" d="M86 717q0 167 51.5 305.5t145 234.5t226 148.5t290.5 52.5q211 0 372 -90.5t250.5 -259t89.5 -391.5t-89.5 -391.5t-250.5 -259.5t-372 -91q-321 0 -517 202.5t-196 539.5zM434 717q0 -199 98.5 -330t266.5 -131q110 0 193.5 62t126 166t42.5 233t-42.5 233t-126 166 t-193.5 62q-168 0 -266.5 -131t-98.5 -330zM438 1821v12h367l147 -246v-10h-264z" />
<glyph unicode="&#xd3;" horiz-adv-x="1597" d="M86 717q0 167 51.5 305.5t145 234.5t226 148.5t290.5 52.5q211 0 372 -90.5t250.5 -259t89.5 -391.5t-89.5 -391.5t-250.5 -259.5t-372 -91q-321 0 -517 202.5t-196 539.5zM434 717q0 -199 98.5 -330t266.5 -131q110 0 193.5 62t126 166t42.5 233t-42.5 233t-126 166 t-193.5 62q-168 0 -266.5 -131t-98.5 -330zM645 1577v10l154 246h356v-12l-250 -244h-260z" />
<glyph unicode="&#xd4;" horiz-adv-x="1597" d="M86 717q0 167 51.5 305.5t145 234.5t226 148.5t290.5 52.5q211 0 372 -90.5t250.5 -259t89.5 -391.5t-89.5 -391.5t-250.5 -259.5t-372 -91q-321 0 -517 202.5t-196 539.5zM430 1579v8l232 246h276l236 -246v-8h-269l-112 96l-109 -96h-254zM434 717q0 -199 98.5 -330 t266.5 -131q110 0 193.5 62t126 166t42.5 233t-42.5 233t-126 166t-193.5 62q-168 0 -266.5 -131t-98.5 -330z" />
<glyph unicode="&#xd5;" horiz-adv-x="1597" d="M86 717q0 167 51.5 305.5t145 234.5t226 148.5t290.5 52.5q211 0 372 -90.5t250.5 -259t89.5 -391.5t-89.5 -391.5t-250.5 -259.5t-372 -91q-321 0 -517 202.5t-196 539.5zM434 717q0 -199 98.5 -330t266.5 -131q110 0 193.5 62t126 166t42.5 233t-42.5 233t-126 166 t-193.5 62q-168 0 -266.5 -131t-98.5 -330zM442 1579q-5 70 10.5 122t46.5 80t66.5 41t75.5 13q64 0 149 -36t117 -36q51 0 51 70h197q5 -69 -11.5 -120.5t-47.5 -78.5t-66.5 -40t-75.5 -13q-64 0 -149 34t-115 34q-53 0 -53 -70h-195z" />
<glyph unicode="&#xd6;" horiz-adv-x="1597" d="M86 717q0 167 51.5 305.5t145 234.5t226 148.5t290.5 52.5q211 0 372 -90.5t250.5 -259t89.5 -391.5t-89.5 -391.5t-250.5 -259.5t-372 -91q-321 0 -517 202.5t-196 539.5zM420 1739q0 67 48.5 114.5t117.5 47.5q70 0 119 -47t49 -115q0 -69 -48.5 -116.5t-119.5 -47.5 q-69 0 -117.5 47.5t-48.5 116.5zM434 717q0 -199 98.5 -330t266.5 -131q110 0 193.5 62t126 166t42.5 233t-42.5 233t-126 166t-193.5 62q-168 0 -266.5 -131t-98.5 -330zM850 1739q0 67 48.5 114.5t117.5 47.5q70 0 119 -47t49 -115q0 -69 -48.5 -116.5t-119.5 -47.5 q-69 0 -117.5 47.5t-48.5 116.5z" />
<glyph unicode="&#xd7;" horiz-adv-x="1032" d="M123 887l145 145l252 -250l248 248l135 -135l-250 -248l254 -254l-145 -145l-254 254l-246 -248l-135 137l246 246z" />
<glyph unicode="&#xd9;" horiz-adv-x="1480" d="M133 532v902h354v-951q0 -99 68 -163t186 -64q106 0 169 64.5t63 162.5v951h354v-902q0 -253 -161.5 -405t-424.5 -152q-275 0 -441.5 151.5t-166.5 405.5zM379 1821v12h366l148 -246v-10h-264z" />
<glyph unicode="&#xda;" horiz-adv-x="1480" d="M133 532v902h354v-951q0 -99 68 -163t186 -64q106 0 169 64.5t63 162.5v951h354v-902q0 -253 -161.5 -405t-424.5 -152q-275 0 -441.5 151.5t-166.5 405.5zM586 1577v10l153 246h357v-12l-250 -244h-260z" />
<glyph unicode="&#xdb;" horiz-adv-x="1480" d="M133 532v902h354v-951q0 -99 68 -163t186 -64q106 0 169 64.5t63 162.5v951h354v-902q0 -253 -161.5 -405t-424.5 -152q-275 0 -441.5 151.5t-166.5 405.5zM371 1579v8l231 246h277l235 -246v-8h-268l-113 96l-108 -96h-254z" />
<glyph unicode="&#xdc;" horiz-adv-x="1480" d="M133 532v902h354v-951q0 -99 68 -163t186 -64q106 0 169 64.5t63 162.5v951h354v-902q0 -253 -161.5 -405t-424.5 -152q-275 0 -441.5 151.5t-166.5 405.5zM360 1739q0 67 48.5 114.5t117.5 47.5q70 0 119 -47t49 -115q0 -69 -48.5 -116.5t-119.5 -47.5 q-69 0 -117.5 47.5t-48.5 116.5zM791 1739q0 68 48 115t117 47q70 0 119 -47t49 -115q0 -69 -48.5 -116.5t-119.5 -47.5q-69 0 -117 47.5t-48 116.5z" />
<glyph unicode="&#xdd;" horiz-adv-x="1325" d="M25 1434h372l277 -607l276 607h350l-460 -912v-522h-355v532zM510 1577v10l154 246h356v-12l-250 -244h-260z" />
<glyph unicode="&#xdf;" horiz-adv-x="1402" d="M131 0v973q0 109 32 203t97 168.5t173.5 117.5t250.5 43q121 0 214.5 -28.5t149 -78t83.5 -111t28 -132.5q0 -99 -45.5 -158.5t-122.5 -103.5q-12 -7 -36.5 -21t-36 -21t-29 -19.5t-25 -22t-14 -23t-6.5 -28.5q0 -16 5.5 -29.5t18.5 -24t25.5 -18.5t35 -16t38.5 -13.5 t45.5 -14t46.5 -13.5q58 -17 102.5 -39.5t87.5 -59t66.5 -92.5t23.5 -129q0 -146 -100.5 -235.5t-294.5 -89.5q-172 0 -282.5 79.5t-135.5 241.5h265q27 -121 163 -121q57 0 86 24.5t29 61.5q0 25 -13 45t-40.5 35.5t-54.5 25.5t-70 23q-305 89 -305 301q0 39 9.5 74 t21.5 57.5t36.5 47.5t39 36.5t46 34.5t41.5 31q42 31 64 62.5t22 76.5q0 66 -54.5 103t-137.5 37q-106 0 -171 -66.5t-65 -208.5v-985h-307z" />
<glyph unicode="&#xe0;" horiz-adv-x="1083" d="M53 233q0 120 103 202t325 134l160 37v58q0 78 -40 121.5t-112 43.5q-69 0 -108 -41t-39 -104h-268q4 178 124.5 277.5t313.5 99.5q208 0 322 -109t114 -284v-410q0 -41 29.5 -61t75.5 -9v-176q-126 -35 -229.5 -10.5t-149.5 109.5q-159 -129 -340 -129q-122 0 -201.5 67 t-79.5 184zM135 1421v13h367l147 -246v-10h-264zM336 305q0 -55 33 -86t92 -31q82 0 180 76v250l-84 -20q-221 -55 -221 -189z" />
<glyph unicode="&#xe1;" horiz-adv-x="1083" d="M53 233q0 120 103 202t325 134l160 37v58q0 78 -40 121.5t-112 43.5q-69 0 -108 -41t-39 -104h-268q4 178 124.5 277.5t313.5 99.5q208 0 322 -109t114 -284v-410q0 -41 29.5 -61t75.5 -9v-176q-126 -35 -229.5 -10.5t-149.5 109.5q-159 -129 -340 -129q-122 0 -201.5 67 t-79.5 184zM336 305q0 -55 33 -86t92 -31q82 0 180 76v250l-84 -20q-221 -55 -221 -189zM342 1178v10l154 246h356v-13l-250 -243h-260z" />
<glyph unicode="&#xe2;" horiz-adv-x="1083" d="M53 233q0 120 103 202t325 134l160 37v58q0 78 -40 121.5t-112 43.5q-69 0 -108 -41t-39 -104h-268q4 178 124.5 277.5t313.5 99.5q208 0 322 -109t114 -284v-410q0 -41 29.5 -61t75.5 -9v-176q-126 -35 -229.5 -10.5t-149.5 109.5q-159 -129 -340 -129q-122 0 -201.5 67 t-79.5 184zM127 1180v8l231 246h277l235 -246v-8h-268l-113 96l-108 -96h-254zM336 305q0 -55 33 -86t92 -31q82 0 180 76v250l-84 -20q-221 -55 -221 -189z" />
<glyph unicode="&#xe3;" horiz-adv-x="1083" d="M53 233q0 120 103 202t325 134l160 37v58q0 78 -40 121.5t-112 43.5q-69 0 -108 -41t-39 -104h-268q4 178 124.5 277.5t313.5 99.5q208 0 322 -109t114 -284v-410q0 -41 29.5 -61t75.5 -9v-176q-126 -35 -229.5 -10.5t-149.5 109.5q-159 -129 -340 -129q-122 0 -201.5 67 t-79.5 184zM139 1180q-5 70 10.5 122t46.5 80t66.5 41t75.5 13q64 0 149 -36t117 -36q51 0 51 70h197q5 -69 -11.5 -120.5t-47.5 -78.5t-66.5 -40t-75.5 -13q-64 0 -149 33.5t-115 33.5q-53 0 -53 -69h-195zM336 305q0 -55 33 -86t92 -31q82 0 180 76v250l-84 -20 q-221 -55 -221 -189z" />
<glyph unicode="&#xe4;" horiz-adv-x="1083" d="M53 233q0 120 103 202t325 134l160 37v58q0 78 -40 121.5t-112 43.5q-69 0 -108 -41t-39 -104h-268q4 178 124.5 277.5t313.5 99.5q208 0 322 -109t114 -284v-410q0 -41 29.5 -61t75.5 -9v-176q-126 -35 -229.5 -10.5t-149.5 109.5q-159 -129 -340 -129q-122 0 -201.5 67 t-79.5 184zM113 1339q0 67 48.5 114.5t117.5 47.5q70 0 118.5 -47t48.5 -115q0 -69 -48 -116t-119 -47q-69 0 -117.5 47t-48.5 116zM336 305q0 -55 33 -86t92 -31q82 0 180 76v250l-84 -20q-221 -55 -221 -189zM543 1339q0 67 48.5 114.5t117.5 47.5q70 0 119 -47t49 -115 q0 -69 -48.5 -116t-119.5 -47q-69 0 -117.5 47t-48.5 116z" />
<glyph unicode="&#xe5;" horiz-adv-x="1083" d="M53 233q0 120 103 202t325 134l160 37v58q0 78 -40 121.5t-112 43.5q-69 0 -108 -41t-39 -104h-268q4 178 124.5 277.5t313.5 99.5q208 0 322 -109t114 -284v-410q0 -41 29.5 -61t75.5 -9v-176q-126 -35 -229.5 -10.5t-149.5 109.5q-159 -129 -340 -129q-122 0 -201.5 67 t-79.5 184zM274 1339q0 94 66 154.5t154 60.5t153.5 -60.5t65.5 -154.5t-65.5 -154.5t-153.5 -60.5t-154 60.5t-66 154.5zM336 305q0 -55 33 -86t92 -31q82 0 180 76v250l-84 -20q-221 -55 -221 -189zM401 1339q0 -40 27.5 -67t65.5 -27t65 27t27 67q0 41 -27 68t-65 27 t-65.5 -27.5t-27.5 -67.5z" />
<glyph unicode="&#xe6;" horiz-adv-x="1673" d="M51 229q0 323 596 355v80q0 78 -39.5 121.5t-111.5 43.5q-70 0 -111 -41t-41 -104h-268q4 178 125.5 277.5t316.5 99.5q211 0 311 -127q133 127 324 127q202 0 335.5 -138t133.5 -370v-59h-684q6 -136 63 -215.5t162 -79.5q64 0 115 34.5t68 92.5h268 q-34 -167 -157.5 -256.5t-297.5 -89.5q-255 0 -395 165q-85 -82 -190.5 -122.5t-211.5 -40.5q-135 0 -223 66.5t-88 180.5zM334 299q0 -58 33.5 -89.5t91.5 -31.5q106 0 227 103q-36 96 -39 208q-78 -7 -135.5 -22t-91 -32.5t-53.5 -41.5t-26.5 -45.5t-6.5 -48.5zM940 588 h397q-6 120 -58 185t-136 65q-75 0 -132.5 -63t-70.5 -187z" />
<glyph unicode="&#xe7;" horiz-adv-x="1087" d="M66 520q0 245 144 393t372 148q179 0 304.5 -96.5t160.5 -292.5h-275q-51 155 -194 155q-97 0 -155 -80.5t-58 -226.5q0 -140 57 -223.5t164 -83.5q66 0 117.5 35.5t70.5 95.5h268q-33 -156 -136.5 -249t-246.5 -111v-66q80 -3 136.5 -61.5t56.5 -147.5 q0 -110 -79.5 -167.5t-197.5 -57.5q-110 0 -183 57.5t-73 167.5h179q0 -30 21 -47.5t54 -17.5q36 0 58 19t22 52q0 34 -23 56t-63 22q-21 0 -45 -6l-49 31v174q-185 36 -296 177t-111 351z" />
<glyph unicode="&#xe8;" horiz-adv-x="1091" d="M66 510q0 250 140.5 400.5t364.5 150.5q202 0 335.5 -138t133.5 -370v-59h-684q6 -136 63.5 -215.5t162.5 -79.5q64 0 114.5 34.5t67.5 92.5h268q-34 -167 -157 -256.5t-297 -89.5q-228 0 -370 145t-142 385zM203 1421v13h366l148 -246v-10h-264zM358 588h398 q-6 120 -58 185t-137 65q-75 0 -132.5 -63t-70.5 -187z" />
<glyph unicode="&#xe9;" horiz-adv-x="1091" d="M66 510q0 250 140.5 400.5t364.5 150.5q202 0 335.5 -138t133.5 -370v-59h-684q6 -136 63.5 -215.5t162.5 -79.5q64 0 114.5 34.5t67.5 92.5h268q-34 -167 -157 -256.5t-297 -89.5q-228 0 -370 145t-142 385zM358 588h398q-6 120 -58 185t-137 65q-75 0 -132.5 -63 t-70.5 -187zM410 1178v10l153 246h357v-13l-250 -243h-260z" />
<glyph unicode="&#xea;" horiz-adv-x="1091" d="M66 510q0 250 140.5 400.5t364.5 150.5q202 0 335.5 -138t133.5 -370v-59h-684q6 -136 63.5 -215.5t162.5 -79.5q64 0 114.5 34.5t67.5 92.5h268q-34 -167 -157 -256.5t-297 -89.5q-228 0 -370 145t-142 385zM195 1180v8l231 246h276l236 -246v-8h-268l-113 96l-108 -96 h-254zM358 588h398q-6 120 -58 185t-137 65q-75 0 -132.5 -63t-70.5 -187z" />
<glyph unicode="&#xeb;" horiz-adv-x="1091" d="M66 510q0 250 140.5 400.5t364.5 150.5q202 0 335.5 -138t133.5 -370v-59h-684q6 -136 63.5 -215.5t162.5 -79.5q64 0 114.5 34.5t67.5 92.5h268q-34 -167 -157 -256.5t-297 -89.5q-228 0 -370 145t-142 385zM184 1339q0 67 48.5 114.5t117.5 47.5q70 0 119 -47t49 -115 q0 -69 -48.5 -116t-119.5 -47q-69 0 -117.5 47t-48.5 116zM358 588h398q-6 120 -58 185t-137 65q-75 0 -132.5 -63t-70.5 -187zM614 1339q0 67 48.5 114.5t117.5 47.5q70 0 119 -47t49 -115q0 -69 -48.5 -116t-119.5 -47q-69 0 -117.5 47t-48.5 116z" />
<glyph unicode="&#xec;" horiz-adv-x="569" d="M-76 1421v13h367l147 -246v-10h-264zM131 0v1034h307v-1034h-307z" />
<glyph unicode="&#xed;" horiz-adv-x="569" d="M131 0v1034h307v-1034h-307zM131 1178v10l154 246h356v-13l-250 -243h-260z" />
<glyph unicode="&#xee;" horiz-adv-x="569" d="M-84 1180v8l231 246h277l235 -246v-8h-268l-112 96l-109 -96h-254zM131 0v1034h307v-1034h-307z" />
<glyph unicode="&#xef;" horiz-adv-x="569" d="M-94 1339q0 67 48.5 114.5t117.5 47.5q70 0 119 -47t49 -115q0 -69 -48.5 -116t-119.5 -47q-69 0 -117.5 47t-48.5 116zM131 0v1034h307v-1034h-307zM336 1339q0 67 48.5 114.5t117.5 47.5q70 0 119 -47t49 -115q0 -69 -48.5 -116t-119.5 -47q-69 0 -117.5 47t-48.5 116z " />
<glyph unicode="&#xf1;" horiz-adv-x="1210" d="M131 0v1034h277l6 -94q134 121 315 121q158 0 258 -105t100 -278v-678h-307v627q0 86 -42.5 138t-127.5 52q-93 0 -172 -61v-756h-307zM248 1180q-5 70 10.5 122t46 80t66 41t75.5 13q64 0 149.5 -36t117.5 -36q51 0 51 70h197q5 -69 -11.5 -120.5t-47.5 -78.5t-66.5 -40 t-75.5 -13q-64 0 -149 33.5t-115 33.5q-54 0 -54 -69h-194z" />
<glyph unicode="&#xf2;" horiz-adv-x="1183" d="M66 520q0 245 146.5 393t379.5 148t379.5 -148t146.5 -393q0 -244 -147 -392t-379 -148t-379 148t-147 392zM231 1421v13h367l147 -246v-10h-264zM358 520q0 -139 63 -225t171 -86t170.5 86t62.5 225t-62.5 225t-170.5 86t-171 -86t-63 -225z" />
<glyph unicode="&#xf3;" horiz-adv-x="1183" d="M66 520q0 245 146.5 393t379.5 148t379.5 -148t146.5 -393q0 -244 -147 -392t-379 -148t-379 148t-147 392zM358 520q0 -139 63 -225t171 -86t170.5 86t62.5 225t-62.5 225t-170.5 86t-171 -86t-63 -225zM438 1178v10l154 246h356v-13l-250 -243h-260z" />
<glyph unicode="&#xf4;" horiz-adv-x="1183" d="M66 520q0 245 146.5 393t379.5 148t379.5 -148t146.5 -393q0 -244 -147 -392t-379 -148t-379 148t-147 392zM223 1180v8l232 246h276l236 -246v-8h-269l-112 96l-109 -96h-254zM358 520q0 -139 63 -225t171 -86t170.5 86t62.5 225t-62.5 225t-170.5 86t-171 -86t-63 -225 z" />
<glyph unicode="&#xf5;" horiz-adv-x="1183" d="M66 520q0 245 146.5 393t379.5 148t379.5 -148t146.5 -393q0 -244 -147 -392t-379 -148t-379 148t-147 392zM236 1180q-5 70 10.5 122t46 80t66 41t75.5 13q64 0 149 -36t117 -36q52 0 52 70h196q5 -69 -11 -120.5t-47.5 -78.5t-66.5 -40t-75 -13q-64 0 -149.5 33.5 t-115.5 33.5q-53 0 -53 -69h-194zM358 520q0 -139 63 -225t171 -86t170.5 86t62.5 225t-62.5 225t-170.5 86t-171 -86t-63 -225z" />
<glyph unicode="&#xf6;" horiz-adv-x="1183" d="M66 520q0 245 146.5 393t379.5 148t379.5 -148t146.5 -393q0 -244 -147 -392t-379 -148t-379 148t-147 392zM213 1339q0 67 48.5 114.5t117.5 47.5q70 0 119 -47t49 -115q0 -69 -48.5 -116t-119.5 -47q-69 0 -117.5 47t-48.5 116zM358 520q0 -139 63 -225t171 -86 t170.5 86t62.5 225t-62.5 225t-170.5 86t-171 -86t-63 -225zM643 1339q0 67 48.5 114.5t117.5 47.5q70 0 119 -47t49 -115q0 -69 -48.5 -116t-119.5 -47q-69 0 -117.5 47t-48.5 116z" />
<glyph unicode="&#xf9;" horiz-adv-x="1189" d="M123 365v669h307v-639q0 -81 42.5 -130.5t127.5 -49.5q84 0 152 51v768h307v-1034h-277l-6 92q-124 -112 -295 -112q-159 0 -258.5 105t-99.5 280zM233 1421v13h367l148 -246v-10h-265z" />
<glyph unicode="&#xfa;" horiz-adv-x="1189" d="M123 365v669h307v-639q0 -81 42.5 -130.5t127.5 -49.5q84 0 152 51v768h307v-1034h-277l-6 92q-124 -112 -295 -112q-159 0 -258.5 105t-99.5 280zM440 1178v10l154 246h356v-13l-250 -243h-260z" />
<glyph unicode="&#xfb;" horiz-adv-x="1189" d="M123 365v669h307v-639q0 -81 42.5 -130.5t127.5 -49.5q84 0 152 51v768h307v-1034h-277l-6 92q-124 -112 -295 -112q-159 0 -258.5 105t-99.5 280zM225 1180v8l232 246h276l236 -246v-8h-269l-112 96l-109 -96h-254z" />
<glyph unicode="&#xfc;" horiz-adv-x="1189" d="M123 365v669h307v-639q0 -81 42.5 -130.5t127.5 -49.5q84 0 152 51v768h307v-1034h-277l-6 92q-124 -112 -295 -112q-159 0 -258.5 105t-99.5 280zM215 1339q0 67 48.5 114.5t117.5 47.5q70 0 119 -47t49 -115q0 -69 -48.5 -116t-119.5 -47q-69 0 -117.5 47t-48.5 116z M645 1339q0 67 48.5 114.5t117.5 47.5q70 0 119 -47t49 -115q0 -69 -48.5 -116t-119.5 -47q-69 0 -117.5 47t-48.5 116z" />
<glyph unicode="&#xfd;" horiz-adv-x="1095" d="M-25 -164q90 -37 177 -37q77 0 137 29t110 102l-389 1104h328l215 -706l213 706h319l-337 -975q-94 -270 -240 -389t-340 -119q-93 0 -193 27v258zM393 1178v10l154 246h356v-13l-250 -243h-260z" />
<glyph unicode="&#xff;" horiz-adv-x="1095" d="M-25 -164q90 -37 177 -37q77 0 137 29t110 102l-389 1104h328l215 -706l213 706h319l-337 -975q-94 -270 -240 -389t-340 -119q-93 0 -193 27v258zM164 1339q0 67 48.5 114.5t117.5 47.5q70 0 119 -47t49 -115q0 -69 -48.5 -116t-119.5 -47q-69 0 -117.5 47t-48.5 116z M594 1339q0 67 48.5 114.5t117.5 47.5q70 0 119 -47t49 -115q0 -69 -48.5 -116t-119.5 -47q-69 0 -117.5 47t-48.5 116z" />
<glyph unicode="&#x152;" horiz-adv-x="2105" d="M86 717q0 325 190.5 521t501.5 196h1237v-271h-653v-387h545v-106h-545v-400h668v-270h-1252q-311 0 -501.5 196t-190.5 521zM436 717q0 -195 92 -321t250 -126h230v893h-230q-158 0 -250 -125.5t-92 -320.5z" />
<glyph unicode="&#x153;" horiz-adv-x="1851" d="M66 520q0 245 146.5 393t379.5 148q116 0 213.5 -40.5t165.5 -115.5q137 156 362 156q202 0 335.5 -138t133.5 -370v-59h-684q6 -136 63 -215.5t162 -79.5q64 0 115 34.5t68 92.5h268q-34 -167 -157.5 -256.5t-297.5 -89.5q-229 0 -370 153q-144 -153 -377 -153 q-232 0 -379 148t-147 392zM358 520q0 -139 63 -225t171 -86t170.5 86t62.5 225t-62.5 225t-170.5 86t-171 -86t-63 -225zM1120 588h398q-6 120 -58 185t-137 65q-75 0 -132.5 -63t-70.5 -187z" />
<glyph unicode="&#x178;" horiz-adv-x="1325" d="M25 1434h372l277 -607l276 607h350l-460 -912v-522h-355v532zM285 1739q0 67 48.5 114.5t117.5 47.5q70 0 118.5 -47t48.5 -115q0 -69 -48.5 -116.5t-118.5 -47.5q-69 0 -117.5 47.5t-48.5 116.5zM715 1739q0 67 48.5 114.5t117.5 47.5q70 0 119 -47t49 -115 q0 -69 -48.5 -116.5t-119.5 -47.5q-69 0 -117.5 47.5t-48.5 116.5z" />
<glyph unicode="&#x2c6;" horiz-adv-x="1126" d="M199 1180v8l231 246h277l235 -246v-8h-268l-113 96l-108 -96h-254z" />
<glyph unicode="&#x2dc;" horiz-adv-x="1126" d="M219 1180q-5 70 10.5 122t46.5 80t66.5 41t75.5 13q64 0 149 -36t117 -36q51 0 51 70h197q5 -69 -11.5 -120.5t-47.5 -78.5t-66.5 -40t-75.5 -13q-64 0 -149 33.5t-115 33.5q-53 0 -53 -69h-195z" />
<glyph unicode="&#x2000;" horiz-adv-x="977" />
<glyph unicode="&#x2001;" horiz-adv-x="1954" />
<glyph unicode="&#x2002;" horiz-adv-x="977" />
<glyph unicode="&#x2003;" horiz-adv-x="1954" />
<glyph unicode="&#x2004;" horiz-adv-x="651" />
<glyph unicode="&#x2005;" horiz-adv-x="488" />
<glyph unicode="&#x2006;" horiz-adv-x="325" />
<glyph unicode="&#x2007;" horiz-adv-x="325" />
<glyph unicode="&#x2008;" horiz-adv-x="244" />
<glyph unicode="&#x2009;" horiz-adv-x="390" />
<glyph unicode="&#x200a;" horiz-adv-x="108" />
<glyph unicode="&#x2010;" horiz-adv-x="923" d="M94 528v189h737v-189h-737z" />
<glyph unicode="&#x2011;" horiz-adv-x="923" d="M94 528v189h737v-189h-737z" />
<glyph unicode="&#x2012;" horiz-adv-x="923" d="M94 528v189h737v-189h-737z" />
<glyph unicode="&#x2013;" horiz-adv-x="1107" d="M94 555v111h922v-111h-922z" />
<glyph unicode="&#x2014;" horiz-adv-x="1482" d="M94 555v111h1297v-111h-1297z" />
<glyph unicode="&#x2018;" horiz-adv-x="505" d="M78 1112q0 165 91.5 282t256.5 126v-144q-69 -7 -109 -43t-49 -94q72 -7 115 -51t43 -109q0 -71 -49.5 -121.5t-122.5 -50.5q-79 0 -127.5 54t-48.5 151z" />
<glyph unicode="&#x2019;" horiz-adv-x="505" d="M84 924v143q135 15 158 137q-72 7 -115 51t-43 109q0 71 49.5 120.5t122.5 49.5q79 0 127.5 -53t48.5 -150q0 -79 -22.5 -149.5t-64.5 -126.5t-109.5 -91t-151.5 -40z" />
<glyph unicode="&#x201c;" horiz-adv-x="954" d="M100 1112q0 165 92 282t257 126v-144q-69 -7 -109 -43t-49 -94q72 -7 115 -51t43 -109q0 -71 -50 -121.5t-123 -50.5q-79 0 -127.5 54t-48.5 151zM543 1112q0 165 91.5 282t256.5 126v-144q-69 -7 -109 -43t-49 -94q72 -7 115 -51t43 -109q0 -71 -49.5 -121.5 t-122.5 -50.5q-79 0 -127.5 54t-48.5 151z" />
<glyph unicode="&#x201d;" horiz-adv-x="946" d="M80 922v143q135 15 158 137q-72 7 -115 51t-43 109q0 71 49.5 120.5t122.5 49.5q79 0 127.5 -53t48.5 -150q0 -79 -22.5 -149.5t-64.5 -126.5t-109.5 -91t-151.5 -40zM522 922v143q135 15 158 137q-72 7 -115 51t-43 109q0 71 49.5 120.5t122.5 49.5q79 0 127.5 -53 t48.5 -150q0 -79 -22.5 -149.5t-64.5 -126.5t-109.5 -91t-151.5 -40z" />
<glyph unicode="&#x2022;" horiz-adv-x="882" d="M164 670q0 114 77 190t191 76q113 0 190.5 -76.5t77.5 -189.5q0 -114 -77.5 -190.5t-190.5 -76.5q-114 0 -191 76.5t-77 190.5z" />
<glyph unicode="&#x2026;" horiz-adv-x="1619" d="M84 160q0 73 52 124.5t126 51.5q75 0 127.5 -51.5t52.5 -124.5q0 -72 -52.5 -123t-127.5 -51q-74 0 -126 51t-52 123zM631 160q0 73 52 124.5t126 51.5q75 0 127.5 -51.5t52.5 -124.5q0 -72 -52.5 -123t-127.5 -51q-74 0 -126 51t-52 123zM1178 160q0 73 52 124.5 t126 51.5q75 0 127.5 -51.5t52.5 -124.5q0 -72 -52.5 -123t-127.5 -51q-74 0 -126 51t-52 123z" />
<glyph unicode="&#x202f;" horiz-adv-x="390" />
<glyph unicode="&#x205f;" horiz-adv-x="488" />
<glyph unicode="&#x20ac;" horiz-adv-x="1490" d="M6 528v88h135q-4 58 -4 89v40h-131v89h139q34 290 210 457t444 167q91 0 170 -15t156 -52t135.5 -94.5t102.5 -147t64 -205.5h-350q-33 118 -105 176t-173 58q-121 0 -200 -93.5t-103 -250.5h467l-31 -89h-447v-40q0 -31 4 -89h396l-31 -88h-348q32 -128 108.5 -201 t176.5 -73q209 0 290 223h344q-30 -114 -77.5 -201.5t-106 -143.5t-132.5 -92t-151 -50.5t-167 -14.5q-160 0 -292 62t-224 188t-123 303h-146z" />
<glyph unicode="&#x2122;" horiz-adv-x="1390" d="M25 1274v160h540v-160h-176v-443h-182v443h-182zM659 831v603h205l135 -336l144 336h192v-603h-168l2 312l-96 -230h-153l-97 230l2 -312h-166z" />
<glyph unicode="&#x25fc;" horiz-adv-x="1034" d="M0 0v1034h1034v-1034h-1034z" />
<glyph unicode="&#xfb01;" horiz-adv-x="1298" d="M18 946v88h164v86q0 84 23.5 157t70 132t126 93t182.5 34q98 0 172 -29v-241q-47 16 -101 16q-74 0 -120 -42t-46 -126v-80h248v-88h-248v-946h-307v946h-164zM834 1339q0 72 52 123t126 51q75 0 127.5 -51t52.5 -123q0 -73 -52.5 -124.5t-127.5 -51.5q-74 0 -126 51.5 t-52 124.5zM860 0v1034h307v-1034h-307z" />
<glyph unicode="&#xfb02;" horiz-adv-x="1298" d="M18 946v88h164v86q0 84 23.5 157t70 132t126 93t182.5 34q98 0 172 -29v-241q-47 16 -101 16q-74 0 -120 -42t-46 -126v-80h248v-88h-248v-946h-307v946h-164zM860 0v1434h307v-1434h-307z" />
</font>
</defs>
</svg>
