<svg viewBox="0 0 973 690" xmlns="http://www.w3.org/2000/svg" xmlns:xlink="http://www.w3.org/1999/xlink"><defs><use id="0" xlink:href="#4c"/><use id="1" xlink:href="#4c"/><use id="2" xlink:href="#4c"/><use id="3" xlink:href="#4c"/><use id="4" xlink:href="#4c"/><use id="5" xlink:href="#4c"/><use id="6" xlink:href="#4c"/><use id="7" xlink:href="#4c"/><use id="8" xlink:href="#4c"/><use id="9" xlink:href="#4c"/><use id="A" xlink:href="#4c"/><use id="B" xlink:href="#4c"/><use id="C" xlink:href="#4c"/><use id="D" xlink:href="#4c"/><use id="E" xlink:href="#4c"/><use id="F" xlink:href="#4c"/><use id="G" xlink:href="#4c"/><use id="H" xlink:href="#4c"/><use id="I" xlink:href="#4c"/><use id="J" xlink:href="#4c"/><use id="K" xlink:href="#4c"/><use id="L" xlink:href="#4c"/><use id="M" xlink:href="#4c"/><use id="N" xlink:href="#4c"/><use id="O" xlink:href="#4c"/><use id="P" xlink:href="#4c"/><use id="Q" xlink:href="#4c"/><use id="R" xlink:href="#4c"/><use id="S" xlink:href="#4c"/><use id="T" xlink:href="#4c"/><use id="U" xlink:href="#4c"/><use id="V" xlink:href="#4c"/><use id="W" xlink:href="#4c"/><use id="X" xlink:href="#4c"/><use id="Y" xlink:href="#4c"/><use id="Z" xlink:href="#4c"/><use id="a" xlink:href="#4c"/><use id="b" xlink:href="#4c"/><use id="c" xlink:href="#4c"/><use id="d" xlink:href="#4c"/><use id="e" xlink:href="#4c"/><use id="f" xlink:href="#4c"/><use id="g" xlink:href="#4c"/><use id="h" xlink:href="#4c"/><use id="i" xlink:href="#4c"/><use id="j" xlink:href="#4c"/><use id="k" xlink:href="#4c"/><use id="l" xlink:href="#4c"/><use id="m" xlink:href="#4c"/><use id="n" xlink:href="#4c"/><use id="o" xlink:href="#4c"/><use id="p" xlink:href="#4c"/><use id="q" xlink:href="#4c"/><use id="r" xlink:href="#4c"/><use id="s" xlink:href="#4c"/><use id="t" xlink:href="#4c"/><use id="u" xlink:href="#4c"/><use id="v" xlink:href="#4c"/><use id="w" xlink:href="#4c"/><use id="x" xlink:href="#4c"/><use id="y" xlink:href="#4c"/><use id="z" xlink:href="#4c"/><use id="10" xlink:href="#4c"/><use id="11" xlink:href="#4c"/><use id="12" xlink:href="#4c"/><use id="13" xlink:href="#4c"/><use id="14" xlink:href="#4c"/><use id="15" xlink:href="#4c"/><use id="16" xlink:href="#4c"/><use id="17" xlink:href="#4c"/><use id="18" xlink:href="#4c"/><use id="19" xlink:href="#4c"/><use id="1A" xlink:href="#4c"/><use id="1B" xlink:href="#4c"/><use id="1C" xlink:href="#4c"/><use id="1D" xlink:href="#4c"/><use id="1E" xlink:href="#4c"/><use id="1F" xlink:href="#4c"/><use id="1G" xlink:href="#4c"/><use id="1H" xlink:href="#4c"/><use id="1I" xlink:href="#4c"/><use id="1J" xlink:href="#4c"/><use id="1K" xlink:href="#4c"/><use id="1L" xlink:href="#4c"/><use id="1M" xlink:href="#4c"/><use id="1N" xlink:href="#4c"/><use id="1O" xlink:href="#4c"/><use id="1P" xlink:href="#4c"/><use id="1Q" xlink:href="#4c"/><use id="1R" xlink:href="#4c"/><use id="1S" xlink:href="#4c"/><use id="1T" xlink:href="#4c"/><use id="1U" xlink:href="#4c"/><use id="1V" xlink:href="#4c"/><use id="1W" xlink:href="#4c"/><use id="1X" xlink:href="#4c"/><use id="1Y" xlink:href="#4c"/><use id="1Z" xlink:href="#4c"/><use id="1a" xlink:href="#4c"/><use id="1b" xlink:href="#4c"/><use id="1c" xlink:href="#4c"/><use id="1d" xlink:href="#4c"/><use id="1e" xlink:href="#4c"/><use id="1f" xlink:href="#4c"/><use id="1g" xlink:href="#4c"/><use id="1h" xlink:href="#4c"/><use id="1i" xlink:href="#4c"/><use id="1j" xlink:href="#4c"/><use id="1k" xlink:href="#4c"/><use id="1l" xlink:href="#4c"/><use id="1m" xlink:href="#4c"/><use id="1n" xlink:href="#4c"/><use id="1o" xlink:href="#4c"/><use id="1p" xlink:href="#4c"/><use id="1q" xlink:href="#4c"/><use id="1r" xlink:href="#4c"/><use id="1s" xlink:href="#4c"/><use id="1t" xlink:href="#4c"/><use id="1u" xlink:href="#4c"/><use id="1v" xlink:href="#4c"/><use id="1w" xlink:href="#4c"/><use id="1x" xlink:href="#4c"/><use id="1y" xlink:href="#4c"/><use id="1z" xlink:href="#4c"/><use id="20" xlink:href="#4c"/><use id="21" xlink:href="#4c"/><use id="22" xlink:href="#4c"/><use id="23" xlink:href="#4c"/><use id="24" xlink:href="#4c"/><use id="25" xlink:href="#4c"/><use id="26" xlink:href="#4c"/><use id="27" xlink:href="#4c"/><use id="28" xlink:href="#4c"/><use id="29" xlink:href="#4c"/><use id="2A" xlink:href="#4c"/><use id="2B" xlink:href="#4c"/><use id="2C" xlink:href="#4c"/><use id="2D" xlink:href="#4c"/><use id="2E" xlink:href="#4c"/><use id="2F" xlink:href="#4c"/><use id="2G" xlink:href="#4c"/><use id="2H" xlink:href="#4c"/><use id="2I" xlink:href="#4c"/><path id="4c" d="m0 0h972.2v689.65h-972.2z"/><path id="4d" d="m609.67 525.03h12.333v24.748h-12.333z"/><path id="4e" d="m659.56 525.03h12.332v24.748h-12.332z"/><path id="4f" d="m634.9 525.03h12.333v24.748h-12.333z"/><mask id="3r" fill="#fff"><use xlink:href="#2C"/></mask><mask id="3q" fill="#fff"><use xlink:href="#2B"/></mask><mask id="4b" fill="#fff"><use xlink:href="#25"/></mask><mask id="3p" fill="#fff"><use xlink:href="#2A"/></mask><mask id="3o" fill="#fff"><use xlink:href="#29"/></mask><mask id="3l" fill="#fff"><use xlink:href="#26"/></mask><mask id="3n" fill="#fff"><use xlink:href="#28"/></mask><mask id="3m" fill="#fff"><use xlink:href="#27"/></mask><mask id="3s" fill="#fff"><use xlink:href="#2D"/></mask><mask id="40" fill="#fff"><use xlink:href="#1U"/></mask><mask id="3z" fill="#fff"><use xlink:href="#1T"/></mask><mask id="3t" fill="#fff"><use xlink:href="#2E"/></mask><mask id="3y" fill="#fff"><use xlink:href="#1S"/></mask><mask id="3x" fill="#fff"><use xlink:href="#2I"/></mask><mask id="3u" fill="#fff"><use xlink:href="#2F"/></mask><mask id="3w" fill="#fff"><use xlink:href="#2H"/></mask><mask id="3v" fill="#fff"><use xlink:href="#2G"/></mask><mask id="3k" fill="#fff"><use xlink:href="#1R"/></mask><mask id="3Z" fill="#fff"><use xlink:href="#1G"/></mask><mask id="3Y" fill="#fff"><use xlink:href="#1F"/></mask><mask id="3j" fill="#fff"><use xlink:href="#1Q"/></mask><mask id="3X" fill="#fff"><use xlink:href="#1E"/></mask><mask id="3W" fill="#fff"><use xlink:href="#1D"/></mask><mask id="3T" fill="#fff"><use xlink:href="#1A"/></mask><mask id="3V" fill="#fff"><use xlink:href="#1C"/></mask><mask id="3U" fill="#fff"><use xlink:href="#1B"/></mask><mask id="3a" fill="#fff"><use xlink:href="#1H"/></mask><mask id="3i" fill="#fff"><use xlink:href="#1P"/></mask><mask id="3h" fill="#fff"><use xlink:href="#1O"/></mask><mask id="3b" fill="#fff"><use xlink:href="#1I"/></mask><mask id="3g" fill="#fff"><use xlink:href="#1N"/></mask><mask id="3f" fill="#fff"><use xlink:href="#1M"/></mask><mask id="3c" fill="#fff"><use xlink:href="#1J"/></mask><mask id="3e" fill="#fff"><use xlink:href="#1L"/></mask><mask id="3d" fill="#fff"><use xlink:href="#1K"/></mask><mask id="41" fill="#fff"><use xlink:href="#1V"/></mask><mask id="4R" fill="#fff"><use xlink:href="#1v"/></mask><mask id="4Q" fill="#fff"><use xlink:href="#1u"/></mask><mask id="42" fill="#fff"><use xlink:href="#1W"/></mask><mask id="4P" fill="#fff"><use xlink:href="#1t"/></mask><mask id="4O" fill="#fff"><use xlink:href="#1s"/></mask><mask id="4L" fill="#fff"><use xlink:href="#1p"/></mask><mask id="4N" fill="#fff"><use xlink:href="#1r"/></mask><mask id="4M" fill="#fff"><use xlink:href="#1q"/></mask><mask id="4S" fill="#fff"><use xlink:href="#1w"/></mask><mask id="4a" fill="#fff"><use xlink:href="#24"/></mask><mask id="4Z" fill="#fff"><use xlink:href="#23"/></mask><mask id="4T" fill="#fff"><use xlink:href="#1x"/></mask><mask id="4Y" fill="#fff"><use xlink:href="#22"/></mask><mask id="4X" fill="#fff"><use xlink:href="#21"/></mask><mask id="4U" fill="#fff"><use xlink:href="#1y"/></mask><mask id="4W" fill="#fff"><use xlink:href="#20"/></mask><mask id="4V" fill="#fff"><use xlink:href="#1z"/></mask><mask id="4K" fill="#fff"><use xlink:href="#1o"/></mask><mask id="49" fill="#fff"><use xlink:href="#1d"/></mask><mask id="48" fill="#fff"><use xlink:href="#1c"/></mask><mask id="4J" fill="#fff"><use xlink:href="#1n"/></mask><mask id="47" fill="#fff"><use xlink:href="#1b"/></mask><mask id="46" fill="#fff"><use xlink:href="#1a"/></mask><mask id="43" fill="#fff"><use xlink:href="#1X"/></mask><mask id="45" fill="#fff"><use xlink:href="#1Z"/></mask><mask id="44" fill="#fff"><use xlink:href="#1Y"/></mask><mask id="4A" fill="#fff"><use xlink:href="#1e"/></mask><mask id="4I" fill="#fff"><use xlink:href="#1m"/></mask><mask id="4H" fill="#fff"><use xlink:href="#1l"/></mask><mask id="4B" fill="#fff"><use xlink:href="#1f"/></mask><mask id="4G" fill="#fff"><use xlink:href="#1k"/></mask><mask id="4F" fill="#fff"><use xlink:href="#1j"/></mask><mask id="4C" fill="#fff"><use xlink:href="#1g"/></mask><mask id="4E" fill="#fff"><use xlink:href="#1i"/></mask><mask id="4D" fill="#fff"><use xlink:href="#1h"/></mask><mask id="3S" fill="#fff"><use xlink:href="#19"/></mask><mask id="2h" fill="#fff"><use xlink:href="#O"/></mask><mask id="2g" fill="#fff"><use xlink:href="#N"/></mask><mask id="3R" fill="#fff"><use xlink:href="#18"/></mask><mask id="2f" fill="#fff"><use xlink:href="#M"/></mask><mask id="2e" fill="#fff"><use xlink:href="#L"/></mask><mask id="2b" fill="#fff"><use xlink:href="#I"/></mask><mask id="2d" fill="#fff"><use xlink:href="#K"/></mask><mask id="2c" fill="#fff"><use xlink:href="#J"/></mask><mask id="2i" fill="#fff"><use xlink:href="#P"/></mask><mask id="2q" fill="#fff"><use xlink:href="#X"/></mask><mask id="2p" fill="#fff"><use xlink:href="#W"/></mask><mask id="2j" fill="#fff"><use xlink:href="#Q"/></mask><mask id="2o" fill="#fff"><use xlink:href="#V"/></mask><mask id="2n" fill="#fff"><use xlink:href="#U"/></mask><mask id="2k" fill="#fff"><use xlink:href="#R"/></mask><mask id="2m" fill="#fff"><use xlink:href="#T"/></mask><mask id="2l" fill="#fff"><use xlink:href="#S"/></mask><mask id="2a" fill="#fff"><use xlink:href="#H"/></mask><mask id="2P" fill="#fff"><use xlink:href="#6"/></mask><mask id="2O" fill="#fff"><use xlink:href="#5"/></mask><mask id="2Z" fill="#fff"><use xlink:href="#G"/></mask><mask id="2N" fill="#fff"><use xlink:href="#4"/></mask><mask id="2M" fill="#fff"><use xlink:href="#3"/></mask><mask id="2J" fill="#fff"><use xlink:href="#0"/></mask><mask id="2L" fill="#fff"><use xlink:href="#2"/></mask><mask id="2K" fill="#fff"><use xlink:href="#1"/></mask><mask id="2Q" fill="#fff"><use xlink:href="#7"/></mask><mask id="2Y" fill="#fff"><use xlink:href="#F"/></mask><mask id="2X" fill="#fff"><use xlink:href="#E"/></mask><mask id="2R" fill="#fff"><use xlink:href="#8"/></mask><mask id="2W" fill="#fff"><use xlink:href="#D"/></mask><mask id="2V" fill="#fff"><use xlink:href="#C"/></mask><mask id="2S" fill="#fff"><use xlink:href="#9"/></mask><mask id="2U" fill="#fff"><use xlink:href="#B"/></mask><mask id="2T" fill="#fff"><use xlink:href="#A"/></mask><mask id="2r" fill="#fff"><use xlink:href="#Y"/></mask><mask id="3H" fill="#fff"><use xlink:href="#y"/></mask><mask id="3G" fill="#fff"><use xlink:href="#x"/></mask><mask id="2s" fill="#fff"><use xlink:href="#Z"/></mask><mask id="3F" fill="#fff"><use xlink:href="#w"/></mask><mask id="3E" fill="#fff"><use xlink:href="#v"/></mask><mask id="3B" fill="#fff"><use xlink:href="#s"/></mask><mask id="3D" fill="#fff"><use xlink:href="#u"/></mask><mask id="3C" fill="#fff"><use xlink:href="#t"/></mask><mask id="3I" fill="#fff"><use xlink:href="#z"/></mask><mask id="3Q" fill="#fff"><use xlink:href="#17"/></mask><mask id="3P" fill="#fff"><use xlink:href="#16"/></mask><mask id="3J" fill="#fff"><use xlink:href="#10"/></mask><mask id="3O" fill="#fff"><use xlink:href="#15"/></mask><mask id="3N" fill="#fff"><use xlink:href="#14"/></mask><mask id="3K" fill="#fff"><use xlink:href="#11"/></mask><mask id="3M" fill="#fff"><use xlink:href="#13"/></mask><mask id="3L" fill="#fff"><use xlink:href="#12"/></mask><mask id="3A" fill="#fff"><use xlink:href="#r"/></mask><mask id="2z" fill="#fff"><use xlink:href="#g"/></mask><mask id="2y" fill="#fff"><use xlink:href="#f"/></mask><mask id="39" fill="#fff"><use xlink:href="#q"/></mask><mask id="2x" fill="#fff"><use xlink:href="#e"/></mask><mask id="2w" fill="#fff"><use xlink:href="#d"/></mask><mask id="2t" fill="#fff"><use xlink:href="#a"/></mask><mask id="2v" fill="#fff"><use xlink:href="#c"/></mask><mask id="2u" fill="#fff"><use xlink:href="#b"/></mask><mask id="30" fill="#fff"><use xlink:href="#h"/></mask><mask id="38" fill="#fff"><use xlink:href="#p"/></mask><mask id="37" fill="#fff"><use xlink:href="#o"/></mask><mask id="31" fill="#fff"><use xlink:href="#i"/></mask><mask id="36" fill="#fff"><use xlink:href="#n"/></mask><mask id="35" fill="#fff"><use xlink:href="#m"/></mask><mask id="32" fill="#fff"><use xlink:href="#j"/></mask><mask id="34" fill="#fff"><use xlink:href="#l"/></mask><mask id="33" fill="#fff"><use xlink:href="#k"/></mask></defs><g fill="none" fill-rule="evenodd"><g mask="url(#2J)"><g mask="url(#2K)"><path fill="#e12426" mask="url(#2L)" d="m81.61 658.16h3.363v18.08h-3.363z"/><path stroke="#e12426" stroke-width="2" mask="url(#2M)" d="m81.61 658.16h3.363v18.08h-3.363z"/><path fill="#e12426" mask="url(#2N)" d="m81.61 631.04h3.363v18.08h-3.363z"/><path stroke="#e12426" stroke-width="2" mask="url(#2O)" d="m81.61 631.04h3.363v18.08h-3.363z"/><path fill="#e12426" mask="url(#2P)" d="m81.61 603.91h3.363v18.08h-3.363z"/><path stroke="#e12426" stroke-width="2" mask="url(#2Q)" d="m81.61 603.91h3.363v18.08h-3.363z"/><path fill="#e12426" mask="url(#2R)" d="m81.61 576.79h3.363v18.08h-3.363z"/><path stroke="#e12426" stroke-width="2" mask="url(#2S)" d="m81.61 576.79h3.363v18.08h-3.363z"/><path fill="#e12426" mask="url(#2T)" d="m81.61 549.66h3.363v18.08h-3.363z"/><path stroke="#e12426" stroke-width="2" mask="url(#2U)" d="m81.61 549.66h3.363v18.08h-3.363z"/><path fill="#e12426" mask="url(#2V)" d="m81.61 522.54h3.363v18.08h-3.363z"/><path stroke="#e12426" stroke-width="2" mask="url(#2W)" d="m81.61 522.54h3.363v18.08h-3.363z"/><path fill="#e12426" mask="url(#2X)" d="m81.61 495.42h3.363v18.08h-3.363z"/><path stroke="#e12426" stroke-width="2" mask="url(#2Y)" d="m81.61 495.42h3.363v18.08h-3.363z"/><path fill="#e12426" mask="url(#2Z)" d="m81.61 468.29h3.363v18.08h-3.363z"/><path stroke="#e12426" stroke-width="2" mask="url(#2a)" d="m81.61 468.29h3.363v18.08h-3.363z"/><path fill="#e12426" mask="url(#2b)" d="m81.61 441.17h3.363v18.08h-3.363z"/><path stroke="#e12426" stroke-width="2" mask="url(#2c)" d="m81.61 441.17h3.363v18.08h-3.363z"/><path fill="#e12426" mask="url(#2d)" d="m81.61 414.04h3.363v18.08h-3.363z"/><path stroke="#e12426" stroke-width="2" mask="url(#2e)" d="m81.61 414.04h3.363v18.08h-3.363z"/><path fill="#e12426" mask="url(#2f)" d="m81.61 386.92h3.363v18.08h-3.363z"/><path stroke="#e12426" stroke-width="2" mask="url(#2g)" d="m81.61 386.92h3.363v18.08h-3.363z"/><path fill="#e12426" mask="url(#2h)" d="m81.61 359.79h3.363v18.08h-3.363z"/><path stroke="#e12426" stroke-width="2" mask="url(#2i)" d="m81.61 359.79h3.363v18.08h-3.363z"/><path fill="#e12426" mask="url(#2j)" d="m81.61 332.67h3.363v18.08h-3.363z"/><path stroke="#e12426" stroke-width="2" mask="url(#2k)" d="m81.61 332.67h3.363v18.08h-3.363z"/><path fill="#e12426" mask="url(#2l)" d="m81.61 305.54h3.363v18.08h-3.363z"/><path stroke="#e12426" stroke-width="2" mask="url(#2m)" d="m81.61 305.54h3.363v18.08h-3.363z"/><path fill="#e12426" mask="url(#2n)" d="m81.61 278.42h3.363v18.08h-3.363z"/><path stroke="#e12426" stroke-width="2" mask="url(#2o)" d="m81.61 278.42h3.363v18.08h-3.363z"/><g transform="translate(82 86)"><path d="m1.5 1.497v183.01" stroke="#e12325" stroke-width="5" stroke-dasharray="20.2 7"/><path d="m1.5.5v184.01" stroke="#a0bcc0" stroke-width="7"/></g><g transform="translate(671 85)"><path d="m1 2.276v101.45" stroke="#e12325" stroke-width="5" stroke-dasharray="20.2 7"/><path d="m1 .499v103.23" stroke="#a0bcc0" stroke-width="7"/></g><g transform="matrix(0-1 1 0 93 81.48)"><path d="m3.482 2.55v570.43" stroke="#e12325" stroke-width="5" stroke-dasharray="20.2 7"/><path d="m3.482 1.55v570.43" stroke="#a0bcc0" stroke-width="7"/></g><path d="m1.632 1.726v267.33" transform="matrix(0-1 1 0 90 687.76)" stroke-width="5" stroke="#e12325" stroke-dasharray="20.2 7"/><g transform="matrix(0-1 1 0 360 687.76)"><path d="m1.632 2.726v267.33" stroke="#e12325" stroke-width="5" stroke-dasharray="20.2 7"/><path d="m1.632.73v269.32" stroke="#a0bcc0" stroke-width="7"/></g><path fill="#e12426" mask="url(#2p)" d="m250.94 76.13h17.47v3.364h-17.47z"/><path stroke="#e12426" stroke-width="2" mask="url(#2q)" d="m250.94 76.13h17.47v3.364h-17.47z"/><path fill="#e12426" mask="url(#2r)" d="m670.22 197.04h3.363v18.08h-3.363z"/><path stroke="#e12426" stroke-width="2" mask="url(#2s)" d="m670.22 197.04h3.363v18.08h-3.363z"/><path fill="#e12426" mask="url(#2t)" d="m670.22 224.16h3.363v18.08h-3.363z"/><path stroke="#e12426" stroke-width="2" mask="url(#2u)" d="m670.22 224.16h3.363v18.08h-3.363z"/><path fill="#e12426" mask="url(#2v)" d="m670.22 251.29h3.363v18.08h-3.363z"/><path stroke="#e12426" stroke-width="2" mask="url(#2w)" d="m670.22 251.29h3.363v18.08h-3.363z"/><path fill="#e12426" mask="url(#2x)" d="m670.22 278.42h3.363v18.08h-3.363z"/><path stroke="#e12426" stroke-width="2" mask="url(#2y)" d="m670.22 278.42h3.363v18.08h-3.363z"/><path fill="#e12426" mask="url(#2z)" d="m670.22 305.54h3.363v18.08h-3.363z"/><path stroke="#e12426" stroke-width="2" mask="url(#30)" d="m670.22 305.54h3.363v18.08h-3.363z"/><path fill="#e12426" mask="url(#31)" d="m670.22 332.67h3.363v18.08h-3.363z"/><path stroke="#e12426" stroke-width="2" mask="url(#32)" d="m670.22 332.67h3.363v18.08h-3.363z"/><path fill="#e12426" mask="url(#33)" d="m670.22 359.79h3.363v18.08h-3.363z"/><path stroke="#e12426" stroke-width="2" mask="url(#34)" d="m670.22 359.79h3.363v18.08h-3.363z"/><path fill="#e12426" mask="url(#35)" d="m670.22 386.92h3.363v18.08h-3.363z"/><path stroke="#e12426" stroke-width="2" mask="url(#36)" d="m670.22 386.92h3.363v18.08h-3.363z"/><path fill="#e12426" mask="url(#37)" d="m670.22 414.04h3.363v18.08h-3.363z"/><path stroke="#e12426" stroke-width="2" mask="url(#38)" d="m670.22 414.04h3.363v18.08h-3.363z"/><path fill="#e12426" mask="url(#39)" d="m670.22 441.17h3.363v18.08h-3.363z"/><path stroke="#e12426" stroke-width="2" mask="url(#3A)" d="m670.22 441.17h3.363v18.08h-3.363z"/><path fill="#e12426" mask="url(#3B)" d="m670.22 468.29h3.363v18.08h-3.363z"/><path stroke="#e12426" stroke-width="2" mask="url(#3C)" d="m670.22 468.29h3.363v18.08h-3.363z"/><path fill="#e12426" mask="url(#3D)" d="m670.22 495.42h3.363v18.08h-3.363z"/><path stroke="#e12426" stroke-width="2" mask="url(#3E)" d="m670.22 495.42h3.363v18.08h-3.363z"/><path fill="#e12426" mask="url(#3F)" d="m670.22 522.54h3.363v18.08h-3.363z"/><path stroke="#e12426" stroke-width="2" mask="url(#3G)" d="m670.22 522.54h3.363v18.08h-3.363z"/><path fill="#e12426" mask="url(#3H)" d="m670.22 549.66h3.363v18.08h-3.363z"/><path stroke="#e12426" stroke-width="2" mask="url(#3I)" d="m670.22 549.66h3.363v18.08h-3.363z"/><path fill="#e12426" mask="url(#3J)" d="m670.22 576.79h3.363v18.08h-3.363z"/><path stroke="#e12426" stroke-width="2" mask="url(#3K)" d="m670.22 576.79h3.363v18.08h-3.363z"/><path fill="#e12426" mask="url(#3L)" d="m670.22 603.91h3.363v18.08h-3.363z"/><path stroke="#e12426" stroke-width="2" mask="url(#3M)" d="m670.22 603.91h3.363v18.08h-3.363z"/><path fill="#e12426" mask="url(#3N)" d="m670.22 631.04h3.363v18.08h-3.363z"/><path stroke="#e12426" stroke-width="2" mask="url(#3O)" d="m670.22 631.04h3.363v18.08h-3.363z"/><path fill="#e12426" mask="url(#3P)" d="m670.22 658.16h3.363v18.08h-3.363z"/><path stroke="#e12426" stroke-width="2" mask="url(#3Q)" d="m670.22 658.16h3.363v18.08h-3.363z"/><path fill="#e12426" mask="url(#3R)" d="m644.01 685.29h17.47v3.363h-17.47z"/><path stroke="#e12426" stroke-width="2" mask="url(#3S)" d="m644.01 685.29h17.47v3.363h-17.47z"/><path fill="#e12426" mask="url(#3T)" d="m617.8 685.29h17.472v3.363h-17.472z"/><path stroke="#e12426" stroke-width="2" mask="url(#3U)" d="m617.8 685.29h17.472v3.363h-17.472z"/><path fill="#e12426" mask="url(#3V)" d="m591.6 685.29h17.471v3.363h-17.471z"/><path stroke="#e12426" stroke-width="2" mask="url(#3W)" d="m591.6 685.29h17.471v3.363h-17.471z"/><path d="m414.35 557.05c-24.315 0-44.03 19.712-44.03 44.03 0 24.316 19.713 44.03 44.03 44.03 24.315 0 44.03-19.712 44.03-44.03 0-24.316-19.713-44.03-44.03-44.03m0 71c-14.9 0-26.975-12.08-26.975-26.977 0-14.899 12.07-26.977 26.975-26.977 14.899 0 26.975 12.08 26.975 26.977 0 14.899-12.08 26.977-26.975 26.977" fill="#fff" mask="url(#3X)"/><path d="m401 601.08c0-7.373 5.978-13.352 13.351-13.352 7.373 0 13.351 5.979 13.351 13.352 0 7.373-5.978 13.351-13.351 13.351-7.373 0-13.351-5.978-13.351-13.351" fill="#e12426" mask="url(#3Y)"/><path d="m414.35 446.81c-24.315 0-44.03 19.711-44.03 44.03 0 24.316 19.713 44.03 44.03 44.03 24.315 0 44.03-19.711 44.03-44.03 0-24.316-19.713-44.03-44.03-44.03m0 71c-14.9 0-26.975-12.08-26.975-26.977 0-14.899 12.07-26.977 26.975-26.977 14.899 0 26.975 12.08 26.975 26.977 0 14.899-12.08 26.977-26.975 26.977" stroke="#666" mask="url(#3Z)"/><path d="m254.55 59.64c.548-2.288 1.071-4.463 1.579-6.588.654-.543 1.248-1.036 1.796-1.492.053-.501.156-.897.125-1.282-.359-4.463-2.142-8.369-4.593-12.06-1.894-2.85-3.758-5.745-5.338-8.774-3.754-7.198-3.065-14.235 1.221-21.01.28-.444.58-.903.964-1.25 5.888-5.293 12.669-7.914 20.661-6.782.908.128 1.781.478 2.674.71 7.208 1.878 10.827 6.775 11.287 13.975.315 4.964 1.674 9.486 4.273 13.682.55.889 1.198 1.748 1.14 2.864-1.502 1.325-1.502 1.325-5.137 1.878-.926 3.967-.185 8.326-1.638 11.998-2.658 2.9-6.483.951-9.363 3.193-.185.424-.575 1.117-.783 1.862-.208.749-.236 1.549-.291 1.963.185 1.445 1.611 1.379 1.932 2.377.094 1.044.346 2.102.258 3.132-.304 3.598.846 6.742 2.749 9.698 2.301 3.576 3.87 7.5 5.277 11.482 1.46 4.131 1.681 8.521 2.458 12.795 1.083 5.963 2.127 11.933 3.193 17.9.139.775.226 1.578 1.174 2.433 7.819.416 16.01-.114 24.325 1.149 2.044.97 3.575 2.826 4.689 4.922 2.829 5.328 3.706 11.04 1.96 16.843-1.732 5.743-3.488 7.959-11.235 8.469-3.548.233-7.126-.038-10.689-.038-1.169-.0001-2.371-.246-3.462.232-.851.829-.534 1.78-.36 2.642.765 3.745 1.438 7.518 2.444 11.199.816 2.99.754 5.696-1.019 8.306-.589.867-1.014 1.846-1.271 2.325 0 3.23-.087 5.996.016 8.755.369 9.933-1.14 19.73-2.075 29.569-.474 4.985-.918 9.973-1.343 14.962-.989 11.565-2.428 23.07-4.414 34.505-.608 3.506-.799 7.084-1.402 10.59-1.073 6.231-2.384 12.399-4.538 18.389-3.494 9.708-5.347 19.837-7.03 29.977-1.472 8.844-2.968 17.68-4.803 26.455-1.076 5.156-2.321 10.279-3.45 15.426-.675 3.077-1.539 6.138-1.129 9.36-.657.891-1.275 1.729-2.01 2.724.217 1.434.449 2.981.643 4.255.874 1.373 2.099 1.688 3.223 1.88 4.02.687 8 1.645 12.11 1.851 3.035.152 6.05.582 8.816 1.972 1.826.913 2.909 2.256 2.393 4.494-.891 1.196-2.275 1.163-3.561 1.165-13.464.021-26.928.006-40.39-.019-.5 0-1-.183-1.536-.289-.896-2.308-.092-4.54-.188-6.876-1.609-1.41-.959-3.852-2.396-5.415.579-1.742 1.42-3.232.955-5.073-.236-.938.197-2.067.407-3.095 1.622-7.907 2.43-15.892 2.45-23.964.021-8.58.028-17.16.189-25.739.13-7.02 1.54-13.887 3.265-20.66.768-3.02.955-6.03.606-9.02-.321-2.734-.376-5.256 1.524-7.377-.824-2.519-1.185-4.8-.09-7.139.365-.779.246-1.819.228-2.737-.076-4.089-.035-8.19-.334-12.264-.535-7.255-.454-14.486-.047-21.747.43-7.648-.488-15.281-.808-22.921-.12-2.898-.322-5.793-.47-8.691-.235-4.609-.512-9.217-.675-13.829-.246-7.03.633-13.949 2.285-21.22-4.591-7.471-9.03-15.382-12.857-23.307-1.538-1.134-3.042-.844-4.461-.863-8.844-.114-17.687-.182-26.53-.261-1.319-.012-2.637-.002-3.97-.002-4.592-2.517-7.274-6.396-7.303-11.468-.038-6.396 2.208-11.885 8.454-14.906.353-1.771-1.677-2.285-1.929-4.088 9.805-.934 19.622.53 29.26-.213 1.107-1.228.959-2.611 1.104-3.897 1.173-10.289 3.684-20.243 7.985-29.663 2.81-6.156 7.04-11.44 11.349-16.619.504-.605 1.031-1.19 1.489-1.716" fill="#000" mask="url(#3a)"/><g fill="#fff"><path d="m234.93 131.73c-.874-1.749-1.563-14.637-1.669-20.19l-.633-.009c-9.634.743-19.452-.72-29.26.213.251 1.803 2.281 2.317 1.929 4.088-6.246 3.02-8.493 8.511-8.455 14.906.03 5.072 2.711 8.951 7.303 11.468 1.334 0 2.652-.001 3.97.002 8.843.079 17.686.147 26.531.261 1.194.016 2.45-.178 3.735.437.123-.069.191-.108.191-.108l.467.009c-.944-2.876-3.315-9.49-4.113-11.08" mask="url(#3b)"/><path d="m319.18 118.41c-1.115-2.096-2.645-3.951-4.689-4.921-8.315-1.264-16.507-.733-24.325-1.149l-33.433-.467c-1.244 5.259-2.417 10.822-2.417 11.811v3.986c0 0 .825 1.172 0 1.791-.826.618-1.032 2.681-1.032 2.681 0 0 1.032 1.651 1.238 2.27.18.539 1.27 6.415 1.697 8.733l39.535.772c1.091-.478 2.293-.234 3.462-.233 3.563 0 7.141.271 10.688.038 7.748-.51 9.504-2.726 11.236-8.469 1.746-5.799.869-11.514-1.96-16.843" mask="url(#3c)"/></g><path d="m205.29 115.04l110.06 2.145c3.568.629 4.349 9.181 4.42 12.658.08 3.989-.971 10.349-3.99 10.996-3.02.647-3.667-8.839-3.451-11.212.217-2.373.863-8.193 2.501-8.448 2.825-.438 3.153 5.426 2.999 8.02-.174 2.935-.387 8.252-1.832 8.732-1.295.432-1.078-10.484-.863-11.967l-2.336-.06" stroke="#000" stroke-width=".5" mask="url(#3d)"/><g fill="#000"><path d="m326.47 678.7c-5.515-1.464-10.692-3.656-15.578-6.56-3.926-2.333-6.21-5.503-5.707-10.382.378-3.663.556-7.347 1.29-10.968 2.25-11.09 4.585-22.16 7.826-33.03 2.33-7.816 4.168-15.78 6.541-23.581 1.99-6.531 2.45-13.188 2.466-19.911.007-3.117-.985-5.958-3.429-8.128-.453-.401-1.126-.753-.907-1.637.715-1.084 2.043-1.078 3.105-1.383 3.94-1.125 7.632-2.829 11.417-4.342 5.232-2.09 7.15-6.125 7.123-11.18-.031-5.356-3.574-9.843-9.307-10.501-1.172-.135-2.37-.095-3.556-.091-14.534.061-28.868 2.12-43.17 4.427-.979.158-1.949.335-2.938.432l-3.213.487c-3.619-3.228-7.683-5.503-12.494-5.604-9.14-.189-18.284-.064-27.428-.047-.34 0-.68.018-1.017.052l2.652-1.109c-.012-.015-.024-.023-.037-.037 1.418-.648 2.851-1.187 4.253-1.729l.025-.011h.002c2.431-.942 4.763-1.904 6.73-3.486.946-2.806-.18-5.079-1.29-7.317-2-4.03-4.9-7.492-7.307-11.258-6.514-10.197-14.737-18.872-23.45-27.15-1.08-1.025-2.262-1.934-3.591-2.378-4.351-1.454-8.457-3.661-13.11-4.209-1.951-.232-3.894-.68-5.926-2.126-2.671-3.99-2.947-8.587-1.824-13.314 1-.393 1.601-.672 2.227-.867 3.124-.979 4.761-3.188 5.155-6.339.216-1.694.213-3.415.344-5.121.096-1.284-.235-2.657.605-3.686 1.66-1.512 4.411.276 5.771-2.188-2.031-2.986-4.872-5.245-6.72-8.492-.341-3.106-.708-6.376-1.054-9.648-.447-4.224-2.689-7.338-6.02-9.778-4.071-2.987-8.662-4.329-13.692-4.332-4.29-.004-8.342.977-12.11 2.812-.931-.359-1.116-1.227-1.642-1.787-1.742-1.846-3.916-2.694-6.412-2.367-7.801 1.023-12.397 7.646-11.599 14.382.38 3.201 1.778 5.458 4.945 6.408.759.229 1.544.347 2.239 1.252-.651 5.969-1.235 12.281 2.906 17.559 3.979 5.071 9.229 8.17 15.784 8.262 3.898 2.933 3.63 7.226 4.36 10.991-.613 1.625-1.416 2.771-2.958 3.284-1.711.26-3.36-.243-5.05-.494-5.874-.875-10.638.874-13.905 6.076-1.339 2.131-2.444 4.355-3.322 6.712-4.515 12.12-7.359 24.724-10.819 37.15-.737 2.646-1.407 5.357-1.363 8.162.059 3.888 2.267 6.471 6.129 6.932 1.693.2 3.42.138 5.13.152.896.008 1.799.008 2.701.008l10.494-.156c-.998.063-1.995.129-2.99.189-.654.039-1.324.001-1.939.425-.452.545-.791 1.162-.665 2.1 1.025 1.285 2.13 2.672 3.281 4.114 3.152-.329 6.286-.674 9.523-.25 1.502 3.115 3.038 6.171 4.455 9.28 2.837 6.232 5.156 12.69 8.177 18.847 2.932 5.97 6.298 11.706 9.412 17.579 2.865 5.397 7.183 9.01 13.01 10.754 3.462 1.038 6.954 2.01 10.645 1.812.902-.047 1.842-.189 2.9.296 1.427 4.617 4.955 5.603 9.437 5.203 2.926-.259 5.891-.049 8.943-.049v43.1c-.353.237-.69.465-.992.669-.38.071-.751.14-1.145.211-.658 2.141-.198 4.333-.446 6.51-.039.108-.065.22-.115.326-13.167 6.165-26.366 12.347-39.434 18.466 0 .029.009.055.009.085-.332.154-.659.308-.991.463.982 1.274 1.776 2.306 2.524 3.279-.4 3.396.5 4.861 3.081 5.143 2.652.288 4-1.229 4.496-5.087.044-.173.089-.354.132-.538 11.337-4.521 22.727-9.06 34.21-13.636 3.814 5.496 6.361 11.625 10.745 17.07.166 2.57.924 3.657 2.956 3.807.817.059 1.558-.133 2.251-.576 1.577-1.01.758-2.78 1.259-4.125.919-.067 1.758-.127 2.906-.209-.815-1.649-1.616-3.273-2.422-4.904-1.014-2.069-2.04-4.168-3.056-6.299-.082-.172-.2-.345-.313-.521-.092-.188-.184-.373-.277-.562-.07-.234-.067-.479.096-.74 10.653 4.04 20.805 7.894 31.07 11.789.444 1.053.04 2.309.776 3.291 3.452.948 45.14 1.276 49.998.394.369-.901.437-1.774-.579-2.985-3.448-1.101-7.281-2.489-11.208-3.533m-118.61-95.12c-2.158.521-4.368.818-6.858 1.27-5.863-12.556-13.13-24.15-18.18-37.39-.38-1.062-.773-2.112-1.124-3.208 2.285-.202 4.582-.396 6.86-.48 1.605.021 3.184.082 4.781.176.859 1.713.983 3.559 1.4 5.31 1.251 5.244 2.535 10.48 4.327 15.572 2.156 6.124 4.913 11.92 9.29 16.822.336.377.572.847 1.083 1.619-.45-.218-.979.17-1.577.313m32.808-39.699c4.969 0 9.834-.011 14.697.005 3.55.011 7.166-.357 10.634.193.227.036.446.038.672.062l-3.034.461-.031.003c-6.06 1.456-12.14 2.749-18.11 3.727-1.407-.961-2.106-1.438-2.627-1.97l-7.85-8.565c1.903 2.048 3.725 4.01 5.653 6.084m-5.41-20.59c-.241.271-.445.643-.758.833-1.45.887-2.931 1.723-4.367 2.557-3.066-2.715-7.515-13.967-7.937-19.924 1.5 1.328 12.01 14.622 13.06 16.534m-75.29-.913c.308-1.422.526-2.899 1.625-4.393.203.236.353.479.52.719.792 1.435 1.21 2.991 1.95 4.487-1.723.363-2.911.255-4.095-.813m129.86 110.41c.337 9.728.683 19.457.752 29.19.025 3.778-.759 7.551-1.986 11.426-3.961-.912-7.419-2.765-11.02-4.205-3.658-1.464-7.265-3.055-10.908-4.559-3.634-1.501-7.286-2.965-10.751-4.372-.345-.654-.575-1.31-.735-1.951-.329-1.956-.007-3.849-.313-5.546-.316-.431-.695-.648-1.08-.823-.421-.379-.893-.688-1.314-1.222v-42.934c3.354 0 6.583.171 9.783-.046 3.659-.249 7.342-.763 8.48-5.265 7.246-.535 14.533.669 21.671-1.406-.203 1.442-.289 2.501-.55 3.489-2.46 9.285-2.356 18.74-2.029 28.23" mask="url(#3e)"/><path d="m465.43 22.734c-1.048-.325-1.819-.564-2.552-.793-1.497-8.401 2.212-16.375 9.405-19.839 5.304-2.554 10.94-2.769 16.377-.706 4.75 1.804 6.806 5.918 7.24 10.833.197 2.227.226 4.468.32 6.443 1.021 1.478 2.844 1.354 3.669 2.931-2.098.85-4.316.884-6.587 1.257-.744 1.472-.527 2.915.409 4.233.706.992 1.562 1.878 2.363 2.8.525.602 1.269 1.079 1.083 2.083-.854 1.274-2.432.751-3.792 1.493-1.098 2.963-.607 6.512-2.086 9.416-2.297 1.411-4.95.82-7.393 1.993.115 2.761-.554 5.397-1.958 7.516.215 4.424 2.01 7.967 4.02 11.418 2.516 4.319 5.275 8.489 7.624 12.912 1.531 2.882 1.877 5.77.904 8.847-.309.972-.541 1.986-.991 2.891-2.09 4.206-2.092 8.659-1.64 13.166.335 3.351.743 6.695 1.092 10.05.583 5.581 1.133 11.157 1.176 16.786.035 4.689.413 9.376.653 14.06.014.295.149.584.311 1.177 8.864 1.177 17.868 1.813 26.873 2.855 1.062-3.475.089-6.961 1.274-10.149.395-.087.688-.216.978-.204 6.127.233 12.217.736 18.1 2.642 3.978 1.289 7.261 3.718 10.226 6.547 2.02 1.926 3.314 4.364 3.782 7.213-1.132 2.779-3.134 4.773-5.627 6.265-3.464 2.075-7.21 3.252-11.291 3.429-5.422.236-10.812-.109-16.201-.597-.493-.044-.974-.209-1.66-.363-.507-3.286.744-6.505.21-9.619-.519-.752-1.221-.862-1.936-.935-7.913-.803-15.826-1.606-23.74-2.398-.189-.021-.392.088-.596.138-.692.661-.448 1.511-.429 2.299.281 10.509 1.123 20.998 1.111 31.519-.014 12.346.724 24.685.127 37.04-.296 6.109-.186 12.237-.273 18.357-.02 1.321.077 2.657-.398 4.04-1.351 1.126-3.03 1.343-4.782 1.444-4.466.255-8.926.639-13.396-.014-1.04 2.498-1.091 4.946-1.401 7.173.381 1.166 1.578.597 2.181 1.464.237 2.821-.512 5.702-.906 8.614-.738 5.456-1.683 10.888-1.608 16.43.068 5.05 3.772 10.516 10.07 10.613 1.954.03 3.863.281 5.738.817 3.489.994 4.258 2.325 3.539 6.12-2.885.917-30.08 1.046-36.33.153-.747-.984-.734-2.227-.694-3.423.066-1.937.133-3.887.416-5.798.529-3.564.521-7.12.212-10.688-.518-5.995-1.066-11.989-1.584-17.985-.141-1.62-.254-3.244-.002-4.821.976-1 2.265-.263 3.275-.874.485-1.927.351-5.302-.402-8.756-5.818-1.05-11.706-2.147-17.437-3.977-.571-2.94.047-5.66.508-8.338 1.936-11.258 3.909-22.51 6.04-33.732 1.178-6.212 2.413-12.412 3.268-18.676 1.339-9.808 3.03-19.549 5.148-29.22.236-1.081.333-2.194.534-3.56-3.419-1.031-6.906-.896-10.292-1.36-3.434-.472-6.886-.882-10.343-1.101-3.44-.219-6.844-1.066-10.386-.768-1.142 2.02-.52 4.275-1.084 6.279-2.538.761-7.941.58-11.416-.367-.365-2.045.202-12.743.981-18.334 1.874-1.189 3.922-.154 5.89-.238 1.938-.085 3.838.332 5.844.845.615 2.195-.179 4.421.064 6.837 3.332 1.192 6.942.908 10.42 1.429 3.426.512 6.888.841 10.346 1.064 3.542.23 7.05 1.056 10.646.85.221-.507.44-.857.534-1.239 1.943-7.811 3.887-15.624 5.802-23.443 1.268-5.173 2.104-10.398 1.701-15.756-.261-3.456-.494-6.902-1.083-10.339-1.139-6.649-1.778-13.355-.982-20.12.069-.599.009-1.212.009-1.777-.401-.758-1.098-.447-1.662-.565-3.201-.662-4.671-3.108-5.758-5.81-1.11-2.763-.894-5.592.046-8.39.954-2.839 2.363-5.452 4.257-7.736 2.144-2.583 3.145-5.433 2.866-8.76-.044-.508-.028-1.021-.038-1.531-.038-1.939-.076-3.877-.112-5.816-.037-1.958.735-3.765 1.197-5.872m-47.13 109.2c-1.098 4.128-.856 8.272-1.148 12.447 2.037.521 3.882.651 5.945.243.247-4.152 1.174-8.103.778-12.11-1.88-.917-3.658-.863-5.575-.577" mask="url(#3f)"/></g><path d="m487.99 22.752l5.702.107c2.645.044 3.755-.096 6.624-.873-1.27-1.475-2.407-2.125-3.712-2.965-.094-1.997-.123-4.265-.322-6.518-.44-4.972-2.52-9.132-7.325-10.958-5.5-2.086-11.2-1.869-16.565.715-7.275 3.503-11.03 11.569-9.513 20.07 14.1 1.996 22.04.746 25.11.424" fill="#fff" mask="url(#3g)"/><g fill="#464646"><path d="m542.3 138.95c-5.883-1.906-11.972-2.409-18.1-2.642-.289-.011-.584.118-.979.203-1.185 3.19-.212 6.675-1.272 10.15-9.01-1.042-18.01-1.679-26.874-2.855l-14.668-1.537.483 4.871 14.577 1.49c.205-.05.407-.157.598-.138 7.912.792 15.825 1.596 23.739 2.398.715.072 1.417.184 1.937.936.534 3.113-.718 6.332-.211 9.618.687.154 1.167.319 1.66.364 5.389.486 10.778.832 16.201.596 4.081-.177 7.826-1.355 11.29-3.428 2.493-1.493 4.496-3.486 5.628-6.266-.469-2.849-1.764-5.287-3.782-7.213-2.966-2.83-6.249-5.258-10.228-6.547" mask="url(#3h)"/><path d="m468.85 145.91l.699-4.777-10.894-1.142-.5-.094c-3.42.107-6.768-.643-10.145-.862-3.459-.223-6.921-.552-10.347-1.064-3.477-.521-7.088-.237-10.42-1.429-.243-2.416.551-4.642-.063-6.837-2.01-.513-3.907-.93-5.844-.845-1.969.085-4.02-.951-5.891.238-.778 5.591-1.346 16.289-.981 18.334 3.475.947 8.878 1.128 11.416.367.564-2-.058-4.257 1.084-6.279 3.542-.298 6.946.549 10.386.768 3.458.219 6.91.629 10.343 1.101 3.387.464 6.874.329 10.292 1.36-.002.017-.003.032-.005.049l10.87 1.112m-45.754-1.287c-2.063.408-3.908.278-5.945-.243.292-4.175.05-8.319 1.148-12.447 1.918-.286 3.696-.339 5.576.578.396 4.01-.532 7.96-.779 12.11" mask="url(#3i)"/></g><g fill="#000"><path d="m147.29 382.9c-1.746-2.559-3.455-5.174-5.742-7.357-2.256-2.154-4.275-4.55-6.429-6.811-8.724-9.147-17.865-17.855-27.523-26.02-1.55-1.31-3.249-2.219-5.242-2.673-2.47-.562-4.91-1.275-6.955-1.816-.746-.657-1.218-1.372-1.558-2.111-.535-1.553-.555-3.317-.923-4.606-.945-.127-1.931-.247-2.936-.36-.021-.013-.044-.017-.069-.031-.05-1.109-.371-2.82.682-3.76 3.269-.876 7.241-.47 9.937-3.354 1.961-4.733.508-9.971 2.413-14.365 2.214-.955 4.668.58 6.219-1.55.137-1.743-.878-3-1.66-4.322-.647-1.096-1.397-2.146-2.205-3.13-2.087-2.538-3.061-5.387-2.758-8.683.213-2.294-.232-4.571-.816-6.736-1.835-6.805-5.848-11.527-13.11-12.942-4.699-.917-9.299-.536-13.901.65-5.93 1.528-9.968 5.188-12.397 10.724-2.576 5.88-2.317 11.881-.632 17.901 1.262 4.516 3.073 8.832 4.954 13.12 1.48 3.372 2.753 6.836 4.121 10.257.584 1.465.978 2.96.803 4.582-.055.142-.127.265-.21.38-.559-.001-1.074-.016-1.507-.013-.357.302-.803 1.878-.898 2.442-.202 1.216-.451 2.546-2.103 3.565-2.034 0-4.176.008-6.367.001-2.164.002-4.375-.002-6.588-.023-.009 0-.016.0001-.022.0001-.066 0-.134 0-.201-.0001-2.5-.024-4.762.639-6.815 2.031-1.293.875-2.608 1.725-3.832 2.689-5.906 4.659-11.857 9.26-17.393 14.368-6.36 5.87-7.94 8.736-14.299 14.606-3.238 2.988-4.612 4.302-7.382 7.728-.483.597-1.126 1.437-1.754 2.414-.922 1.178-1.741 2.426-1.846 4.02-1.158 4.619.609 11.581 4.822 14.2 2.308 1.434 4.753 2.522 7.377 3.222 12.303 3.275 20.12 6.87 32.564 9.09l.013-.052c.071.013.139.029.212.044l.416-1.735c.418.511 1.591 1.869 2.701 2.386 0 0 2.528.72 4.391.974.653.09 1.517.166 2.378.191-.029.385-.08.767-.156 1.141-.747 3.785-.662 7.615-.785 11.443-.085 2.69-1.217 5.623-1.437 8.31-.168 2.068 1.418 4.01 1.239 6.08.074.009.148.017.22.026-.521 5.983-2.063 12.673-2.441 18.662-.578 9.205-.833 18.43-1.358 27.64-.578 10.198-1.417 20.384-1.916 30.586-.302 6.108-.911 12.162-1.901 18.19-1.929 11.762-3.274 23.595-4.242 35.471-.437 5.372-.538 10.776-1.114 16.13-.711 6.634-1.5 13.249-1.736 19.925-.204 5.815-.471 11.63-.857 17.436-.677 10.192-1.528 20.371-2.192 30.563-.481 7.363-.795 14.739-1.144 22.11-.134 2.829-.781 5.633-.38 8.927 2.376.816 4.657.619 6.889.626 20.582.062 41.16.096 61.744.121 3.693.004 7.384-.048 11.07-.112 1.111-.021 2.288.163 3.252-.621.994-3.507.264-5.61-2.547-7.102-1.133-.601-2.391-.813-3.667-1.023-6.568-1.089-13.12-2.267-19.689-3.394-1.126-.193-2.249-.346-3.157-1.54-.035-.348-.119-.897-.14-1.451-.27-6.557.789-13.01 1.518-19.492.759-6.762 2.032-13.457 2.404-20.274.17-3.105.754-6.19 1.184-9.28 1.018-7.302 2.582-14.52 3.035-21.906.226-3.677.771-7.335 1.222-10.995.887-7.178 1.94-14.34 2.678-21.533 1.057-10.289 1.887-20.604 2.825-30.906.205-2.26.562-4.509.682-6.772.605-11.477 2.5-22.835 2.954-34.33.313-7.93 1.262-15.835 1.408-23.782.106-5.678.063-11.363.404-17.03.666-11.05 1.508-22.08 1.223-33.16-.063-2.389-.409-7.611.197-9.812.948-1.017 1.986-1.454 3.048-1.925.049.883.078 1.74.08 2.528.301-.153.605-.304.904-.457 5.789-2.958 11.592-5.889 17.371-8.865.855-.363 1.708-.757 2.556-1.195 3.647-1.895 7.366-3.688 10.665-6.181 4.2-3.178 5.088-7.616 2.152-11.924m-37.75-10.696c2.744 1.246 13.776 10.247 17.33 14.14-2.115 1.81-13.16 7.783-17.33 9.264v-23.409m-64.44-4.42c-.838.535-1.573 1.025-1.977 1.3-.069.046-.12.082-.194.131-.253.173-.133.091.194-.131 1.129-.776 1.765-1.193 1.977-1.3 1.708-1.086 3.808-2.326 4.254-2.147 1.221 7.727 4.062 16.846 5.064 25.21-2.511-.276-3.407 1.318-4.045 2.851-8.989-1.943-26.27-6.807-28.824-7.992.121-.14.258-.29.399-.442 5.629-4.098 24.656-18.244 23.15-17.479m21.82 257.03c-1.213 15.623-1.93 31.27-2.356 47.1-2.264.493-3.995-.355-5.738-.917.005-3.681 6.758-46.742 8.107-50.779.0001 2.181.082 3.395-.013 4.595" mask="url(#3j)"/><path d="m964.65 250.29l-51.896-72.65v-2.627h-3.248l-179.46-38.455-3.949-1.914-1.957 4.04 157.91 76.55 3.455 31.671h15.474v373.76h-14.946v-190.59l-133.79-64.52v-170.17h-13.829-134.91-26.908v9.717h26.908v33.26h-26.908v9.717h26.908v34.01h-26.908v9.717h26.908v34.702h-26.908v9.716h26.908v32.817h-26.534v9.716h26.534v32.637h-26.908v278.04h281.78 27.655 62.784v-68.763h-35.88v-390.46l26.709 12.949-8.799 18.15 30.475 14.77 8.797-18.14.12.058 1.954-4.03-7.546-3.66m-56.754-73.33v45.817l-169.37-82.11 169.37 36.29m-6.915 47.569v13.826l-12.893-.092-2.446-21.291 15.589 7.557h-.25m11.958.694v-.693h-.186v-43.03l47.681 66.753-47.5-23.03" mask="url(#3k)"/></g><g fill="#e12426"><path mask="url(#3y)" d="m634.9 446.81h12.333v24.748h-12.333z"/><path mask="url(#3z)" d="m609.67 446.81h12.333v24.748h-12.333z"/><path mask="url(#40)" d="m659.56 446.81h12.332v24.748h-12.332z"/><path mask="url(#41)" d="m684.79 446.81h12.333v24.748h-12.333z"/><path mask="url(#42)" d="m609.67 485.49h12.333v24.748h-12.333z"/><path mask="url(#43)" d="m634.9 485.49h12.333v24.748h-12.333z"/><path mask="url(#44)" d="m659.56 485.49h12.332v24.748h-12.332z"/><path mask="url(#45)" d="m684.79 485.49h12.333v24.748h-12.333z"/><use mask="url(#46)" xlink:href="#4d"/><path mask="url(#47)" d="m634.9 525.03h12.333v24.748h-12.333z"/><use mask="url(#48)" xlink:href="#4e"/><path mask="url(#49)" d="m684.79 525.03h12.333v24.748h-12.333z"/><use mask="url(#4A)" xlink:href="#4d"/><use mask="url(#4B)" xlink:href="#4f"/><use mask="url(#4C)" xlink:href="#4e"/><path mask="url(#4D)" d="m684.79 525.03h12.333v24.748h-12.333z"/><path mask="url(#4E)" d="m609.67 563.71h12.333v24.748h-12.333z"/><path mask="url(#4F)" d="m634.9 563.71h12.333v24.748h-12.333z"/><path mask="url(#4G)" d="m659.56 563.71h12.332v24.748h-12.332z"/><path mask="url(#4H)" d="m684.79 563.71h12.333v24.748h-12.333z"/></g><g transform="translate(2)" fill="#e12426"><path mask="url(#4I)" d="m634.9 446.81h12.333v24.748h-12.333z"/><path mask="url(#4J)" d="m609.67 446.81h12.333v24.748h-12.333z"/><path mask="url(#4K)" d="m659.56 446.81h12.332v24.748h-12.332z"/><path mask="url(#4L)" d="m684.79 446.81h12.333v24.748h-12.333z"/><path mask="url(#4M)" d="m609.67 485.49h12.333v24.748h-12.333z"/><path mask="url(#4N)" d="m634.9 485.49h12.333v24.748h-12.333z"/><path mask="url(#4O)" d="m659.56 485.49h12.332v24.748h-12.332z"/><path mask="url(#4P)" d="m684.79 485.49h12.333v24.748h-12.333z"/><use mask="url(#4Q)" xlink:href="#4d"/><use mask="url(#4R)" xlink:href="#4f"/><use mask="url(#4S)" xlink:href="#4e"/><path mask="url(#4T)" d="m684.79 525.03h12.333v24.748h-12.333z"/><use mask="url(#4U)" xlink:href="#4d"/><use mask="url(#4V)" xlink:href="#4f"/><use mask="url(#4W)" xlink:href="#4e"/><path mask="url(#4X)" d="m684.79 525.03h12.333v24.748h-12.333z"/><path mask="url(#4Y)" d="m609.67 563.71h12.333v24.748h-12.333z"/><path mask="url(#4Z)" d="m634.9 563.71h12.333v24.748h-12.333z"/><path mask="url(#4a)" d="m659.56 563.71h12.332v24.748h-12.332z"/><path mask="url(#4b)" d="m684.79 563.71h12.333v24.748h-12.333z"/></g><g fill="#000"><path d="m953.3 426.71v-5.04h-18.521l-.02-.054-.146.054h-213.39v5.04h28.03v29.949h-28.03v5.05h28.03v29.949h-28.03v5.04h28.03v29.948h-28.03v5.05h28.03v29.948h-28.03v5.05h28.03v29.949h-28.03v5.04h28.03v87.75h5.05v-87.75h85.49v87.75h5.04v-87.75h79.882v87.75h5.04v-87.75h23.545v-5.04h-23.545v-29.949h23.545v-5.05h-18.519l-.022-.06-.161.06h-4.843v-29.948h23.545v-5.05h-18.469l-.072-.194-.525.194h-4.479v-29.948h23.545v-5.04h-18.488l-.053-.144-.386.144h-4.618v-29.949h23.545v-5.05h-23.545v-29.949h23.545m-113.52 169.93h-85.49v-29.949h85.49v29.949m0-34.995h-85.49v-29.948h85.49v29.948m0-34.994h-85.49v-29.948h85.49v29.948m0-34.993h-85.49v-29.949h85.49v29.949m0-34.994h-85.49v-29.95h85.49v29.95m5.04-29.95h76.25l-76.25 28.417v-28.417m0 34.995h76.61l-76.61 28.552v-28.552m0 34.994h76.01l-76.01 28.328v-28.328m0 34.994h75.868l-75.868 28.27v-28.27m0 34.994h76.23l-76.23 28.41v-28.41m79.882 29.949h-75.982l75.982-28.318v28.318m0-34.995h-76.35l76.35-28.454v28.454m0-34.994h-76.21l76.21-28.401v28.401m0-34.993h-75.6l75.6-28.18v28.18m0-34.994h-75.966l75.966-28.313v28.313" mask="url(#3l)"/><path d="m854.08 269.51v-4.421h-16.23l-.019-.048-.128.048h-187v4.421h24.564v26.25h-24.564v4.421h24.564v26.25h-24.564v4.421h24.564v26.25h-24.564v4.42h24.564v26.25h-24.564v4.421h24.564v26.25h-24.564v4.421h24.564v76.901h4.421v-76.901h74.917v76.901h4.421v-76.901h70v76.901h4.421v-76.901h20.633v-4.421h-20.633v-26.25h20.633v-4.421h-16.228l-.021-.053-.141.053h-4.243v-26.25h20.633v-4.42h-16.184l-.065-.172-.46.172h-3.924v-26.25h20.633v-4.421h-16.202l-.047-.126-.336.126h-4.048v-26.25h20.633v-4.421h-20.633v-26.25h20.633m-99.48 148.91h-74.917v-26.25h74.917v26.25m0-30.667h-74.917v-26.25h74.917v26.25m0-30.667h-74.917v-26.25h74.917v26.25m0-30.667h-74.917v-26.25h74.917v26.25m0-30.667h-74.917v-26.25h74.917v26.25m4.42-26.25h66.819l-66.819 24.904v-24.904m0 30.667h67.14l-67.14 25.02v-25.02m0 30.667h66.61l-66.61 24.825v-24.825m0 30.666h66.49l-66.49 24.781v-24.781m0 30.668h66.806l-66.806 24.898v-24.898m70 26.25h-66.59l66.59-24.816v24.816m0-30.667h-66.906l66.906-24.936v24.936m0-30.667h-66.784l66.784-24.891v24.891m0-30.667h-66.26l66.26-24.693v24.693m0-30.667h-66.57l66.57-24.812v24.812" mask="url(#3m)"/></g><g fill="#fdfeff"><path mask="url(#3n)" d="m924.72 620.67h5.04v68.765h-5.04z"/><path d="m886.04 601.68v-5.05h-37.31l37.31-13.903v-2.991l-41.2 15.356v-28.411h41.2v-5.04h-37.667l37.667-14.04v-2.992l-41.2 15.357v-28.28h41.2v-5.04h-37.528l37.528-13.987v-2.991l-41.2 15.356v-28.327h41.2v-5.05h-36.926l36.926-13.762v-2.991l-41.2 15.355v-28.552h41.2v-5.05h-37.29l37.29-13.897v-2.991l-41.2 15.356v-28.417h34.23l-10.462-5.05h-147.37v5.05h28.03v29.949h-28.03v5.05h28.03v29.949h-28.03v5.04h28.03v29.949h-28.03v5.04h28.03v29.949h-28.03v5.05h28.03v29.949h-28.03v5.04h28.03v87.75h5.05v-87.75h85.49v87.75h5.04v-87.75h41.2v.0001m-46.25-5.05h-85.49v-29.949h85.49v29.949m0-34.994h-85.49v-29.949h85.49v29.949m0-34.994h-85.49v-29.949h85.49v29.949m0-34.994h-85.49v-29.949h85.49v29.949m0-34.994h-85.49v-29.95h85.49v29.95" mask="url(#3o)"/><path mask="url(#3p)" d="m603.51 235.56h148.74v2.803h-148.74z"/><path mask="url(#3q)" d="m603.51 279.09h148.74v2.803h-148.74z"/><path mask="url(#3r)" d="m603.51 323.75h148.74v2.803h-148.74z"/><path d="m753.13 365.98h-149.63v2.803h155.44l-5.811-2.803" mask="url(#3s)"/></g><path d="m387.37 490.84c0-14.901 12.08-26.979 26.978-26.979 14.9 0 26.979 12.08 26.979 26.979 0 14.9-12.08 26.979-26.979 26.979-14.898 0-26.978-12.08-26.978-26.979" fill="#000" mask="url(#3t)"/><path d="m382.69 380.25c0-17.482 14.172-31.654 31.654-31.654 17.481 0 31.653 14.172 31.653 31.654 0 17.482-14.172 31.654-31.653 31.654-17.481 0-31.654-14.172-31.654-31.654" fill="#fff" mask="url(#3u)"/><g fill="#e12426"><path d="m401 490.84c0-7.373 5.978-13.352 13.351-13.352 7.373 0 13.351 5.979 13.351 13.352 0 7.373-5.978 13.351-13.351 13.351-7.373 0-13.351-5.978-13.351-13.351" mask="url(#3v)"/><path d="m401 380.25c0-7.373 5.978-13.351 13.351-13.351 7.373 0 13.351 5.978 13.351 13.351 0 7.373-5.978 13.352-13.351 13.352-7.373 0-13.351-5.979-13.351-13.352" mask="url(#3w)"/></g><path d="m414.35 336.22c-24.315 0-44.03 19.711-44.03 44.03 0 24.316 19.713 44.03 44.03 44.03 24.315 0 44.03-19.711 44.03-44.03 0-24.316-19.713-44.03-44.03-44.03m0 71c-14.9 0-26.975-12.08-26.975-26.977 0-14.899 12.07-26.977 26.975-26.977 14.899 0 26.975 12.08 26.975 26.977 0 14.899-12.08 26.977-26.975 26.977" fill="#666" mask="url(#3x)"/></g></g></g></svg>