<?xml version="1.0" encoding="utf-8"?>
<!-- Generator: Adobe Illustrator 19.1.0, SVG Export Plug-In . SVG Version: 6.00 Build 0)  -->
<svg version="1.1" xmlns="http://www.w3.org/2000/svg" xmlns:xlink="http://www.w3.org/1999/xlink" x="0px" y="0px"
	 viewBox="0 0 26 26" enable-background="new 0 0 26 26" xml:space="preserve">
<g id="art_work">
</g>
<g id="_x36_._NEED_HELP">
</g>
<g id="_x35_._EXAMPLES_oF_AIA_DOCS">
</g>
<g id="_x34_._AIA_CONTRACT_FAMILIES">
</g>
<g id="_x33_._WHO_USES">
</g>
<g id="_x32_B._HISTORY">
</g>
<g id="_x32_A._WHAT_ARE">
</g>
<g id="_x31_._TITLE_SCREEN">
</g>
<g id="STICKY_DEFAULT_NAV">
	<g id="Navigation_Bar_copy" display="none">
		<g id="Layer_9_copy" display="inline">
			<circle fill="none" stroke="#A4BCC0" stroke-width="2" stroke-miterlimit="10" cx="13" cy="13" r="21"/>
		</g>
	</g>
	<g id="Hover_state_copy" display="none">
	</g>
	<path fill="#E12426" d="M13,0C5.8,0,0,5.8,0,13s5.8,13,13,13c7.2,0,13-5.8,13-13S20.2,0,13,0z M12.9,20.4L6.5,8.8c3,0,13,0,13,0
		L12.9,20.4z"/>
</g>
<g id="HOVER_x2F_CLICK_STATE" display="none">
	<g id="_x36_._NEED_HELP_1_" display="inline">
	</g>
	<g id="_x35_._AIA_CONTRACT_EXAMPLES" display="inline">
	</g>
	<g id="_x34_._AIA_CONTRACT_FAMILIES_1_" display="inline">
	</g>
	<g id="_x33_._WHO_USES_1_" display="inline">
	</g>
	<g id="_x32_A._WHAT_ARE_-_Button" display="inline">
	</g>
	<g id="NAVIGATION" display="inline">
		<g id="Layer_9">
			<circle fill="none" stroke="#A4BCC0" stroke-width="2" stroke-miterlimit="10" cx="13" cy="13" r="21"/>
			<path d="M13,0C5.8,0,0,5.8,0,13s5.8,13,13,13c7.2,0,13-5.8,13-13S20.2,0,13,0z M12.9,20.4L6.5,8.8c3,0,13,0,13,0L12.9,20.4z"/>
		</g>
	</g>
</g>
<g id="CONTENT" display="none">
	<g id="_x35_._AIA_CONTRACT_EXAMPLES_1_" display="inline">
		<g id="Lightboxes">
		</g>
	</g>
	<g id="_x34_._AIA_CONTRACT_FAMILIES_2_" display="inline">
		<g id="Light_Box_copy">
			<g id="Close_button_copy">
			</g>
			<g id="Close_HOVER_copy">
			</g>
		</g>
	</g>
	<g id="_x33_._WHO_USES_2_" display="inline">
		<g id="Close_HOVER">
		</g>
		<g id="outline">
		</g>
	</g>
	<g id="CLOSE_button" display="inline">
	</g>
</g>
<g id="CONTENT_-_HOVER_CLOSE_BUTTON_AND_LINK" display="none">
</g>
<g id="GUIDES" display="none">
</g>
<g id="sample_desktop_proportions" display="none">
	<rect x="-51.8" y="-400.4" display="inline" fill="none" stroke="#000000" stroke-miterlimit="10" width="1366" height="768"/>
</g>
</svg>
