<svg version="1.1"
                             xmlns="http://www.w3.org/2000/svg" xmlns:xlink="http://www.w3.org/1999/xlink" xmlns:a="http://ns.adobe.com/AdobeSVGViewerExtensions/3.0/"
                             x="0px" y="0px" width="226.3px" height="78px" viewBox="0 0 226.3 78" enable-background="new 0 0 226.3 78" xml:space="preserve"
                            >
                        <defs>
                        </defs>
                        <g>
                            <g>
                                <path fill="#231F20" d="M99.3,7.3v12.2h-3.7V7.3h-4.4V4.5h12.5v2.9H99.3z"/>
                                <path fill="#231F20" d="M108.6,11.7v7.8h-3.2V4.5h3.2v5.1c0.8-0.7,1.9-1.2,3.1-1.2c2.2,0,3.8,1.6,3.8,4v7.1h-3.2V13
                                    c0-1.1-0.5-2-1.8-2C109.8,11,109.1,11.2,108.6,11.7z"/>
                                <path fill="#231F20" d="M122.5,19.8c-3.2,0-5.4-2.2-5.4-5.6c0-3.5,2.2-5.8,5.3-5.8c2.8,0,4.9,2,4.9,5.4v0.6h-7.2
                                    c0.1,1.8,0.8,3.1,2.4,3.1c0.9,0,1.7-0.5,1.9-1.3h2.8C126.8,18.6,124.8,19.8,122.5,19.8z M120.2,13.4h4.2c-0.1-1.7-0.9-2.6-2.1-2.6
                                    C121.3,10.7,120.4,11.5,120.2,13.4z"/>
                                <path fill="#231F20" d="M142,16.1h-4.7l-1.1,3.5h-3.6l5.2-15.1h3.9l5.2,15.1h-3.8L142,16.1z M139.6,8.5l-2,6.6h4.1L139.6,8.5z"/>
                                <path fill="#231F20" d="M151.8,11.6v8h-3.2V8.7h2.9l0.1,0.9c0.8-0.8,1.9-1.2,3.1-1.2c1.3,0,2.3,0.6,3,1.5c0.9-0.9,2.1-1.5,3.5-1.5
                                    c2.1,0,3.7,1.6,3.7,4v7.1h-3.2V13c0-1.1-0.5-2-1.8-2c-0.5,0-1.1,0.2-1.6,0.6c0,0.3,0.1,0.5,0.1,0.8v7.1h-3.2V13c0-1.1-0.5-2-1.8-2
                                    C152.8,11,152.3,11.2,151.8,11.6z"/>
                                <path fill="#231F20" d="M172.1,19.8c-3.2,0-5.4-2.2-5.4-5.6c0-3.5,2.2-5.8,5.3-5.8c2.8,0,4.9,2,4.9,5.4v0.6h-7.2
                                    c0.1,1.8,0.8,3.1,2.4,3.1c0.9,0,1.7-0.5,1.9-1.3h2.8C176.4,18.6,174.5,19.8,172.1,19.8z M169.8,13.4h4.2c-0.1-1.7-0.9-2.6-2.1-2.6
                                    C171,10.7,170,11.5,169.8,13.4z"/>
                                <path fill="#231F20" d="M178.8,19.6V8.7h2.9l0.1,1.7c1-1.3,2.2-2,3.5-2v2.8c-1.4,0-2.5,0.4-3.3,1.5v6.8H178.8z"/>
                                <path fill="#231F20" d="M186.8,5.5c0-1,0.8-1.8,1.9-1.8c1.1,0,1.9,0.8,1.9,1.8c0,1-0.8,1.9-1.9,1.9C187.7,7.3,186.8,6.5,186.8,5.5
                                    z M190.4,8.7v10.9h-3.2V8.7H190.4z"/>
                                <path fill="#231F20" d="M197.6,10.9c-1.3,0-2.2,1.1-2.2,3.2c0,1.9,0.8,3.2,2.3,3.2c0.9,0,1.7-0.5,2-1.4h2.8
                                    c-0.5,2.5-2.5,3.8-4.7,3.8c-3.2,0-5.5-2.2-5.5-5.7c0-3.5,2.3-5.7,5.4-5.7c2.4,0,4.4,1.2,4.9,4.1h-2.9
                                    C199.3,11.4,198.6,10.9,197.6,10.9z"/>
                                <path fill="#231F20" d="M210.5,18.4c-1.1,0.9-2.4,1.4-3.6,1.4c-1.7,0-3-1-3-2.7c0-1.7,1.4-2.8,4.5-3.5l1.7-0.4v-0.6
                                    c0-1.1-0.6-1.7-1.6-1.7c-1,0-1.6,0.7-1.6,1.5h-2.8c0.1-2.5,2-4,4.6-4c3,0,4.6,1.8,4.6,4.1v4.3c0,0.6,0.5,0.9,1.1,0.7v1.9
                                    C212.7,19.9,211.2,19.6,210.5,18.4z M210.2,16.8v-2.6l-0.9,0.2c-1.7,0.4-2.3,1.1-2.3,2c0,0.8,0.5,1.2,1.3,1.2
                                    C208.9,17.6,209.5,17.3,210.2,16.8z"/>
                                <path fill="#231F20" d="M219.4,11.6v8h-3.2V8.7h2.9l0.1,1c0.9-0.8,2.1-1.3,3.3-1.3c2.2,0,3.8,1.6,3.8,4v7.1h-3.2V13
                                    c0-1.1-0.5-2-1.8-2C220.7,11,220,11.2,219.4,11.6z"/>
                                <path fill="#231F20" d="M93.6,46.6v-0.9h2.1V32.3h-2.1v-0.9h7.9v0.9h-2.1v13.3h2.1v0.9H93.6z"/>
                                <path fill="#231F20" d="M106.6,38.6v8h-3.2V35.7h2.9l0.1,1c0.9-0.8,2.1-1.3,3.3-1.3c2.2,0,3.8,1.6,3.8,4v7.1h-3.2v-6.6
                                    c0-1.1-0.5-2-1.8-2C107.8,37.9,107.2,38.2,106.6,38.6z"/>
                                <path fill="#231F20" d="M121.5,38.9c-0.2-0.7-0.8-1.2-1.9-1.2c-0.9,0-1.3,0.3-1.3,0.8c0,0.8,1.3,1,2.7,1.4
                                    c1.7,0.5,3.4,1.2,3.4,3.4c0,2-1.5,3.4-4.5,3.4c-2.4,0-4.3-1-4.6-3.4h2.8c0.2,0.8,0.9,1.2,1.9,1.2c1.1,0,1.5-0.4,1.5-0.9
                                    c0-0.7-1.1-1-2.3-1.3c-1.7-0.5-3.7-1.2-3.7-3.5c0-2,1.5-3.4,4.3-3.4c2.2,0,4.1,1.1,4.6,3.5H121.5z"/>
                                <path fill="#231F20" d="M130.5,46.8c-2,0-3.7-1.4-3.7-3.7v-6.5H125v-0.9h1.7v-3.1l3.2-1.2v4.2h2.6v0.9H130v5.9
                                    c0,1.1,0.7,1.8,1.7,1.8c0.3,0,0.7-0.1,1.1-0.2v2.2C132.1,46.7,131.3,46.8,130.5,46.8z"/>
                                <path fill="#231F20" d="M134.5,32.4c0-1,0.8-1.8,1.9-1.8c1.1,0,1.9,0.8,1.9,1.8c0,1-0.8,1.9-1.9,1.9
                                    C135.3,34.3,134.5,33.5,134.5,32.4z M138,35.7v10.9h-3.2V35.7H138z"/>
                                <path fill="#231F20" d="M145.2,46.8c-2,0-3.7-1.4-3.7-3.7v-6.5h-1.7v-0.9h1.7v-3.1l3.2-1.2v4.2h2.6v0.9h-2.6v5.9
                                    c0,1.1,0.7,1.8,1.7,1.8c0.3,0,0.7-0.1,1.1-0.2v2.2C146.8,46.7,146,46.8,145.2,46.8z"/>
                                <path fill="#231F20" d="M156.2,45.6c-0.8,0.8-1.9,1.2-3.1,1.2c-2.2,0-3.8-1.6-3.8-4.1v-7.1h3.2v6.7c0,1.1,0.5,1.9,1.8,1.9
                                    c0.5,0,1.1-0.2,1.6-0.5v-8.1h3.2v10.9h-2.9L156.2,45.6z"/>
                                <path fill="#231F20" d="M166.2,46.8c-2,0-3.7-1.4-3.7-3.7v-6.5h-1.7v-0.9h1.7v-3.1l3.2-1.2v4.2h2.6v0.9h-2.6v5.9
                                    c0,1.1,0.7,1.8,1.7,1.8c0.3,0,0.7-0.1,1.1-0.2v2.2C167.8,46.7,167,46.8,166.2,46.8z"/>
                                <path fill="#231F20" d="M175,46.8c-3.2,0-5.4-2.2-5.4-5.6c0-3.5,2.2-5.8,5.3-5.8c2.8,0,4.9,2,4.9,5.4v0.6h-7.2
                                    c0.1,1.8,0.8,3.1,2.4,3.1c0.9,0,1.7-0.5,1.9-1.3h2.8C179.3,45.5,177.4,46.8,175,46.8z M172.7,40.4h4.2c-0.1-1.7-0.9-2.6-2.1-2.6
                                    C173.8,37.7,172.9,38.5,172.7,40.4z"/>
                                <path fill="#231F20" d="M92.9,68.1c0-3.5,2.3-5.7,5.5-5.7c3.2,0,5.5,2.2,5.5,5.7c0,3.5-2.3,5.7-5.5,5.7
                                    C95.2,73.7,92.9,71.5,92.9,68.1z M96,68.1c0,1.9,0.9,3.3,2.5,3.3c1.6,0,2.5-1.4,2.5-3.3c0-1.9-0.9-3.3-2.5-3.3
                                    C96.9,64.8,96,66.1,96,68.1z"/>
                                <path fill="#231F20" d="M109.6,63.6v10h-3.2v-10h-1.7v-0.9h1.7v-0.9c0-2.3,1.2-4.4,4.2-4.4c0.7,0,1.3,0.1,1.8,0.3v2.5
                                    c-0.4-0.1-0.7-0.2-1.1-0.2c-1,0-1.7,0.5-1.7,1.8v0.8h2.6v0.9H109.6z"/>
                                <path fill="#231F20" d="M126.4,70.1h-4.7l-1.1,3.5H117l5.2-15.1h3.9l5.2,15.1h-3.8L126.4,70.1z M124,62.4l-2,6.6h4.1L124,62.4z"/>
                                <path fill="#231F20" d="M133,73.5V62.6h2.9l0.1,1.7c1-1.3,2.2-2,3.5-2v2.8c-1.4,0-2.5,0.4-3.3,1.5v6.8H133z"/>
                                <path fill="#231F20" d="M145.9,64.8c-1.3,0-2.2,1.1-2.2,3.2c0,1.9,0.8,3.2,2.3,3.2c0.9,0,1.7-0.5,2-1.4h2.8
                                    c-0.5,2.5-2.5,3.8-4.7,3.8c-3.2,0-5.5-2.2-5.5-5.7c0-3.5,2.3-5.7,5.4-5.7c2.4,0,4.4,1.2,4.9,4.1h-2.9
                                    C147.5,65.3,146.9,64.8,145.9,64.8z"/>
                                <path fill="#231F20" d="M155.8,65.7v7.8h-3.2V58.4h3.2v5.1c0.8-0.7,1.9-1.2,3.1-1.2c2.2,0,3.8,1.6,3.8,4v7.1h-3.2v-6.6
                                    c0-1.1-0.5-2-1.8-2C157,64.9,156.3,65.2,155.8,65.7z"/>
                                <path fill="#231F20" d="M164.6,59.4c0-1,0.8-1.8,1.9-1.8c1.1,0,1.9,0.8,1.9,1.8c0,1-0.8,1.9-1.9,1.9
                                    C165.4,61.3,164.6,60.5,164.6,59.4z M168.1,62.6v10.9h-3.2V62.6H168.1z"/>
                                <path fill="#231F20" d="M175.3,73.7c-2,0-3.7-1.4-3.7-3.7v-6.5h-1.7v-0.9h1.7v-3.1l3.2-1.2v4.2h2.6v0.9h-2.6v5.9
                                    c0,1.1,0.7,1.8,1.7,1.8c0.3,0,0.7-0.1,1.1-0.2v2.2C176.9,73.6,176.1,73.7,175.3,73.7z"/>
                                <path fill="#231F20" d="M184,73.7c-3.2,0-5.4-2.2-5.4-5.6c0-3.5,2.2-5.8,5.3-5.8c2.8,0,4.9,2,4.9,5.4v0.6h-7.2
                                    c0.1,1.8,0.8,3.1,2.4,3.1c0.9,0,1.7-0.5,1.9-1.3h2.8C188.3,72.5,186.4,73.7,184,73.7z M181.7,67.3h4.2c-0.1-1.7-0.9-2.6-2.1-2.6
                                    C182.8,64.7,181.9,65.5,181.7,67.3z"/>
                                <path fill="#231F20" d="M195.8,64.8c-1.3,0-2.2,1.1-2.2,3.2c0,1.9,0.8,3.2,2.3,3.2c0.9,0,1.7-0.5,2-1.4h2.8
                                    c-0.5,2.5-2.5,3.8-4.7,3.8c-3.2,0-5.5-2.2-5.5-5.7c0-3.5,2.3-5.7,5.4-5.7c2.4,0,4.4,1.2,4.9,4.1h-2.9
                                    C197.5,65.3,196.8,64.8,195.8,64.8z"/>
                                <path fill="#231F20" d="M206.8,73.7c-2,0-3.7-1.4-3.7-3.7v-6.5h-1.7v-0.9h1.7v-3.1l3.2-1.2v4.2h2.6v0.9h-2.6v5.9
                                    c0,1.1,0.7,1.8,1.7,1.8c0.3,0,0.7-0.1,1.1-0.2v2.2C208.4,73.6,207.6,73.7,206.8,73.7z"/>
                                <path fill="#231F20" d="M216.4,65.9c-0.2-0.7-0.8-1.2-1.9-1.2c-0.9,0-1.3,0.3-1.3,0.8c0,0.8,1.3,1,2.7,1.4
                                    c1.7,0.5,3.4,1.2,3.4,3.4c0,2-1.5,3.4-4.5,3.4c-2.4,0-4.3-1-4.6-3.4h2.8c0.2,0.8,0.9,1.2,1.9,1.2c1.1,0,1.5-0.4,1.5-0.9
                                    c0-0.7-1.1-1-2.3-1.3c-1.7-0.5-3.7-1.2-3.7-3.5c0-2,1.5-3.4,4.3-3.4c2.2,0,4.1,1.1,4.6,3.5H216.4z"/>
                            </g>
                            <g>
                                <g>
                                    <rect fill="#EF4536" width="78" height="78"/>
                                    <g>
                                        <path fill="#FFFFFF" d="M37.4,40.9c0.3-0.5,1-1.1,1.6-1.4c0.6,0.3,1.3,0.9,1.6,1.4c0.3-0.5,0.8-1.1,1.4-1.4
                                            c0.6,0.1,1.4,0.6,1.8,0.9c-1-1.9-2.4-4.9-2.4-5.9c0-0.3,0.2-0.4,0.5-0.5c0.1,0,0.5-0.1,0.5-0.1s-0.8-1.9-1.2-2.4
                                            c-0.9-1.4-1.5-1.9-2.4-1.9c-0.3,0-0.5,0-0.5,0.2c0,0.3,1.3,1.2,1.3,1.6c0,0.3-2.2-0.1-2-1.5c0-0.3,0-0.3-0.1-0.4
                                            c-0.5-0.4-1.6-1.1-2.5-1.1c-1.1,0-1.9,1.2-2.2,2.3c0,0,0.6-0.3,0.9-0.3c0.5,0,0.9,0.2,1.5,1c0.8,1,1.4,2,1.4,3.5
                                            c0,2-1.1,3.7-2.2,5.6c0.4-0.3,1.3-0.8,1.8-1C36.6,39.8,37.1,40.4,37.4,40.9z"/>
                                        <path fill="#FFFFFF" d="M26.8,13.1h24.3c2.1,0,3-1.5,3-3H23.9C23.9,11.6,24.7,13.1,26.8,13.1z"/>
                                        <path fill="#FFFFFF" d="M33.3,31.8c-0.2,0-0.3,0.1-0.3,0.1v1.4c0.7,1.8,1.1,3.3,1.1,4.9c0.5-1,1-2.2,1-3.2c0-1.3-0.4-2-0.8-2.6
                                            C33.8,31.9,33.6,31.8,33.3,31.8z"/>
                                        <path fill="#FFFFFF" d="M39,68.5c0,0,3.5-1.2,3.5-2c0-0.4-0.2-0.8-0.6-1.6c-0.3-0.7-0.7-1.5-0.7-1.5L39,63l-2.3,0.5
                                            c0,0-0.4,0.8-0.7,1.5c-0.3,0.7-0.6,1.2-0.6,1.6C35.5,67.3,39,68.5,39,68.5z"/>
                                        <path fill="#FFFFFF" d="M42.1,41.1c-0.5,0.3-1.1,1-1.4,1.5c-0.4-0.5-1.2-1.2-1.7-1.4c-0.6,0.2-1.3,0.9-1.7,1.4
                                            c-0.3-0.5-0.9-1.1-1.4-1.5c-2.3,0.8-3,3.1-3,5.3c0,4.2,1.9,8.9,3.2,12l1.1-0.2c1.2-0.2,2.5-0.2,3.8,0l0.9,0.2
                                            c1.2-2.7,3.3-7.7,3.3-12C45.2,44.1,44.5,41.9,42.1,41.1z"/>
                                        <path fill="#FFFFFF" d="M41.2,60.3c0-0.7-0.3-1.2-1-1.2c-0.5,0-0.7,0.3-0.7,0.7c0,0.3,0.1,0.5,0.1,1c0,0.7-0.1,1.3-0.1,1.3
                                            S41.2,61.3,41.2,60.3z"/>
                                        <path fill="#FFFFFF" d="M43.5,60.7c0-0.6-0.3-1.2-0.9-1.2c-0.4,0-0.6,0.3-0.6,0.7c0,0.2,0.1,0.6,0.1,0.7c0,0.9-0.1,1.3-0.1,1.3
                                            S43.5,61.6,43.5,60.7z"/>
                                        <path fill="#FFFFFF" d="M45.7,61.2c0-0.4-0.3-0.9-0.8-0.9c-0.4,0-0.5,0.3-0.6,0.6c0,0.2,0,0.4,0,0.5c0,0.7-0.4,1.1-0.4,1.1
                                            S45.7,62.1,45.7,61.2z"/>
                                        <rect x="20.9" y="4.5" fill="#FFFFFF" width="36.1" height="4"/>
                                        <rect x="20.9" y="69.5" fill="#FFFFFF" width="36.1" height="4"/>
                                        <path fill="#FFFFFF" d="M51,66c1.6,1.3,4.4,1.7,6.1,1.9c-0.3-0.9-2-3.9-3.6-5.1c-0.8-0.6-1.9-1.3-3.1-1.3
                                            c-0.6,0-1.2,0.1-1.4,0.4C49,62.1,49,62.3,49,62.6C49,64.1,50,65.2,51,66z"/>
                                        <path fill="#FFFFFF" d="M61.4,64.6c0.7,0,1.4,0,2-0.1c-1.5-2.2-3.6-5.1-6.7-5.1c-0.8,0-1.4,0.3-1.7,0.5
                                            c-0.2,0.1-0.3,0.3-0.3,0.6C54.6,62.2,56.9,64.6,61.4,64.6z"/>
                                        <path fill="#FFFFFF" d="M63.7,59.9c1.5,0,2.9-0.4,4.1-0.8c-1.1-1-3.5-3.3-6.2-3.3c-0.5,0-1.1,0.1-1.6,0.3c-0.3,0.1-1,0.5-1,1.1
                                            c0,0.5,0.5,1,0.6,1.2C60.3,59.2,61.7,59.9,63.7,59.9z"/>
                                        <path fill="#FFFFFF" d="M65.8,54.6c1.8,0,3.6-0.9,5-1.7c-0.7-0.5-3.1-2-5.3-2c-0.9,0-1.8,0.1-2.6,0.7c-0.3,0.2-0.8,0.7-0.8,1
                                            c0,0.3,0.2,0.5,0.3,0.6C63.2,54.4,64.6,54.6,65.8,54.6z"/>
                                        <path fill="#FFFFFF" d="M29.1,62.6c0-0.3-0.1-0.5-0.2-0.7c-0.2-0.3-0.8-0.4-1.4-0.4c-1.2,0-2.3,0.7-3.1,1.3
                                            c-1.6,1.3-3.3,4.2-3.6,5.1c1.7-0.2,4.6-0.6,6.1-1.9C28,65.2,29.1,64.1,29.1,62.6z"/>
                                        <path fill="#FFFFFF" d="M23.4,60.5c0-0.2-0.1-0.5-0.3-0.6c-0.3-0.2-0.9-0.5-1.7-0.5c-3.1,0-5.2,2.8-6.7,5.1
                                            c0.6,0.1,1.3,0.1,2,0.1C21.2,64.6,23.4,62.2,23.4,60.5z"/>
                                        <path fill="#FFFFFF" d="M18.5,58.4c0.2-0.2,0.6-0.8,0.6-1.2c0-0.5-0.7-0.9-1-1.1c-0.5-0.2-1.1-0.3-1.6-0.3
                                            c-2.8,0-5.1,2.3-6.2,3.3c1.1,0.4,2.6,0.8,4.1,0.8C16.3,59.9,17.7,59.2,18.5,58.4z"/>
                                        <path fill="#FFFFFF" d="M15.7,53.3c0.1-0.1,0.3-0.3,0.3-0.6c0-0.4-0.5-0.8-0.8-1c-0.8-0.6-1.7-0.7-2.6-0.7c-2.2,0-4.6,1.6-5.3,2
                                            c1.3,0.8,3.2,1.7,5,1.7C13.4,54.6,14.8,54.4,15.7,53.3z"/>
                                        <path fill="#FFFFFF" d="M47.4,67.2c0.6,0,1.1-0.2,1.6-0.3L46.5,63c-0.9,0.8-2.4,1-3.2,1c0,0,0.3,0.6,0.7,1.4
                                            C44.6,66.7,46,67.2,47.4,67.2z"/>
                                        <path fill="#FFFFFF" d="M34.1,65.4c0.4-0.8,0.7-1.4,0.7-1.4c-0.9,0-2.4-0.2-3.2-1L29,66.9c0.4,0.1,0.9,0.3,1.6,0.3
                                            C32,67.2,33.5,66.7,34.1,65.4z"/>
                                        <path fill="#FFFFFF" d="M24.5,27c1,1.8,3.5,6.1,5,8.6c1.3,2.3,2.4,6,2.5,7.4c0.3-0.5,0.6-1.8,0.5-3.4c0-1.7-0.3-4.5-2.1-8.4
                                            c-0.5-1.2-1.7-3.7-3.8-8.5c-1.6-3.5-2.1-5.7-2.1-7.4c-1.5,0.7-2.5,2.4-2.4,4.3C22.1,22,22.6,23.8,24.5,27z"/>
                                        <path fill="#FFFFFF" d="M26.2,39.6c-1.2,0-1.7,0.3-2.1,0.5c0.2,0.9,1,1.8,1.8,2.3c-0.7,0-1.5,0.3-2,0.8c0.3,1.1,1.2,2.1,2.4,2.6
                                            c-0.5,0.4-0.8,0.8-1,1.5c0.8,1,2.5,1.3,3.8,1.5c-0.4,0.4-0.7,1-0.9,1.7c0.9,0.6,2.3,0.7,3.5,0.7c-0.3-1.4-0.6-3.3-0.6-4.4
                                            c0-3.1-1.1-5.5-1.7-6.8c-0.6-1.2-1.2-2.5-2.8-3C26.1,37.8,26.1,38.9,26.2,39.6z"/>
                                        <path fill="#FFFFFF" d="M28.2,59.8c1.4,0,2.4-0.4,3.6-2.1c0.1-0.2,1.3-2,1.3-2s-0.9-2-1-2.9c0,0-2.6,2.1-3.9,3.2
                                            c-0.8,0.7-2.5,1.9-3.5,2.2C25,58.7,26.7,59.8,28.2,59.8z"/>
                                        <path fill="#FFFFFF" d="M23.5,56c2,0,2.6-0.6,3.6-1.4c0.9-0.7,2.6-2.1,2.6-2.1c-0.9,0.1-2.2-0.4-2.8-1c0,0-2.1,1-3.6,1.5
                                            c-2.2,0.7-3.2,0.8-3.7,0.9C20.1,55.1,21.8,56,23.5,56z"/>
                                        <path fill="#FFFFFF" d="M20.6,51.6c1.5-0.1,4.5-0.9,6-1.9c-0.9-0.1-2.1-0.6-2.7-1.3c-1.1,0.2-2.1,0.3-3,0.3
                                            c-2.6,0-4.3-0.6-4.8-0.7C16.6,50.4,18.3,51.7,20.6,51.6z"/>
                                        <path fill="#FFFFFF" d="M13.7,41.1c0,3.2,1.9,5.9,7.2,5.9c1.1,0,2.8-0.1,2.8-0.1c0.1-0.3,0.4-0.9,0.6-1.2
                                            c-0.7-0.2-4.5-1.4-6.6-2.5c-2.3-1.1-3.5-2.2-3.9-2.6C13.7,40.8,13.7,40.9,13.7,41.1z"/>
                                        <path fill="#FFFFFF" d="M18.3,37.7c-2.9-2.1-4.2-3.6-4.7-4.6c-0.1,0.2-0.3,0.8-0.3,1.7c0,2.5,1,4.4,5.6,6.8
                                            c1.2,0.6,3.7,1.8,3.7,1.8c-0.1-0.2-0.1-0.6-0.1-0.7c0,0,0.4-0.5,1.2-0.8C23.7,41.9,19.5,38.6,18.3,37.7z"/>
                                        <path fill="#FFFFFF" d="M18.4,30.2c-2.1-2.6-3.2-4.2-3.7-5.4c-0.4,0.5-0.7,1.7-0.7,2.9c0,3.7,2,6,4.6,8.1c2.1,1.7,4,3.3,4,3.3
                                            c0,0.1,0.9-0.8,2.4-0.7C25,38.4,19.9,32.2,18.4,30.2z"/>
                                        <path fill="#FFFFFF" d="M18.3,15.6c-1.5,0.7-2.6,2.9-2.6,4.5c0,2.1,0.5,4.8,3.7,8.7c2.5,3.1,5.9,7.3,5.9,7.3
                                            c0.1-0.3,0.3-0.8,0.5-1c0.6,0,1.3,0.2,1.6,0.4c0,0-5.6-9.6-7-12C18.6,20.3,18.3,17.9,18.3,15.6z"/>
                                        <path fill="#FFFFFF" d="M56,19.6c0-1.9-1-3.6-2.4-4.3c0,1.7-0.6,3.9-2.1,7.4c-2.1,4.8-3.2,7.3-3.8,8.5c-1.8,4-2.1,6.8-2.1,8.4
                                            c0,1.6,0.3,2.9,0.5,3.4c0.1-1.4,1.2-5.1,2.5-7.4c1.5-2.5,4-6.8,5-8.6C55.4,23.8,55.9,22,56,19.6z"/>
                                        <path fill="#FFFFFF" d="M58.4,53.9c-0.5-0.1-1.5-0.2-3.7-0.9c-1.5-0.4-3.6-1.5-3.6-1.5c-0.5,0.6-1.9,1.1-2.8,1
                                            c0,0,1.8,1.4,2.6,2.1c1,0.8,1.7,1.4,3.6,1.4C56.2,56,57.9,55.1,58.4,53.9z"/>
                                        <path fill="#FFFFFF" d="M61.9,48.1c-0.5,0.1-2.2,0.6-4.8,0.7c-0.9,0-1.9-0.1-3-0.3c-0.6,0.8-1.7,1.2-2.7,1.3
                                            c1.5,1,4.5,1.8,6,1.9C59.8,51.7,61.4,50.4,61.9,48.1z"/>
                                        <path fill="#FFFFFF" d="M54.3,41.9c0.8,0.3,1.2,0.8,1.2,0.8c0,0.2,0,0.5-0.1,0.7c0,0,2.5-1.1,3.7-1.8c4.6-2.4,5.6-4.4,5.6-6.8
                                            c0-1-0.2-1.5-0.3-1.7c-0.5,1-1.9,2.4-4.7,4.6C58.5,38.6,54.3,41.9,54.3,41.9z"/>
                                        <path fill="#FFFFFF" d="M57.6,23.5c-1.4,2.4-7,12-7,12c0.3-0.2,1-0.4,1.6-0.4c0.2,0.2,0.5,0.7,0.5,1c0,0,3.3-4.2,5.9-7.3
                                            c3.2-3.9,3.7-6.6,3.7-8.7c0-1.6-1.1-3.8-2.6-4.5C59.7,17.9,59.4,20.3,57.6,23.5z"/>
                                        <g>
                                            <polygon fill="none" points="41.3,17 41.3,17 41.3,17                    "/>
                                            <polygon fill="none" points="45.8,17 45.8,17 45.8,17                    "/>
                                            <polygon fill="none" points="36.7,17 36.7,17 36.7,17                    "/>
                                            <path fill="#FFFFFF" d="M28.7,14.6v8.7l2.7,6.1V17.9v-0.1c0-0.5,0.3-0.8,0.7-0.8h0.1c0.4,0,0.7,0.3,0.7,0.8v0.1V28
                                                c0.2-0.2,0.9-1,2.1-1c0.4,0,0.7,0.1,0.8,0.2l0-9.3v0v-0.1c0-0.5,0.3-0.8,0.7-0.8h0.1h0h0h0.1c0.4,0,0.7,0.3,0.7,0.8v0.1l0,0
                                                l0,10.2c0.1,0,0.1,0.1,0.2,0.2c0.1,0.1,0.2,0.2,0.4,0.2c0.1,0,0.3-0.1,0.7-0.1c0.8,0,1.3,0.3,1.6,0.4l0-10.9v0v-0.1
                                                c0-0.5,0.3-0.8,0.7-0.8h0.1h0h0h0.1c0.4,0,0.7,0.3,0.7,0.8v0.1l0,0v12.5l1.9,4.2c0,0-0.4,0-0.7,0.1C43.1,34.7,43,34.9,43,35
                                                c0,0.1,0.1,0.4,0.1,0.5c0,0.1,0.6,1.4,0.9,2.1c0.1-1.7,0.4-2.9,0.9-4.5l0-15.2l0,0v-0.1c0-0.5,0.3-0.8,0.7-0.8h0.1h0h0h0.1
                                                c0.4,0,0.7,0.3,0.7,0.8v0.1c0,0,0,0,0,0v11.3l2.7-6.1l0-8.5H28.7z"/>
                                            <polygon fill="#EF4135" points="37.5,17.8 37.5,17.9 37.5,17.9                   "/>
                                        </g>
                                        <path fill="#FFFFFF" d="M53.4,58.2c-1-0.3-2.7-1.5-3.5-2.2c-1.3-1.1-3.9-3.2-3.9-3.2c-0.2,1-1,2.9-1,2.9s1.2,1.8,1.3,2
                                            c1.2,1.7,2.2,2.1,3.6,2.1C51.3,59.8,53,58.7,53.4,58.2z"/>
                                        <path fill="#FFFFFF" d="M64.3,40.7c-0.4,0.3-1.6,1.5-3.9,2.6c-2.1,1-5.9,2.3-6.6,2.5c0.2,0.2,0.5,0.9,0.6,1.2
                                            c0,0,1.6,0.1,2.8,0.1c5.3,0,7.2-2.7,7.2-5.9C64.3,40.9,64.3,40.8,64.3,40.7z"/>
                                        <path fill="#FFFFFF" d="M53,38.4c1.4-0.1,2.4,0.8,2.4,0.7c0,0,1.9-1.6,4-3.3c2.6-2.1,4.6-4.4,4.6-8.1c0-1.3-0.3-2.4-0.7-2.9
                                            c-0.4,1.2-1.5,2.8-3.7,5.4C58.1,32.2,53,38.4,53,38.4z"/>
                                        <path fill="#FFFFFF" d="M51.4,36.9c-1.6,0.5-2.2,1.8-2.8,3c-0.7,1.3-1.7,3.7-1.7,6.8c0,1.1-0.3,3-0.6,4.4c1.2,0,2.7,0,3.5-0.7
                                            c-0.2-0.7-0.5-1.3-0.9-1.7c1.2-0.2,2.9-0.5,3.8-1.5c-0.2-0.7-0.5-1.1-1-1.5c1.2-0.5,2.1-1.5,2.4-2.6c-0.5-0.5-1.3-0.7-2-0.8
                                            c0.8-0.5,1.7-1.4,1.8-2.3c-0.4-0.2-0.8-0.5-2.1-0.5C51.9,38.9,51.9,37.8,51.4,36.9z"/>
                                        <path fill="#FFFFFF" d="M38.5,62.1c0,0-0.1-0.6-0.1-1.3c0-0.5,0.1-0.7,0.1-1c0-0.4-0.2-0.7-0.7-0.7c-0.7,0-1,0.6-1,1.2
                                            C36.8,61.3,38.5,62.1,38.5,62.1z"/>
                                        <path fill="#FFFFFF" d="M36,62.2c0,0-0.1-0.4-0.1-1.3c0-0.1,0.1-0.5,0.1-0.7c0-0.4-0.2-0.7-0.6-0.7c-0.6,0-0.9,0.5-0.9,1.2
                                            C34.5,61.6,36,62.2,36,62.2z"/>
                                        <path fill="#FFFFFF" d="M34.1,62.5c0,0-0.4-0.4-0.4-1.1c0-0.1,0-0.3,0-0.5c0-0.3-0.2-0.6-0.6-0.6c-0.5,0-0.8,0.5-0.8,0.9
                                            C32.3,62.1,34.1,62.5,34.1,62.5z"/>
                                    </g>
                                </g>
                            </g>
                        </g>
                        </svg>