<svg xmlns="http://www.w3.org/2000/svg" viewBox="0 0 226.3 78" enable-background="new 0 0 226.3 78"><g fill="#231f20"><path d="M99.3,7.3v12.2h-3.7V7.3h-4.4V4.5h12.5v2.9H99.3z"/><path d="m108.6 11.7v7.8h-3.2v-15h3.2v5.1c.8-.7 1.9-1.2 3.1-1.2 2.2 0 3.8 1.6 3.8 4v7.1h-3.2v-6.5c0-1.1-.5-2-1.8-2-.7 0-1.4.2-1.9.7"/><path d="m122.5 19.8c-3.2 0-5.4-2.2-5.4-5.6 0-3.5 2.2-5.8 5.3-5.8 2.8 0 4.9 2 4.9 5.4v.6h-7.2c.1 1.8.8 3.1 2.4 3.1.9 0 1.7-.5 1.9-1.3h2.8c-.4 2.4-2.4 3.6-4.7 3.6m-2.3-6.4h4.2c-.1-1.7-.9-2.6-2.1-2.6-1-.1-1.9.7-2.1 2.6"/><path d="m142 16.1h-4.7l-1.1 3.5h-3.6l5.2-15.1h3.9l5.2 15.1h-3.8l-1.1-3.5m-2.4-7.6l-2 6.6h4.1l-2.1-6.6"/><path d="m151.8 11.6v8h-3.2v-10.9h2.9l.1.9c.8-.8 1.9-1.2 3.1-1.2 1.3 0 2.3.6 3 1.5.9-.9 2.1-1.5 3.5-1.5 2.1 0 3.7 1.6 3.7 4v7.1h-3.2v-6.5c0-1.1-.5-2-1.8-2-.5 0-1.1.2-1.6.6 0 .3.1.5.1.8v7.1h-3.2v-6.5c0-1.1-.5-2-1.8-2-.6 0-1.1.2-1.6.6"/><path d="m172.1 19.8c-3.2 0-5.4-2.2-5.4-5.6 0-3.5 2.2-5.8 5.3-5.8 2.8 0 4.9 2 4.9 5.4v.6h-7.2c.1 1.8.8 3.1 2.4 3.1.9 0 1.7-.5 1.9-1.3h2.8c-.4 2.4-2.3 3.6-4.7 3.6m-2.3-6.4h4.2c-.1-1.7-.9-2.6-2.1-2.6-.9-.1-1.9.7-2.1 2.6"/><path d="m178.8 19.6v-10.9h2.9l.1 1.7c1-1.3 2.2-2 3.5-2v2.8c-1.4 0-2.5.4-3.3 1.5v6.8h-3.2z"/><path d="m186.8 5.5c0-1 .8-1.8 1.9-1.8 1.1 0 1.9.8 1.9 1.8 0 1-.8 1.9-1.9 1.9-1-.1-1.9-.9-1.9-1.9m3.6 3.2v10.9h-3.2v-10.9h3.2"/><path d="m197.6 10.9c-1.3 0-2.2 1.1-2.2 3.2 0 1.9.8 3.2 2.3 3.2.9 0 1.7-.5 2-1.4h2.8c-.5 2.5-2.5 3.8-4.7 3.8-3.2 0-5.5-2.2-5.5-5.7 0-3.5 2.3-5.7 5.4-5.7 2.4 0 4.4 1.2 4.9 4.1h-2.9c-.4-1-1.1-1.5-2.1-1.5"/><path d="m210.5 18.4c-1.1.9-2.4 1.4-3.6 1.4-1.7 0-3-1-3-2.7 0-1.7 1.4-2.8 4.5-3.5l1.7-.4v-.6c0-1.1-.6-1.7-1.6-1.7-1 0-1.6.7-1.6 1.5h-2.8c.1-2.5 2-4 4.6-4 3 0 4.6 1.8 4.6 4.1v4.3c0 .6.5.9 1.1.7v1.9c-1.7.5-3.2.2-3.9-1m-.3-1.6v-2.6l-.9.2c-1.7.4-2.3 1.1-2.3 2 0 .8.5 1.2 1.3 1.2.6 0 1.2-.3 1.9-.8"/><path d="m219.4 11.6v8h-3.2v-10.9h2.9l.1 1c.9-.8 2.1-1.3 3.3-1.3 2.2 0 3.8 1.6 3.8 4v7.1h-3.2v-6.5c0-1.1-.5-2-1.8-2-.6 0-1.3.2-1.9.6"/><path d="m93.6 46.6v-.9h2.1v-13.4h-2.1v-.9h7.9v.9h-2.1v13.3h2.1v.9h-7.9z"/><path d="m106.6 38.6v8h-3.2v-10.9h2.9l.1 1c.9-.8 2.1-1.3 3.3-1.3 2.2 0 3.8 1.6 3.8 4v7.1h-3.2v-6.6c0-1.1-.5-2-1.8-2-.7 0-1.3.3-1.9.7"/><path d="m121.5 38.9c-.2-.7-.8-1.2-1.9-1.2-.9 0-1.3.3-1.3.8 0 .8 1.3 1 2.7 1.4 1.7.5 3.4 1.2 3.4 3.4 0 2-1.5 3.4-4.5 3.4-2.4 0-4.3-1-4.6-3.4h2.8c.2.8.9 1.2 1.9 1.2 1.1 0 1.5-.4 1.5-.9 0-.7-1.1-1-2.3-1.3-1.7-.5-3.7-1.2-3.7-3.5 0-2 1.5-3.4 4.3-3.4 2.2 0 4.1 1.1 4.6 3.5h-2.9"/><path d="m130.5 46.8c-2 0-3.7-1.4-3.7-3.7v-6.5h-1.8v-.9h1.7v-3.1l3.2-1.2v4.2h2.6v.9h-2.5v5.9c0 1.1.7 1.8 1.7 1.8.3 0 .7-.1 1.1-.2v2.2c-.7.5-1.5.6-2.3.6"/><path d="m134.5 32.4c0-1 .8-1.8 1.9-1.8 1.1 0 1.9.8 1.9 1.8 0 1-.8 1.9-1.9 1.9-1.1 0-1.9-.8-1.9-1.9m3.5 3.3v10.9h-3.2v-10.9h3.2"/><path d="m145.2 46.8c-2 0-3.7-1.4-3.7-3.7v-6.5h-1.7v-.9h1.7v-3.1l3.2-1.2v4.2h2.6v.9h-2.6v5.9c0 1.1.7 1.8 1.7 1.8.3 0 .7-.1 1.1-.2v2.2c-.7.5-1.5.6-2.3.6"/><path d="m156.2 45.6c-.8.8-1.9 1.2-3.1 1.2-2.2 0-3.8-1.6-3.8-4.1v-7.1h3.2v6.7c0 1.1.5 1.9 1.8 1.9.5 0 1.1-.2 1.6-.5v-8.1h3.2v10.9h-2.9v-.9"/><path d="m166.2 46.8c-2 0-3.7-1.4-3.7-3.7v-6.5h-1.7v-.9h1.7v-3.1l3.2-1.2v4.2h2.6v.9h-2.6v5.9c0 1.1.7 1.8 1.7 1.8.3 0 .7-.1 1.1-.2v2.2c-.7.5-1.5.6-2.3.6"/><path d="m175 46.8c-3.2 0-5.4-2.2-5.4-5.6 0-3.5 2.2-5.8 5.3-5.8 2.8 0 4.9 2 4.9 5.4v.6h-7.2c.1 1.8.8 3.1 2.4 3.1.9 0 1.7-.5 1.9-1.3h2.8c-.4 2.3-2.3 3.6-4.7 3.6m-2.3-6.4h4.2c-.1-1.7-.9-2.6-2.1-2.6-1-.1-1.9.7-2.1 2.6"/><path d="m92.9 68.1c0-3.5 2.3-5.7 5.5-5.7 3.2 0 5.5 2.2 5.5 5.7 0 3.5-2.3 5.7-5.5 5.7-3.2-.1-5.5-2.3-5.5-5.7m3.1 0c0 1.9.9 3.3 2.5 3.3 1.6 0 2.5-1.4 2.5-3.3 0-1.9-.9-3.3-2.5-3.3-1.6 0-2.5 1.3-2.5 3.3"/><path d="m109.6 63.6v10h-3.2v-10h-1.7v-.9h1.7v-.9c0-2.3 1.2-4.4 4.2-4.4.7 0 1.3.1 1.8.3v2.5c-.4-.1-.7-.2-1.1-.2-1 0-1.7.5-1.7 1.8v.8h2.6v.9h-2.6z"/><path d="m126.4 70.1h-4.7l-1.1 3.5h-3.6l5.2-15.1h3.9l5.2 15.1h-3.8l-1.1-3.5m-2.4-7.7l-2 6.6h4.1l-2.1-6.6"/><path d="m133 73.5v-10.9h2.9l.1 1.7c1-1.3 2.2-2 3.5-2v2.8c-1.4 0-2.5.4-3.3 1.5v6.8h-3.2z"/><path d="m145.9 64.8c-1.3 0-2.2 1.1-2.2 3.2 0 1.9.8 3.2 2.3 3.2.9 0 1.7-.5 2-1.4h2.8c-.5 2.5-2.5 3.8-4.7 3.8-3.2 0-5.5-2.2-5.5-5.7 0-3.5 2.3-5.7 5.4-5.7 2.4 0 4.4 1.2 4.9 4.1h-2.9c-.5-1-1.1-1.5-2.1-1.5"/><path d="m155.8 65.7v7.8h-3.2v-15.1h3.2v5.1c.8-.7 1.9-1.2 3.1-1.2 2.2 0 3.8 1.6 3.8 4v7.1h-3.2v-6.6c0-1.1-.5-2-1.8-2-.7.1-1.4.4-1.9.9"/><path d="m164.6 59.4c0-1 .8-1.8 1.9-1.8 1.1 0 1.9.8 1.9 1.8 0 1-.8 1.9-1.9 1.9-1.1 0-1.9-.8-1.9-1.9m3.5 3.2v10.9h-3.2v-10.9h3.2"/><path d="m175.3 73.7c-2 0-3.7-1.4-3.7-3.7v-6.5h-1.7v-.9h1.7v-3.1l3.2-1.2v4.2h2.6v.9h-2.6v5.9c0 1.1.7 1.8 1.7 1.8.3 0 .7-.1 1.1-.2v2.2c-.7.5-1.5.6-2.3.6"/><path d="m184 73.7c-3.2 0-5.4-2.2-5.4-5.6 0-3.5 2.2-5.8 5.3-5.8 2.8 0 4.9 2 4.9 5.4v.6h-7.2c.1 1.8.8 3.1 2.4 3.1.9 0 1.7-.5 1.9-1.3h2.8c-.4 2.4-2.3 3.6-4.7 3.6m-2.3-6.4h4.2c-.1-1.7-.9-2.6-2.1-2.6-1 0-1.9.8-2.1 2.6"/><path d="m195.8 64.8c-1.3 0-2.2 1.1-2.2 3.2 0 1.9.8 3.2 2.3 3.2.9 0 1.7-.5 2-1.4h2.8c-.5 2.5-2.5 3.8-4.7 3.8-3.2 0-5.5-2.2-5.5-5.7 0-3.5 2.3-5.7 5.4-5.7 2.4 0 4.4 1.2 4.9 4.1h-2.9c-.4-1-1.1-1.5-2.1-1.5"/><path d="m206.8 73.7c-2 0-3.7-1.4-3.7-3.7v-6.5h-1.7v-.9h1.7v-3.1l3.2-1.2v4.2h2.6v.9h-2.6v5.9c0 1.1.7 1.8 1.7 1.8.3 0 .7-.1 1.1-.2v2.2c-.7.5-1.5.6-2.3.6"/><path d="m216.4 65.9c-.2-.7-.8-1.2-1.9-1.2-.9 0-1.3.3-1.3.8 0 .8 1.3 1 2.7 1.4 1.7.5 3.4 1.2 3.4 3.4 0 2-1.5 3.4-4.5 3.4-2.4 0-4.3-1-4.6-3.4h2.8c.2.8.9 1.2 1.9 1.2 1.1 0 1.5-.4 1.5-.9 0-.7-1.1-1-2.3-1.3-1.7-.5-3.7-1.2-3.7-3.5 0-2 1.5-3.4 4.3-3.4 2.2 0 4.1 1.1 4.6 3.5h-2.9"/></g><path fill="#ef4536" d="m0 0h78v78h-78z"/><g fill="#fff"><path d="m37.4 40.9c.3-.5 1-1.1 1.6-1.4.6.3 1.3.9 1.6 1.4.3-.5.8-1.1 1.4-1.4.6.1 1.4.6 1.8.9-1-1.9-2.4-4.9-2.4-5.9 0-.3.2-.4.5-.5.1 0 .5-.1.5-.1s-.8-1.9-1.2-2.4c-.9-1.4-1.5-1.9-2.4-1.9-.3 0-.5 0-.5.2 0 .3 1.3 1.2 1.3 1.6 0 .3-2.2-.1-2-1.5 0-.3 0-.3-.1-.4-.5-.4-1.6-1.1-2.5-1.1-1.1 0-1.9 1.2-2.2 2.3 0 0 .6-.3.9-.3.5 0 .9.2 1.5 1 .8 1 1.4 2 1.4 3.5 0 2-1.1 3.7-2.2 5.6.4-.3 1.3-.8 1.8-1 .4.3.9.9 1.2 1.4"/><path d="m26.8 13.1h24.3c2.1 0 3-1.5 3-3h-30.2c0 1.5.8 3 2.9 3"/><path d="m33.3 31.8c-.2 0-.3.1-.3.1v1.4c.7 1.8 1.1 3.3 1.1 4.9.5-1 1-2.2 1-3.2 0-1.3-.4-2-.8-2.6-.5-.5-.7-.6-1-.6"/><path d="m39 68.5c0 0 3.5-1.2 3.5-2 0-.4-.2-.8-.6-1.6-.3-.7-.7-1.5-.7-1.5l-2.2-.4-2.3.5c0 0-.4.8-.7 1.5-.3.7-.6 1.2-.6 1.6.1.7 3.6 1.9 3.6 1.9"/><path d="m42.1 41.1c-.5.3-1.1 1-1.4 1.5-.4-.5-1.2-1.2-1.7-1.4-.6.2-1.3.9-1.7 1.4-.3-.5-.9-1.1-1.4-1.5-2.3.8-3 3.1-3 5.3 0 4.2 1.9 8.9 3.2 12l1.1-.2c1.2-.2 2.5-.2 3.8 0l.9.2c1.2-2.7 3.3-7.7 3.3-12 0-2.3-.7-4.5-3.1-5.3"/><path d="m41.2 60.3c0-.7-.3-1.2-1-1.2-.5 0-.7.3-.7.7 0 .3.1.5.1 1 0 .7-.1 1.3-.1 1.3s1.7-.8 1.7-1.8"/><path d="m43.5 60.7c0-.6-.3-1.2-.9-1.2-.4 0-.6.3-.6.7 0 .2.1.6.1.7 0 .9-.1 1.3-.1 1.3s1.5-.6 1.5-1.5"/><path d="m45.7 61.2c0-.4-.3-.9-.8-.9-.4 0-.5.3-.6.6 0 .2 0 .4 0 .5 0 .7-.4 1.1-.4 1.1s1.8-.4 1.8-1.3"/><path d="m20.9 4.5h36.1v4h-36.1z"/><path d="m20.9 69.5h36.1v4h-36.1z"/><path d="m51 66c1.6 1.3 4.4 1.7 6.1 1.9-.3-.9-2-3.9-3.6-5.1-.8-.6-1.9-1.3-3.1-1.3-.6 0-1.2.1-1.4.4 0 .2 0 .4 0 .7 0 1.5 1 2.6 2 3.4"/><path d="m61.4 64.6c.7 0 1.4 0 2-.1-1.5-2.2-3.6-5.1-6.7-5.1-.8 0-1.4.3-1.7.5-.2.1-.3.3-.3.6-.1 1.7 2.2 4.1 6.7 4.1"/><path d="m63.7 59.9c1.5 0 2.9-.4 4.1-.8-1.1-1-3.5-3.3-6.2-3.3-.5 0-1.1.1-1.6.3-.3.1-1 .5-1 1.1 0 .5.5 1 .6 1.2.7.8 2.1 1.5 4.1 1.5"/><path d="m65.8 54.6c1.8 0 3.6-.9 5-1.7-.7-.5-3.1-2-5.3-2-.9 0-1.8.1-2.6.7-.3.2-.8.7-.8 1 0 .3.2.5.3.6.8 1.2 2.2 1.4 3.4 1.4"/><path d="m29.1 62.6c0-.3-.1-.5-.2-.7-.2-.3-.8-.4-1.4-.4-1.2 0-2.3.7-3.1 1.3-1.6 1.3-3.3 4.2-3.6 5.1 1.7-.2 4.6-.6 6.1-1.9 1.1-.8 2.2-1.9 2.2-3.4"/><path d="m23.4 60.5c0-.2-.1-.5-.3-.6-.3-.2-.9-.5-1.7-.5-3.1 0-5.2 2.8-6.7 5.1.6.1 1.3.1 2 .1 4.5 0 6.7-2.4 6.7-4.1"/><path d="m18.5 58.4c.2-.2.6-.8.6-1.2 0-.5-.7-.9-1-1.1-.5-.2-1.1-.3-1.6-.3-2.8 0-5.1 2.3-6.2 3.3 1.1.4 2.6.8 4.1.8 1.9 0 3.3-.7 4.1-1.5"/><path d="m15.7 53.3c.1-.1.3-.3.3-.6 0-.4-.5-.8-.8-1-.8-.6-1.7-.7-2.6-.7-2.2 0-4.6 1.6-5.3 2 1.3.8 3.2 1.7 5 1.7 1.1-.1 2.5-.3 3.4-1.4"/><path d="m47.4 67.2c.6 0 1.1-.2 1.6-.3l-2.5-3.9c-.9.8-2.4 1-3.2 1 0 0 .3.6.7 1.4.6 1.3 2 1.8 3.4 1.8"/><path d="m34.1 65.4c.4-.8.7-1.4.7-1.4-.9 0-2.4-.2-3.2-1l-2.6 3.9c.4.1.9.3 1.6.3 1.4 0 2.9-.5 3.5-1.8"/><path d="m24.5 27c1 1.8 3.5 6.1 5 8.6 1.3 2.3 2.4 6 2.5 7.4.3-.5.6-1.8.5-3.4 0-1.7-.3-4.5-2.1-8.4-.5-1.2-1.7-3.7-3.8-8.5-1.6-3.5-2.1-5.7-2.1-7.4-1.5.7-2.5 2.4-2.4 4.3 0 2.4.5 4.2 2.4 7.4"/><path d="m26.2 39.6c-1.2 0-1.7.3-2.1.5.2.9 1 1.8 1.8 2.3-.7 0-1.5.3-2 .8.3 1.1 1.2 2.1 2.4 2.6-.5.4-.8.8-1 1.5.8 1 2.5 1.3 3.8 1.5-.4.4-.7 1-.9 1.7.9.6 2.3.7 3.5.7-.3-1.4-.6-3.3-.6-4.4 0-3.1-1.1-5.5-1.7-6.8-.6-1.2-1.2-2.5-2.8-3-.5.8-.5 1.9-.4 2.6"/><path d="m28.2 59.8c1.4 0 2.4-.4 3.6-2.1.1-.2 1.3-2 1.3-2s-.9-2-1-2.9c0 0-2.6 2.1-3.9 3.2-.8.7-2.5 1.9-3.5 2.2.3.5 2 1.6 3.5 1.6"/><path d="m23.5 56c2 0 2.6-.6 3.6-1.4.9-.7 2.6-2.1 2.6-2.1-.9.1-2.2-.4-2.8-1 0 0-2.1 1-3.6 1.5-2.2.7-3.2.8-3.7.9.5 1.2 2.2 2.1 3.9 2.1"/><path d="m20.6 51.6c1.5-.1 4.5-.9 6-1.9-.9-.1-2.1-.6-2.7-1.3-1.1.2-2.1.3-3 .3-2.6 0-4.3-.6-4.8-.7.5 2.4 2.2 3.7 4.5 3.6"/><path d="m13.7 41.1c0 3.2 1.9 5.9 7.2 5.9 1.1 0 2.8-.1 2.8-.1.1-.3.4-.9.6-1.2-.7-.2-4.5-1.4-6.6-2.5-2.3-1.1-3.5-2.2-3.9-2.6-.1.2-.1.3-.1.5"/><path d="m18.3 37.7c-2.9-2.1-4.2-3.6-4.7-4.6-.1.2-.3.8-.3 1.7 0 2.5 1 4.4 5.6 6.8 1.2.6 3.7 1.8 3.7 1.8-.1-.2-.1-.6-.1-.7 0 0 .4-.5 1.2-.8 0 0-4.2-3.3-5.4-4.2"/><path d="m18.4 30.2c-2.1-2.6-3.2-4.2-3.7-5.4-.4.5-.7 1.7-.7 2.9 0 3.7 2 6 4.6 8.1 2.1 1.7 4 3.3 4 3.3 0 .1.9-.8 2.4-.7 0 0-5.1-6.2-6.6-8.2"/><path d="m18.3 15.6c-1.5.7-2.6 2.9-2.6 4.5 0 2.1.5 4.8 3.7 8.7 2.5 3.1 5.9 7.3 5.9 7.3.1-.3.3-.8.5-1 .6 0 1.3.2 1.6.4 0 0-5.6-9.6-7-12-1.8-3.2-2.1-5.6-2.1-7.9"/><path d="m56 19.6c0-1.9-1-3.6-2.4-4.3 0 1.7-.6 3.9-2.1 7.4-2.1 4.8-3.2 7.3-3.8 8.5-1.8 4-2.1 6.8-2.1 8.4 0 1.6.3 2.9.5 3.4.1-1.4 1.2-5.1 2.5-7.4 1.5-2.5 4-6.8 5-8.6 1.8-3.2 2.3-5 2.4-7.4"/><path d="m58.4 53.9c-.5-.1-1.5-.2-3.7-.9-1.5-.4-3.6-1.5-3.6-1.5-.5.6-1.9 1.1-2.8 1 0 0 1.8 1.4 2.6 2.1 1 .8 1.7 1.4 3.6 1.4 1.7 0 3.4-.9 3.9-2.1"/><path d="m61.9 48.1c-.5.1-2.2.6-4.8.7-.9 0-1.9-.1-3-.3-.6.8-1.7 1.2-2.7 1.3 1.5 1 4.5 1.8 6 1.9 2.4 0 4-1.3 4.5-3.6"/><path d="m54.3 41.9c.8.3 1.2.8 1.2.8 0 .2 0 .5-.1.7 0 0 2.5-1.1 3.7-1.8 4.6-2.4 5.6-4.4 5.6-6.8 0-1-.2-1.5-.3-1.7-.5 1-1.9 2.4-4.7 4.6-1.2.9-5.4 4.2-5.4 4.2"/><path d="m57.6 23.5c-1.4 2.4-7 12-7 12 .3-.2 1-.4 1.6-.4.2.2.5.7.5 1 0 0 3.3-4.2 5.9-7.3 3.2-3.9 3.7-6.6 3.7-8.7 0-1.6-1.1-3.8-2.6-4.5 0 2.3-.3 4.7-2.1 7.9"/><path d="m28.7 14.6v8.7l2.7 6.1v-11.5-.1c0-.5.3-.8.7-.8h.1c.4 0 .7.3.7.8v.1 10.1c.2-.2.9-1 2.1-1 .4 0 .7.1.8.2v-9.3-.1c0-.5.3-.8.7-.8h.1.1c.4 0 .7.3.7.8v.1 10.2c.1 0 .1.1.2.2.1.1.2.2.4.2.1 0 .3-.1.7-.1.8 0 1.3.3 1.6.4v-10.9-.1c0-.5.3-.8.7-.8h.1.1c.4 0 .7.3.7.8v.1 12.5l1.9 4.2c0 0-.4 0-.7.1 0 0-.1.2-.1.3 0 .1.1.4.1.5 0 .1.6 1.4.9 2.1.1-1.7.4-2.9.9-4.5v-15.2-.1c0-.5.3-.8.7-.8h.1.1c.4 0 .7.3.7.8v.1c0 0 0 0 0 0v11.3l2.7-6.1v-8.5h-20.5"/></g><path fill="#ef4135" d="m37.5 17.8v.1z"/><g fill="#fff"><path d="m53.4 58.2c-1-.3-2.7-1.5-3.5-2.2-1.3-1.1-3.9-3.2-3.9-3.2-.2 1-1 2.9-1 2.9s1.2 1.8 1.3 2c1.2 1.7 2.2 2.1 3.6 2.1 1.4 0 3.1-1.1 3.5-1.6"/><path d="m64.3 40.7c-.4.3-1.6 1.5-3.9 2.6-2.1 1-5.9 2.3-6.6 2.5.2.2.5.9.6 1.2 0 0 1.6.1 2.8.1 5.3 0 7.2-2.7 7.2-5.9-.1-.3-.1-.4-.1-.5"/><path d="m53 38.4c1.4-.1 2.4.8 2.4.7 0 0 1.9-1.6 4-3.3 2.6-2.1 4.6-4.4 4.6-8.1 0-1.3-.3-2.4-.7-2.9-.4 1.2-1.5 2.8-3.7 5.4-1.5 2-6.6 8.2-6.6 8.2"/><path d="m51.4 36.9c-1.6.5-2.2 1.8-2.8 3-.7 1.3-1.7 3.7-1.7 6.8 0 1.1-.3 3-.6 4.4 1.2 0 2.7 0 3.5-.7-.2-.7-.5-1.3-.9-1.7 1.2-.2 2.9-.5 3.8-1.5-.2-.7-.5-1.1-1-1.5 1.2-.5 2.1-1.5 2.4-2.6-.5-.5-1.3-.7-2-.8.8-.5 1.7-1.4 1.8-2.3-.4-.2-.8-.5-2.1-.5.1-.6.1-1.7-.4-2.6"/><path d="m38.5 62.1c0 0-.1-.6-.1-1.3 0-.5.1-.7.1-1 0-.4-.2-.7-.7-.7-.7 0-1 .6-1 1.2 0 1 1.7 1.8 1.7 1.8"/><path d="m36 62.2c0 0-.1-.4-.1-1.3 0-.1.1-.5.1-.7 0-.4-.2-.7-.6-.7-.6 0-.9.5-.9 1.2 0 .9 1.5 1.5 1.5 1.5"/><path d="m34.1 62.5c0 0-.4-.4-.4-1.1 0-.1 0-.3 0-.5 0-.3-.2-.6-.6-.6-.5 0-.8.5-.8.9 0 .9 1.8 1.3 1.8 1.3"/></g></svg>